<svg width="45" height="45" viewBox="0 0 45 45" fill="none" xmlns="http://www.w3.org/2000/svg">
<path d="M32 10.625C32 9.31332 33.0633 8.25 34.375 8.25C35.6867 8.25 36.75 9.31332 36.75 10.625C36.75 11.9367 35.6867 13 34.375 13C33.0633 13 32 11.9367 32 10.625Z" fill="white"/>
<path fill-rule="evenodd" clip-rule="evenodd" d="M22.5 11.2187C16.2695 11.2187 11.2188 16.2695 11.2188 22.5C11.2188 28.7305 16.2695 33.7812 22.5 33.7812C28.7305 33.7812 33.7812 28.7305 33.7812 22.5C33.7812 16.2695 28.7305 11.2187 22.5 11.2187ZM14.7812 22.5C14.7812 18.237 18.237 14.7812 22.5 14.7812C26.7629 14.7812 30.2187 18.237 30.2187 22.5C30.2187 26.7629 26.7629 30.2187 22.5 30.2187C18.237 30.2187 14.7812 26.7629 14.7812 22.5Z" fill="white"/>
<path fill-rule="evenodd" clip-rule="evenodd" d="M34.9883 0.728413C26.7552 -0.191759 18.2448 -0.191759 10.0117 0.728413C5.23307 1.2625 1.37528 5.02689 0.813469 9.8304C-0.171059 18.2481 -0.171059 26.7519 0.813469 35.1696C1.37528 39.9731 5.23307 43.7375 10.0117 44.2716C18.2448 45.1917 26.7552 45.1917 34.9883 44.2716C39.767 43.7375 43.6248 39.9731 44.1866 35.1696C45.1711 26.7519 45.1711 18.2481 44.1866 9.8304C43.6248 5.02689 39.767 1.2625 34.9883 0.728413ZM10.4074 4.26887C18.3775 3.37809 26.6225 3.37809 34.5927 4.26887C37.7517 4.62193 40.2822 7.11476 40.6482 10.2442C41.6006 18.387 41.6006 26.613 40.6482 34.7557C40.2822 37.8852 37.7516 40.378 34.5926 40.7311C26.6225 41.6219 18.3775 41.6219 10.4074 40.7311C7.2484 40.378 4.71787 37.8852 4.35185 34.7557C3.39948 26.613 3.39948 18.387 4.35185 10.2442C4.71787 7.11476 7.2484 4.62193 10.4074 4.26887Z" fill="white"/>
</svg>
