<svg width="50" height="50" viewBox="0 0 50 50" fill="none" xmlns="http://www.w3.org/2000/svg">
<path fill-rule="evenodd" clip-rule="evenodd" d="M6.875 0.96875C3.26789 0.96875 0.34375 3.89289 0.34375 7.5C0.34375 11.1071 3.26789 14.0312 6.875 14.0312C10.4821 14.0312 13.4062 11.1071 13.4062 7.5C13.4062 3.89289 10.4821 0.96875 6.875 0.96875ZM3.90625 7.5C3.90625 5.8604 5.2354 4.53125 6.875 4.53125C8.51459 4.53125 9.84375 5.8604 9.84375 7.5C9.84375 9.13959 8.51459 10.4687 6.875 10.4687C5.2354 10.4687 3.90625 9.13959 3.90625 7.5Z" fill="white"/>
<path fill-rule="evenodd" clip-rule="evenodd" d="M0.34375 17C0.34375 16.0162 1.14124 15.2187 2.125 15.2187H11.625C12.6088 15.2187 13.4062 16.0162 13.4062 17V47.875C13.4062 48.8587 12.6088 49.6562 11.625 49.6562H2.125C1.14124 49.6562 0.34375 48.8587 0.34375 47.875V17ZM3.90625 18.7812V46.0937H9.84375V18.7812H3.90625Z" fill="white"/>
<path fill-rule="evenodd" clip-rule="evenodd" d="M16.9687 17C16.9687 16.0162 17.7662 15.2187 18.75 15.2187H28.25C29.2338 15.2187 30.0312 16.0162 30.0312 17V18.0308L31.065 17.5878C32.8423 16.8261 34.743 16.3484 36.6652 16.1737C43.2557 15.5745 49.0312 20.7534 49.0312 27.4031V47.875C49.0312 48.8587 48.2337 49.6562 47.25 49.6562H37.75C36.7662 49.6562 35.9687 48.8587 35.9687 47.875V31.25C35.9687 30.4626 35.656 29.7075 35.0992 29.1508C34.5425 28.594 33.7874 28.2812 33 28.2812C32.2126 28.2812 31.4575 28.594 30.9008 29.1508C30.344 29.7075 30.0312 30.4626 30.0312 31.25V47.875C30.0312 48.8587 29.2338 49.6562 28.25 49.6562H18.75C17.7662 49.6562 16.9687 48.8587 16.9687 47.875V17ZM20.5312 18.7812V46.0937H26.4687V31.25C26.4687 29.5178 27.1569 27.8566 28.3817 26.6317C29.6066 25.4069 31.2678 24.7187 33 24.7187C34.7322 24.7187 36.3934 25.4069 37.6183 26.6317C38.8431 27.8566 39.5312 29.5178 39.5312 31.25V46.0937H45.4687V27.4031C45.4687 22.8802 41.5239 19.3091 36.9878 19.7215C35.4344 19.8627 33.8988 20.2492 32.4684 20.8622L28.9517 22.3694C28.4013 22.6052 27.7693 22.5488 27.2694 22.2192C26.7696 21.8896 26.4687 21.3309 26.4687 20.7321V18.7812H20.5312Z" fill="white"/>
</svg>
