<svg width="53" height="43" viewBox="0 0 53 43" fill="none" xmlns="http://www.w3.org/2000/svg">
<path fill-rule="evenodd" clip-rule="evenodd" d="M33.676 0.940761C34.8834 0.73394 36.2355 0.664885 37.508 0.88016C39.7805 1.26463 41.8797 2.32086 43.539 3.90441C44.6236 3.92894 45.6896 3.71526 46.6328 3.41064C47.431 3.15283 48.1053 2.84153 48.5778 2.5954C48.8128 2.47301 48.9943 2.36861 49.1123 2.29793C49.1712 2.26265 49.214 2.23594 49.2394 2.21981L49.262 2.20542C49.9669 1.73581 50.9056 1.82721 51.5062 2.42454C52.1069 3.022 52.2037 3.95994 51.7375 4.66746C51.2442 5.41628 50.5594 6.7512 49.7921 8.24687C49.6715 8.48204 49.5488 8.72119 49.4245 8.96266C48.9844 9.81757 48.5332 10.6816 48.1126 11.4229C47.8485 11.8884 47.5661 12.361 47.2813 12.7693V13.4196C47.2994 15.8079 47.0255 18.1838 46.4695 20.4952C46.1197 21.9495 45.6583 23.3783 45.0878 24.7686C43.6095 28.3707 41.4283 31.6421 38.6716 34.3918C35.9149 37.1414 32.6379 39.3142 29.032 40.7832C25.4293 42.2509 21.5706 42.9867 17.6807 42.9477C12.0417 42.9526 6.52132 41.3279 1.78386 38.2691C1.08608 37.8186 0.792297 36.9456 1.07572 36.1649C1.35914 35.3841 2.14454 34.9029 2.96884 35.0049C3.68219 35.0932 4.40042 35.1363 5.11922 35.1339C7.70191 35.1267 10.2354 34.556 12.5483 33.481C11.8132 33.1464 11.1113 32.7337 10.4554 32.2474C8.52757 30.8178 7.09329 28.823 6.35212 26.5403C6.15952 25.9471 6.29119 25.2964 6.69925 24.8247C6.70656 24.8163 6.71394 24.8079 6.72139 24.7996C6.28551 24.411 5.87765 23.9878 5.50217 23.5326C3.81279 21.4849 2.88256 18.9165 2.86883 16.2619L2.86878 16.2527L2.86881 16.1339C2.86881 15.5025 3.20309 14.9183 3.74745 14.5983C3.88544 14.5172 4.0317 14.4561 4.18216 14.4152C3.37862 12.8119 2.96075 11.0414 2.96381 9.24533C2.96286 7.21051 3.49437 5.21083 4.50556 3.44502C4.79747 2.93526 5.32194 2.60219 5.90745 2.55475C6.49295 2.50731 7.0642 2.75158 7.43438 3.2077C9.72045 6.02447 12.5735 8.32883 15.8082 9.97107C17.4711 10.8153 19.2156 11.4748 21.0106 11.9413C22.017 12.2029 23.0392 12.4038 24.0718 12.5425C24.0263 10.8248 24.3655 9.108 25.0774 7.52166C26.1216 5.19458 27.9087 3.27991 30.1584 2.07794C31.1111 1.56891 32.3759 1.16347 33.676 0.940761ZM6.89034 18.8661C7.19825 19.7327 7.65631 20.5457 8.25019 21.2655C9.41708 22.68 11.0367 23.6479 12.8351 24.0057C13.6361 24.165 14.2262 24.8487 14.2666 25.6645C14.3071 26.4802 13.7875 27.219 13.0062 27.4568C12.359 27.6537 11.6959 27.7909 11.0253 27.8672C11.4685 28.4384 11.9897 28.95 12.5773 29.3857C13.9101 30.3741 15.5179 30.9223 17.1768 30.9543C17.9295 30.9687 18.5918 31.4549 18.8313 32.1686C19.0708 32.8823 18.8357 33.6695 18.244 34.135C15.7523 36.0957 12.8709 37.4629 9.81773 38.1608C12.3483 38.9712 15.0022 39.3884 17.6866 39.3852L17.7073 39.3851C21.1274 39.4207 24.5204 38.7744 27.6879 37.484C30.8555 36.1936 33.7341 34.2849 36.1558 31.8695C38.5774 29.454 40.4934 26.5803 41.792 23.4161C42.2932 22.1948 42.6985 20.9397 43.0058 19.6621C43.4947 17.6297 43.7353 15.5405 43.7189 13.4404L43.7188 13.4264V12.1677C43.7188 11.7358 43.8757 11.3186 44.1604 10.9938C44.3249 10.806 44.6127 10.3725 45.0141 9.66494C45.3956 8.99252 45.8179 8.18525 46.257 7.33218C46.2836 7.28059 46.3102 7.22873 46.337 7.17663C45.198 7.42398 43.907 7.55362 42.5537 7.40737C42.1251 7.36105 41.7278 7.16087 41.4356 6.84395C40.2413 5.54877 38.6508 4.68663 36.9137 4.39274C36.143 4.26235 35.2111 4.29219 34.2775 4.45212C33.2631 4.62588 32.3803 4.92991 31.8372 5.22007C30.2833 6.0503 29.0489 7.37281 28.3276 8.98017C27.6063 10.5875 27.439 12.3888 27.8517 14.1016C27.9833 14.6476 27.8497 15.2238 27.4911 15.6561C27.1325 16.0884 26.591 16.3263 26.0301 16.2979C24.027 16.1966 22.0451 15.891 20.1145 15.3893C18.0722 14.8585 16.0874 14.1081 14.1955 13.1476C11.4102 11.7335 8.87353 9.88793 6.67703 7.68467C6.57683 8.19675 6.52596 8.71931 6.52631 9.24525L6.5263 9.24981C6.52382 10.5578 6.8448 11.846 7.46066 12.9999C8.07652 14.1538 8.96815 15.1375 10.0562 15.8635C10.7165 16.304 11.0056 17.1283 10.7651 17.8848C10.5246 18.6413 9.8126 19.1474 9.01911 19.1258C8.30045 19.1062 7.5878 19.0188 6.89034 18.8661Z" fill="white"/>
</svg>
