<svg width="1312" height="680" viewBox="0 0 1312 680" fill="none" xmlns="http://www.w3.org/2000/svg">
<g filter="url(#filter0_ddddd_32_89)">
<path d="M497.75 261C496.75 262 494.25 261 492.25 258.75C490.25 256.75 489.5 254 490.5 253C491.5 252.25 492.25 250.5 492.5 248.75C493 245.75 492.5 242.25 490.25 238.75C488.25 235.25 484.5 231.75 478.75 228.25C437.5 205 356.25 225.25 316 244C296.75 253 249.5 279.75 262.5 307.25C268.5 320.25 289.5 327.5 310 334.5C321.75 338.75 333.5 342.75 343.25 348.25C414 388 325.75 473.5 256.25 474.75C231 476 201.5 464 201 438.75C200.75 427.25 209.75 412.25 232 394.5C233 393.5 235.5 394.75 237.5 397C239.5 399 240.25 401.75 239 402.5C217.5 419.75 209 433.75 209.25 444C209.5 460 237.25 461.75 248.25 461.25C309 459.75 396.5 385 344.25 355.5C335.5 350.75 324.25 346.75 312.75 342.75C289 334.5 264.75 326.25 255.25 306C240 273.25 283.75 244.75 307.75 233.5C350.75 213.5 433.75 196 477.75 221C486.75 226.25 493 232.5 496.5 238.75C500.25 244.75 501.25 250.5 500.75 254.75C500.25 257.5 499.25 259.75 497.75 261ZM528.145 409C530.145 409.25 532.645 411.25 533.895 413.75C535.145 416 534.895 417.75 532.895 417.75C479.895 413.25 440.895 414.25 412.645 418.25C395.895 446.5 377.145 473.75 368.645 473.75C357.145 473.5 347.145 467.25 342.145 458.5C339.395 453.5 338.395 447.75 340.145 442.25C341.895 437.25 345.645 432.25 352.395 427.5C362.645 420.25 379.645 413.75 405.645 409.75C412.145 398.75 418.395 387.75 423.645 378.25C415.895 385 407.895 390.25 402.645 389.75C400.395 389.5 398.645 389 396.895 388C391.895 385.25 389.145 381 389.145 375.75C388.895 372.75 389.895 369 391.645 365C394.895 357 401.395 347.25 409.395 337.75C410.395 336.5 412.895 337.5 414.895 339.5C416.895 341.75 417.895 344.25 416.895 345.5C408.895 354.75 402.645 364.25 399.395 372C398.895 373 398.395 378.5 399.895 379.5C417.145 383.25 446.645 340.75 444.645 339.25V339.5C445.645 338.25 447.645 339 449.895 341C451.895 343 453.145 345.5 452.395 346.75L446.895 356.5L446.645 356.75C446.645 357 433.895 381.5 418.645 408.25C445.895 405.25 481.895 405 528.145 409ZM399.395 420.5C380.645 424.5 367.645 429.75 359.395 435.75C353.145 440 349.645 444.75 348.145 449C346.895 453 347.395 456.25 348.645 458.75C350.895 462.25 356.395 464.75 363.395 465C370.145 465 384.895 444.5 399.395 420.5ZM466.18 358.25C469.68 357.25 473.43 355.75 477.43 354C482.68 351.25 487.18 346 489.93 341.25C490.43 340.25 490.68 339.5 491.18 338.5C488.43 339.75 485.18 341.75 481.43 344.5C476.43 348.25 470.68 353 466.18 358.25ZM483.93 362.25C472.18 368.25 458.93 369.75 458.18 369.75C441.18 406.25 508.68 375.25 516.43 361.25C517.18 359.75 519.68 358 521.93 360C523.93 362 523.93 363 523.18 364.5C516.18 376.75 477.18 403.75 459.93 394C451.43 389.25 446.18 379.25 448.18 369.5C449.43 363.25 453.18 356.75 458.18 351C463.18 345.5 468.93 340.25 474.43 336.25C481.68 331.25 488.43 328.25 491.18 328.75C493.43 329.25 495.43 330.5 497.18 332.5C499.68 335.25 500.68 338.5 500.18 341.5C499.93 343.75 498.93 346 497.68 348.5C494.93 353.75 489.93 359.25 483.93 362.25ZM553.982 370.25C553.732 371.5 552.232 371.75 550.482 370.75L550.232 371.25C541.232 379 533.232 385.25 526.982 389.25C518.482 394.5 504.232 395.75 504.982 381.5C505.232 377.75 506.982 373 509.732 368.25C514.732 360 525.482 346.25 535.982 346.75C545.732 346.5 548.732 351.5 551.232 355.25C560.482 346.5 569.982 336.25 578.982 325.5C599.482 301 613.482 280.75 620.232 270.25L625.482 262.25C626.232 261 628.482 261.5 630.732 263.75C632.732 265.75 633.982 268.25 633.232 269.75C633.232 269.75 631.232 273 627.232 279C602.732 317.5 509.982 463.75 513.482 472C514.482 474.5 513.482 475.75 511.482 475.25C509.482 474.75 506.982 472.5 506.232 470C503.232 463 536.482 406 568.482 353.25C563.732 358.25 558.982 363 554.232 367.25C554.232 369 553.982 370 553.982 370.25ZM545.732 360.5C545.232 358.75 543.982 356.75 540.732 356.75C531.732 356.25 521.732 368.5 517.482 375.5C515.482 379 513.982 382.25 513.482 384.75C514.982 384 517.232 382.75 519.982 381C526.232 377.25 534.232 371 542.982 363.25L545.732 360.5ZM811.412 222.5C812.162 221.25 814.662 222 816.662 224.25C818.912 226.25 819.912 229 818.912 230L817.412 232C898.912 232.25 991.162 236.5 992.412 251.25C992.662 253.25 990.912 253.75 988.662 252.25C986.412 251 984.412 248.25 984.162 246.25C983.662 240.25 889.662 239.75 810.912 240.5C798.412 256.75 774.162 289 751.412 322C782.662 320.5 816.912 322 819.162 333.75C819.662 335.75 818.162 336.5 815.912 335.25C813.662 334.25 811.412 331.5 811.162 329.5C810.412 325.25 774.912 327.75 745.662 330.5C714.162 377 688.412 422.25 706.162 423C728.662 424.25 753.412 423 774.162 422.25C805.162 420.75 828.912 419.75 832.912 431C833.662 433.25 832.662 434.5 830.662 433.75C828.412 433 826.162 430.5 825.162 428.25C825.162 428 805.412 429.75 779.662 430.75C758.412 431.75 733.912 433 710.912 431.75C681.662 430.25 703.912 381.5 734.662 331.5C719.162 333 707.412 334.5 707.162 334.5C705.662 334.75 702.912 333 701.412 330.5C699.912 328.25 699.912 326 701.662 325.75C701.662 325.75 719.162 323.75 740.412 322.5C743.912 317 747.662 311.25 751.162 305.75C750.912 304.75 750.662 303.75 751.162 303C751.162 303 790.162 246.5 715.412 245C708.662 244.75 704.662 244.75 702.912 244.5C676.662 241 672.912 238 687.912 236C686.412 235 687.912 234.75 694.412 235.25C699.662 234.75 706.412 234.5 714.162 234C727.412 233.5 747.412 232.75 770.662 232.5C781.162 232.25 792.412 232 803.912 232C808.662 226 811.162 222.5 811.412 222.5ZM771.412 276.5C781.162 262.5 790.412 250.25 797.412 240.75C789.912 240.75 782.662 241 775.912 241C765.162 241.25 755.162 241.5 746.162 241.75C767.162 249.25 772.162 263 771.412 276.5ZM851.014 366C850.014 367 847.514 365.75 845.514 363.75C843.514 361.5 842.764 359 844.014 358C844.014 358 859.264 344.5 871.264 342C874.514 341.25 877.764 342.25 880.514 345C883.014 347.5 884.514 350.5 884.514 353.75C884.764 355.75 884.264 358 883.014 360.25C879.764 367.75 870.514 377.25 852.764 384.75L853.014 385.25C862.764 384.25 886.014 381.25 899.264 358.5C900.014 357.25 900.764 355.75 902.764 357.75C905.014 359.75 905.764 359.25 905.014 360.5C889.014 387.75 862.014 394 854.764 394.25C855.514 403 854.014 415.25 843.264 425.75C835.264 433.75 826.514 437.75 820.014 438.25C817.014 438.5 814.264 438.25 812.014 437C808.264 435.25 805.264 432.25 803.764 428C802.764 425 803.014 421 805.014 416.5C812.264 401.25 840.514 388.5 846.264 386C845.764 383 844.764 381 844.514 380.25C843.764 378.75 843.764 377.25 845.014 376.75C862.764 369.5 872.014 360.25 875.264 353.25C875.514 352.25 876.014 351.5 876.014 350.75C865.014 353.75 851.264 366 851.014 366ZM836.014 418C843.014 411 845.764 403.75 846.514 397.25C836.514 402.25 818.264 412.25 813.014 423.75C811.764 426.25 811.264 428.25 811.264 429.5C812.264 429.75 813.264 429.75 814.514 429.75C820.514 429.25 828.264 425.5 836.014 418ZM940.318 355.5C941.318 358 940.568 359.5 938.568 359C936.568 358.5 934.068 356.25 933.068 354C928.068 349.25 915.818 355 911.318 358.75C902.068 366.25 896.818 375.25 894.068 386.75C902.818 384.25 925.568 357.75 925.568 357.75C926.568 356.75 928.818 357.5 931.068 359.75C932.818 361.75 933.818 364 933.068 365.25C932.568 366.5 929.568 373 931.068 380C932.068 386 964.568 358.75 965.068 358.5C966.068 357.5 968.068 356.25 970.068 358.25C972.068 360.5 971.818 362.5 970.818 363.5C954.318 378.25 944.568 387 937.818 390.5C926.318 396.5 917.568 393 917.818 380.75C908.818 389.25 899.568 397 894.068 394.5C892.068 393.75 890.568 392.25 889.068 390.75C886.568 387.5 885.568 384 886.068 380.25C886.318 377.25 887.318 374 888.818 370.75C892.068 363.75 897.818 356 904.318 350.75C915.568 341.5 936.068 341 940.318 355.5ZM1005.5 355.5C1006.5 358 1005.75 359.5 1003.75 359C1001.75 358.5 999.254 356.25 998.254 354C993.254 349.25 981.004 355 976.504 358.75C967.254 366.25 962.004 375.25 959.254 386.75C968.004 384.25 990.754 357.75 990.754 357.75C991.754 356.75 994.004 357.5 996.254 359.75C998.004 361.75 999.004 364 998.254 365.25C997.754 366.5 994.754 373 996.254 380C997.254 386 1029.75 358.75 1030.25 358.5C1031.25 357.5 1033.25 356.25 1035.25 358.25C1037.25 360.5 1037 362.5 1036 363.5C1019.5 378.25 1009.75 387 1003 390.5C991.504 396.5 982.754 393 983.004 380.75C974.004 389.25 964.754 397 959.254 394.5C957.254 393.75 955.754 392.25 954.254 390.75C951.754 387.5 950.754 384 951.254 380.25C951.504 377.25 952.504 374 954.004 370.75C957.254 363.75 963.004 356 969.504 350.75C980.754 341.5 1001.25 341 1005.5 355.5ZM1036.69 345.75C1037.44 344.5 1039.94 345 1041.94 347C1044.19 349 1045.19 351.75 1044.44 353L1038.19 364.25C1051.69 353 1066.44 342 1071.94 343.5H1072.44C1079.94 345.75 1081.19 350.5 1079.44 356.75C1078.69 359.5 1076.94 362.75 1075.19 366.5C1071.94 373 1068.19 380.25 1068.19 380.25C1076.19 385.5 1103.19 361.75 1103.44 361.75C1104.19 360.75 1106.94 357.5 1108.94 359.75C1111.19 361.75 1109.69 362.25 1108.69 363.5C1108.69 363.5 1081.44 395.75 1068.44 387.25C1057.19 380 1062.69 369 1067.44 359.25C1068.44 357.25 1069.44 355.25 1070.19 353.25C1055.94 360.75 1022.69 392.5 1021.69 393.5C1020.94 394.5 1018.69 393.75 1016.69 392C1014.69 389.75 1013.44 387.25 1014.19 386L1036.69 345.75Z" fill="white"/>
<path d="M497.75 261L497.11 260.232L497.075 260.261L497.043 260.293L497.75 261ZM492.25 258.75L492.997 258.086L492.978 258.064L492.957 258.043L492.25 258.75ZM490.5 253L489.9 252.2L489.843 252.243L489.793 252.293L490.5 253ZM492.5 248.75L491.514 248.586L491.512 248.597L491.51 248.609L492.5 248.75ZM490.25 238.75L489.382 239.246L489.395 239.269L489.409 239.291L490.25 238.75ZM478.75 228.25L479.27 227.396L479.256 227.387L479.241 227.379L478.75 228.25ZM316 244L315.578 243.094L315.576 243.094L316 244ZM262.5 307.25L263.408 306.831L263.404 306.823L262.5 307.25ZM310 334.5L310.34 333.56L310.332 333.557L310.323 333.554L310 334.5ZM343.25 348.25L342.759 349.121L342.76 349.122L343.25 348.25ZM256.25 474.75L256.232 473.75L256.216 473.75L256.201 473.751L256.25 474.75ZM201 438.75L202 438.73L202 438.728L201 438.75ZM232 394.5L232.624 395.282L232.667 395.247L232.707 395.207L232 394.5ZM237.5 397L236.753 397.664L236.772 397.686L236.793 397.707L237.5 397ZM239 402.5L238.486 401.643L238.427 401.677L238.374 401.72L239 402.5ZM209.25 444L210.25 443.984L210.25 443.976L209.25 444ZM248.25 461.25L248.225 460.25L248.215 460.251L248.205 460.251L248.25 461.25ZM344.25 355.5L344.742 354.629L344.734 354.625L344.727 354.621L344.25 355.5ZM312.75 342.75L313.079 341.806L313.078 341.805L312.75 342.75ZM255.25 306L254.343 306.422L254.345 306.425L255.25 306ZM307.75 233.5L307.328 232.593L307.326 232.595L307.75 233.5ZM477.75 221L478.254 220.136L478.244 220.131L477.75 221ZM496.5 238.75L495.628 239.239L495.639 239.26L495.652 239.28L496.5 238.75ZM500.75 254.75L501.734 254.929L501.739 254.898L501.743 254.867L500.75 254.75ZM497.043 260.293C496.995 260.341 496.664 260.538 495.751 260.167C494.922 259.83 493.918 259.121 492.997 258.086L491.503 259.414C492.582 260.628 493.828 261.545 494.999 262.02C496.086 262.462 497.505 262.659 498.457 261.707L497.043 260.293ZM492.957 258.043C492.067 257.152 491.471 256.108 491.209 255.218C490.922 254.239 491.116 253.798 491.207 253.707L489.793 252.293C488.884 253.202 488.953 254.636 489.291 255.782C489.654 257.017 490.433 258.348 491.543 259.457L492.957 258.043ZM491.1 253.8C491.785 253.286 492.31 252.496 492.69 251.667C493.078 250.822 493.353 249.853 493.49 248.891L491.51 248.609C491.397 249.397 491.172 250.178 490.872 250.833C490.565 251.504 490.215 251.964 489.9 252.2L491.1 253.8ZM493.486 248.914C494.027 245.672 493.477 241.921 491.091 238.209L489.409 239.291C491.523 242.579 491.973 245.827 491.514 248.586L493.486 248.914ZM491.118 238.254C489 234.547 485.091 230.939 479.27 227.396L478.23 229.104C483.909 232.561 487.5 235.953 489.382 239.246L491.118 238.254ZM479.241 227.379C458.312 215.583 427.402 214.879 396.854 219.386C366.259 223.9 335.79 233.678 315.578 243.094L316.422 244.906C336.46 235.572 366.741 225.85 397.146 221.364C427.598 216.871 457.938 217.667 478.259 229.121L479.241 227.379ZM315.576 243.094C305.916 247.611 289.19 256.597 276.49 267.942C270.142 273.613 264.738 279.927 261.754 286.624C258.756 293.355 258.199 300.492 261.596 307.677L263.404 306.823C260.301 300.258 260.775 293.738 263.581 287.438C266.403 281.105 271.577 275.012 277.822 269.433C290.31 258.278 306.834 249.389 316.424 244.906L315.576 243.094ZM261.592 307.669C264.74 314.49 271.753 319.682 280.363 324.018C288.998 328.367 299.442 331.952 309.677 335.446L310.323 333.554C300.058 330.048 289.752 326.508 281.262 322.232C272.747 317.943 266.26 313.01 263.408 306.831L261.592 307.669ZM309.66 335.44C321.449 339.704 333.1 343.672 342.759 349.121L343.741 347.379C333.9 341.828 322.051 337.796 310.34 333.56L309.66 335.44ZM342.76 349.122C360.217 358.93 367.707 371.447 368.278 384.653C368.853 397.934 362.443 412.151 351.573 425.3C329.823 451.611 290.647 473.131 256.232 473.75L256.268 475.75C291.353 475.119 331.052 453.264 353.115 426.575C364.15 413.224 370.881 398.535 370.276 384.566C369.668 370.521 361.658 357.445 343.74 347.378L342.76 349.122ZM256.201 473.751C243.731 474.369 230.238 471.708 219.837 465.817C209.453 459.936 202.241 450.903 202 438.73L200 438.77C200.259 451.847 208.047 461.439 218.851 467.558C229.637 473.667 243.519 476.381 256.299 475.749L256.201 473.751ZM202 438.728C201.881 433.25 203.964 426.827 208.891 419.528C213.817 412.232 221.549 404.117 232.624 395.282L231.376 393.718C220.201 402.633 212.308 410.893 207.234 418.409C202.161 425.923 199.869 432.75 200 438.772L202 438.728ZM232.707 395.207C232.714 395.2 232.763 395.146 232.971 395.152C233.194 395.158 233.525 395.237 233.951 395.437C234.798 395.834 235.818 396.613 236.753 397.664L238.247 396.336C237.182 395.137 235.952 394.166 234.799 393.626C234.225 393.357 233.618 393.17 233.029 393.153C232.425 393.135 231.786 393.3 231.293 393.793L232.707 395.207ZM236.793 397.707C237.687 398.601 238.274 399.64 238.504 400.482C238.619 400.905 238.629 401.221 238.591 401.421C238.557 401.603 238.499 401.634 238.486 401.643L239.514 403.357C240.126 402.991 240.443 402.397 240.557 401.79C240.668 401.201 240.599 400.564 240.434 399.956C240.101 398.735 239.313 397.399 238.207 396.293L236.793 397.707ZM238.374 401.72C227.578 410.382 220 418.264 215.145 425.308C210.295 432.345 208.118 438.614 208.25 444.024L210.25 443.976C210.132 439.136 212.08 433.28 216.792 426.442C221.5 419.611 228.922 411.868 239.626 403.28L238.374 401.72ZM208.25 444.016C208.318 448.348 210.263 451.714 213.252 454.275C216.213 456.813 220.203 458.567 224.445 459.774C232.931 462.19 242.737 462.502 248.295 462.249L248.205 460.251C242.763 460.498 233.194 460.185 224.993 457.851C220.891 456.683 217.208 455.031 214.553 452.756C211.925 450.505 210.307 447.652 210.25 443.984L208.25 444.016ZM248.275 462.25C278.968 461.492 316.26 442.277 339.326 419.588C350.857 408.246 358.969 395.905 360.823 384.417C361.754 378.649 361.108 373.083 358.509 367.997C355.911 362.915 351.404 358.391 344.742 354.629L343.758 356.371C350.159 359.984 354.347 364.249 356.728 368.907C359.106 373.561 359.722 378.686 358.849 384.098C357.094 394.97 349.331 406.941 337.924 418.162C315.115 440.598 278.282 459.508 248.225 460.25L248.275 462.25ZM344.727 354.621C335.892 349.825 324.562 345.8 313.079 341.806L312.421 343.694C323.938 347.7 335.108 351.675 343.773 356.379L344.727 354.621ZM313.078 341.805C301.182 337.673 289.268 333.575 279.138 327.999C269.021 322.43 260.782 315.438 256.155 305.575L254.345 306.425C259.218 316.812 267.854 324.07 278.174 329.751C288.482 335.425 300.568 339.577 312.422 343.695L313.078 341.805ZM256.157 305.578C248.791 289.76 255.586 274.885 267.505 262.377C279.416 249.879 296.23 240.004 308.174 234.405L307.326 232.595C295.27 238.246 278.209 248.246 266.057 260.998C253.914 273.74 246.459 289.49 254.343 306.422L256.157 305.578ZM308.172 234.407C329.571 224.454 360.968 215.106 392.493 211.368C424.054 207.626 455.539 209.53 477.256 221.869L478.244 220.131C455.961 207.47 423.946 205.624 392.257 209.382C360.532 213.144 328.929 222.546 307.328 232.593L308.172 234.407ZM477.246 221.864C486.129 227.045 492.233 233.178 495.628 239.239L497.373 238.261C493.767 231.822 487.371 225.455 478.254 220.136L477.246 221.864ZM495.652 239.28C499.294 245.107 500.228 250.631 499.757 254.633L501.743 254.867C502.272 250.369 501.206 244.393 497.348 238.22L495.652 239.28ZM499.766 254.571C499.283 257.228 498.346 259.202 497.11 260.232L498.39 261.768C500.155 260.298 501.217 257.772 501.734 254.929L499.766 254.571ZM528.145 409L528.269 408.008L528.25 408.005L528.231 408.004L528.145 409ZM533.895 413.75L533 414.197L533.01 414.217L533.02 414.236L533.895 413.75ZM532.895 417.75L532.81 418.746L532.852 418.75H532.895V417.75ZM412.645 418.25L412.504 417.26L412.029 417.327L411.784 417.74L412.645 418.25ZM368.645 473.75L368.623 474.75L368.634 474.75H368.645V473.75ZM342.145 458.5L341.268 458.982L341.272 458.989L341.276 458.996L342.145 458.5ZM340.145 442.25L339.201 441.92L339.196 441.933L339.192 441.947L340.145 442.25ZM352.395 427.5L352.97 428.318L352.972 428.316L352.395 427.5ZM405.645 409.75L405.797 410.738L406.265 410.666L406.505 410.259L405.645 409.75ZM423.645 378.25L424.52 378.734L422.988 377.496L423.645 378.25ZM402.645 389.75L402.534 390.744L402.542 390.745L402.55 390.745L402.645 389.75ZM396.895 388L397.391 387.132L397.384 387.128L397.376 387.124L396.895 388ZM389.145 375.75H390.145V375.708L390.141 375.667L389.145 375.75ZM391.645 365L392.561 365.401L392.566 365.389L392.571 365.376L391.645 365ZM409.395 337.75L410.159 338.394L410.168 338.385L410.175 338.375L409.395 337.75ZM414.895 339.5L415.642 338.836L415.622 338.814L415.602 338.793L414.895 339.5ZM416.895 345.5L417.651 346.154L417.663 346.14L417.675 346.125L416.895 345.5ZM399.395 372L400.289 372.447L400.304 372.417L400.317 372.387L399.395 372ZM399.895 379.5L399.34 380.332L399.497 380.437L399.682 380.477L399.895 379.5ZM444.645 339.25L445.245 338.45L443.645 337.25V339.25H444.645ZM444.645 339.5H443.645V342.351L445.425 340.125L444.645 339.5ZM449.895 341L450.602 340.293L450.581 340.272L450.559 340.253L449.895 341ZM452.395 346.75L451.537 346.235L451.53 346.247L451.524 346.259L452.395 346.75ZM446.895 356.5L447.602 357.207L447.698 357.11L447.766 356.991L446.895 356.5ZM446.645 356.75L445.937 356.043L445.645 356.336V356.75H446.645ZM418.645 408.25L417.776 407.755L416.804 409.459L418.754 409.244L418.645 408.25ZM399.395 420.5L400.25 421.017L401.445 419.04L399.186 419.522L399.395 420.5ZM359.395 435.75L359.957 436.577L359.97 436.568L359.983 436.559L359.395 435.75ZM348.145 449L347.202 448.667L347.195 448.684L347.19 448.702L348.145 449ZM348.645 458.75L347.75 459.197L347.774 459.245L347.803 459.291L348.645 458.75ZM363.395 465L363.359 465.999L363.377 466H363.395V465ZM528.021 409.992C528.771 410.086 529.724 410.533 530.668 411.305C531.599 412.067 532.443 413.083 533 414.197L534.789 413.303C534.096 411.917 533.066 410.683 531.934 409.757C530.815 408.842 529.518 408.164 528.269 408.008L528.021 409.992ZM533.02 414.236C533.606 415.29 533.714 416.021 533.636 416.381C533.605 416.525 533.552 416.584 533.498 416.622C533.427 416.671 533.256 416.75 532.895 416.75V418.75C533.533 418.75 534.143 418.611 534.643 418.261C535.159 417.901 535.465 417.381 535.59 416.806C535.825 415.729 535.433 414.46 534.769 413.264L533.02 414.236ZM532.979 416.754C479.931 412.25 440.851 413.246 412.504 417.26L412.785 419.24C440.938 415.254 479.858 414.25 532.81 418.746L532.979 416.754ZM411.784 417.74C403.417 431.852 394.564 445.69 386.754 455.99C382.846 461.143 379.222 465.38 376.068 468.319C374.491 469.789 373.055 470.912 371.781 471.662C370.495 472.42 369.454 472.75 368.645 472.75V474.75C369.96 474.75 371.364 474.229 372.796 473.386C374.24 472.535 375.794 471.308 377.432 469.782C380.708 466.729 384.411 462.389 388.348 457.198C396.225 446.81 405.122 432.898 413.505 418.76L411.784 417.74ZM368.666 472.75C357.511 472.508 347.835 466.443 343.013 458.004L341.276 458.996C346.454 468.057 356.779 474.492 368.623 474.75L368.666 472.75ZM343.021 458.018C340.375 453.208 339.447 447.742 341.097 442.553L339.192 441.947C337.342 447.758 338.414 453.792 341.268 458.982L343.021 458.018ZM341.088 442.58C342.755 437.82 346.35 432.976 352.97 428.318L351.819 426.682C344.939 431.524 341.034 436.68 339.201 441.92L341.088 442.58ZM352.972 428.316C363.044 421.192 379.872 414.727 405.797 410.738L405.492 408.762C379.417 412.773 362.245 419.308 351.817 426.684L352.972 428.316ZM406.505 410.259C413.011 399.25 419.266 388.241 424.52 378.734L422.769 377.766C417.523 387.259 411.278 398.25 404.784 409.241L406.505 410.259ZM422.988 377.496C419.138 380.849 415.255 383.804 411.707 385.853C408.118 387.925 405.038 388.973 402.739 388.755L402.55 390.745C405.501 391.027 409.046 389.7 412.707 387.585C416.409 385.446 420.401 382.401 424.301 379.004L422.988 377.496ZM402.755 388.756C400.607 388.517 398.996 388.049 397.391 387.132L396.398 388.868C398.293 389.951 400.182 390.483 402.534 390.744L402.755 388.756ZM397.376 387.124C392.65 384.524 390.145 380.586 390.145 375.75H388.145C388.145 381.414 391.139 385.976 396.413 388.876L397.376 387.124ZM390.141 375.667C389.912 372.917 390.832 369.353 392.561 365.401L390.728 364.599C388.957 368.647 387.877 372.583 388.148 375.833L390.141 375.667ZM392.571 365.376C395.765 357.515 402.191 347.857 410.159 338.394L408.63 337.106C400.598 346.643 394.024 356.485 390.718 364.624L392.571 365.376ZM410.175 338.375C410.269 338.257 410.574 338.053 411.444 338.352C412.263 338.633 413.262 339.282 414.187 340.207L415.602 338.793C414.527 337.718 413.276 336.867 412.095 336.461C410.965 336.072 409.52 335.993 408.614 337.125L410.175 338.375ZM414.147 340.164C415.09 341.225 415.757 342.302 416.077 343.208C416.412 344.158 416.287 344.659 416.114 344.875L417.675 346.125C418.502 345.091 418.377 343.717 417.963 342.542C417.532 341.323 416.7 340.025 415.642 338.836L414.147 340.164ZM416.138 344.846C408.096 354.144 401.777 363.734 398.472 371.613L400.317 372.387C403.513 364.766 409.693 355.356 417.651 346.154L416.138 344.846ZM398.5 371.553C398.294 371.966 398.154 372.648 398.06 373.315C397.96 374.031 397.895 374.89 397.895 375.75C397.895 376.603 397.959 377.499 398.139 378.273C398.306 378.989 398.627 379.857 399.34 380.332L400.449 378.668C400.412 378.643 400.233 378.449 400.087 377.82C399.955 377.251 399.895 376.522 399.895 375.75C399.895 374.985 399.954 374.219 400.041 373.591C400.085 373.278 400.134 373.009 400.184 372.798C400.209 372.693 400.232 372.609 400.253 372.545C400.263 372.513 400.272 372.489 400.279 372.471C400.286 372.453 400.29 372.446 400.289 372.447L398.5 371.553ZM399.682 380.477C404.415 381.506 409.794 379.347 415.004 375.833C420.26 372.288 425.564 367.214 430.233 362.012C434.906 356.804 438.974 351.43 441.754 347.253C443.142 345.169 444.223 343.362 444.898 342.011C445.232 341.343 445.488 340.745 445.624 340.261C445.69 340.025 445.746 339.755 445.741 339.489C445.736 339.251 445.676 338.773 445.245 338.45L444.045 340.05C443.895 339.938 443.816 339.8 443.778 339.699C443.743 339.605 443.741 339.539 443.741 339.527C443.741 339.51 443.742 339.563 443.698 339.72C443.614 340.022 443.424 340.487 443.109 341.117C442.486 342.363 441.455 344.093 440.089 346.145C437.362 350.242 433.352 355.54 428.744 360.676C424.131 365.817 418.951 370.759 413.886 374.175C408.776 377.622 403.999 379.369 400.107 378.523L399.682 380.477ZM443.645 339.25V339.5H445.645V339.25H443.645ZM445.425 340.125C445.532 339.992 445.64 339.932 445.77 339.906C445.921 339.875 446.158 339.879 446.504 339.986C447.212 340.206 448.149 340.786 449.23 341.747L450.559 340.253C449.39 339.214 448.202 338.419 447.097 338.076C446.537 337.902 445.946 337.828 445.37 337.946C444.774 338.068 444.257 338.383 443.864 338.875L445.425 340.125ZM449.187 341.707C450.123 342.642 450.857 343.671 451.265 344.57C451.708 345.543 451.642 346.061 451.537 346.235L453.252 347.264C453.898 346.189 453.581 344.832 453.086 343.742C452.557 342.579 451.666 341.358 450.602 340.293L449.187 341.707ZM451.524 346.259L446.024 356.009L447.766 356.991L453.266 347.241L451.524 346.259ZM446.187 355.793L445.937 356.043L447.352 357.457L447.602 357.207L446.187 355.793ZM445.645 356.75C445.645 356.64 445.663 356.556 445.669 356.533C445.677 356.498 445.685 356.472 445.689 356.459C445.697 356.432 445.704 356.414 445.705 356.412C445.708 356.406 445.706 356.411 445.696 356.433C445.677 356.474 445.646 356.541 445.598 356.638C445.505 356.831 445.363 357.114 445.175 357.485C444.799 358.227 444.243 359.305 443.527 360.678C442.096 363.424 440.027 367.343 437.482 372.09C432.391 381.584 425.396 394.389 417.776 407.755L419.513 408.745C427.144 395.361 434.148 382.541 439.245 373.035C441.793 368.282 443.865 364.357 445.301 361.603C446.018 360.226 446.578 359.141 446.959 358.39C447.149 358.015 447.296 357.72 447.397 357.513C447.447 357.41 447.488 357.323 447.519 357.255C447.534 357.223 447.55 357.184 447.565 357.147C447.572 357.129 447.584 357.098 447.596 357.062C447.601 357.044 447.611 357.013 447.619 356.975C447.625 356.949 447.645 356.862 447.645 356.75H445.645ZM418.754 409.244C445.92 406.253 481.852 406 528.058 409.996L528.231 408.004C481.937 404 445.869 404.247 418.535 407.256L418.754 409.244ZM399.186 419.522C380.374 423.535 367.219 428.823 358.806 434.941L359.983 436.559C368.07 430.677 380.915 425.465 399.603 421.478L399.186 419.522ZM358.832 434.923C352.442 439.268 348.786 444.178 347.202 448.667L349.088 449.333C350.503 445.322 353.847 440.732 359.957 436.577L358.832 434.923ZM347.19 448.702C345.864 452.944 346.382 456.461 347.75 459.197L349.539 458.303C348.407 456.039 347.925 453.056 349.099 449.298L347.19 448.702ZM347.803 459.291C350.31 463.19 356.213 465.744 363.359 465.999L363.43 464.001C356.576 463.756 351.479 461.31 349.486 458.209L347.803 459.291ZM363.395 466C364.479 466 365.623 465.593 366.776 464.943C367.939 464.288 369.185 463.343 370.496 462.166C373.118 459.812 376.089 456.448 379.276 452.365C385.656 444.195 392.992 433.031 400.25 421.017L398.539 419.983C391.297 431.969 384.008 443.055 377.7 451.135C374.544 455.177 371.655 458.438 369.16 460.678C367.912 461.798 366.786 462.642 365.794 463.201C364.791 463.766 363.997 464 363.395 464V466ZM466.18 358.25L465.42 357.599L463.255 360.126L466.454 359.212L466.18 358.25ZM477.43 354L477.831 354.916L477.863 354.902L477.894 354.886L477.43 354ZM489.93 341.25L490.795 341.751L490.81 341.725L490.824 341.697L489.93 341.25ZM491.18 338.5L492.074 338.947L493.337 336.421L490.766 337.59L491.18 338.5ZM481.43 344.5L480.838 343.694L480.83 343.7L481.43 344.5ZM483.93 362.25L483.482 361.356L483.475 361.359L483.93 362.25ZM458.18 369.75V368.75H457.542L457.273 369.328L458.18 369.75ZM516.43 361.25L517.305 361.734L517.315 361.716L517.324 361.697L516.43 361.25ZM521.93 360L522.637 359.293L522.616 359.272L522.594 359.253L521.93 360ZM523.18 364.5L524.048 364.996L524.062 364.972L524.074 364.947L523.18 364.5ZM459.93 394L460.422 393.129L460.418 393.127L459.93 394ZM448.18 369.5L449.159 369.701L449.16 369.696L448.18 369.5ZM458.18 351L457.44 350.327L457.432 350.335L457.425 350.344L458.18 351ZM474.43 336.25L473.862 335.427L473.852 335.434L473.842 335.441L474.43 336.25ZM491.18 328.75L491.397 327.774L491.378 327.77L491.359 327.766L491.18 328.75ZM497.18 332.5L496.427 333.159L496.433 333.166L496.44 333.173L497.18 332.5ZM500.18 341.5L499.193 341.336L499.189 341.362L499.186 341.39L500.18 341.5ZM497.68 348.5L498.566 348.964L498.57 348.956L498.574 348.947L497.68 348.5ZM466.454 359.212C470.02 358.193 473.819 356.671 477.831 354.916L477.029 353.084C473.041 354.829 469.339 356.307 465.905 357.288L466.454 359.212ZM477.894 354.886C483.367 352.019 487.988 346.6 490.795 341.751L489.064 340.749C486.371 345.4 481.992 350.481 476.966 353.114L477.894 354.886ZM490.824 341.697C491.089 341.168 491.287 340.705 491.474 340.269C491.662 339.83 491.839 339.418 492.074 338.947L490.285 338.053C490.021 338.582 489.823 339.045 489.636 339.481C489.448 339.92 489.271 340.332 489.035 340.803L490.824 341.697ZM490.766 337.59C487.929 338.879 484.618 340.922 480.838 343.694L482.021 345.306C485.742 342.578 488.93 340.621 491.593 339.41L490.766 337.59ZM480.83 343.7C475.809 347.466 469.991 352.267 465.42 357.599L466.939 358.901C471.368 353.733 477.051 349.034 482.03 345.3L480.83 343.7ZM483.475 361.359C477.698 364.309 471.533 366.161 466.705 367.276C464.294 367.832 462.225 368.202 460.716 368.433C459.961 368.549 459.349 368.629 458.905 368.68C458.683 368.706 458.506 368.724 458.375 368.736C458.232 368.748 458.177 368.75 458.18 368.75V370.75C458.457 370.75 459.502 370.643 461.018 370.41C462.572 370.173 464.69 369.793 467.155 369.224C472.077 368.089 478.412 366.191 484.384 363.141L483.475 361.359ZM457.273 369.328C455.119 373.953 454.231 377.652 454.488 380.527C454.752 383.487 456.23 385.525 458.576 386.685C460.845 387.808 463.846 388.075 467.182 387.788C470.539 387.5 474.351 386.639 478.323 385.392C486.269 382.896 494.974 378.813 502.184 374.474C505.79 372.303 509.04 370.058 511.642 367.902C514.226 365.761 516.244 363.65 517.305 361.734L515.555 360.766C514.678 362.35 512.891 364.27 510.366 366.362C507.861 368.438 504.698 370.626 501.152 372.76C494.058 377.03 485.497 381.042 477.724 383.483C473.837 384.704 470.175 385.524 467.011 385.796C463.824 386.07 461.253 385.778 459.463 384.893C457.751 384.046 456.683 382.626 456.48 380.349C456.269 377.989 456.991 374.672 459.086 370.172L457.273 369.328ZM517.324 361.697C517.592 361.161 518.217 360.531 518.968 360.249C519.649 359.994 520.439 360.013 521.265 360.747L522.594 359.253C521.17 357.987 519.586 357.881 518.266 358.376C517.018 358.844 516.017 359.839 515.535 360.803L517.324 361.697ZM521.223 360.707C522.192 361.676 522.52 362.258 522.611 362.659C522.689 363.005 522.627 363.37 522.285 364.053L524.074 364.947C524.483 364.13 524.795 363.245 524.561 362.216C524.34 361.242 523.668 360.324 522.637 359.293L521.223 360.707ZM522.311 364.004C520.652 366.908 517.014 370.8 512.128 374.881C507.267 378.942 501.249 383.125 494.915 386.625C488.575 390.128 481.958 392.926 475.892 394.25C469.806 395.578 464.424 395.392 460.422 393.129L459.438 394.871C464.06 397.483 470.023 397.578 476.319 396.204C482.636 394.824 489.44 391.935 495.882 388.375C502.329 384.813 508.452 380.558 513.411 376.416C518.346 372.293 522.208 368.217 524.048 364.996L522.311 364.004ZM460.418 393.127C452.256 388.566 447.256 378.979 449.159 369.701L447.2 369.299C445.103 379.521 450.603 389.934 459.442 394.873L460.418 393.127ZM449.16 369.696C450.365 363.674 454.003 357.327 458.934 351.656L457.425 350.344C452.357 356.173 448.495 362.826 447.199 369.304L449.16 369.696ZM458.92 351.673C463.88 346.216 469.58 341.013 475.018 337.059L473.842 335.441C468.279 339.487 462.479 344.784 457.44 350.327L458.92 351.673ZM474.997 337.073C478.584 334.599 482.031 332.633 484.9 331.351C486.336 330.709 487.608 330.247 488.669 329.977C489.753 329.7 490.524 329.647 491.001 329.734L491.359 327.766C490.46 327.603 489.357 327.737 488.175 328.039C486.97 328.346 485.586 328.853 484.084 329.524C481.079 330.867 477.525 332.901 473.862 335.427L474.997 337.073ZM490.963 329.726C492.974 330.173 494.795 331.293 496.427 333.159L497.932 331.841C496.064 329.707 493.885 328.327 491.397 327.774L490.963 329.726ZM496.44 333.173C498.764 335.729 499.636 338.679 499.193 341.336L501.166 341.664C501.723 338.321 500.596 334.771 497.92 331.827L496.44 333.173ZM499.186 341.39C498.958 343.443 498.037 345.549 496.785 348.053L498.574 348.947C499.822 346.451 500.902 344.057 501.174 341.61L499.186 341.39ZM496.794 348.036C494.126 353.129 489.267 358.463 483.482 361.356L484.377 363.144C490.592 360.037 495.733 354.371 498.566 348.964L496.794 348.036ZM553.982 370.25L554.963 370.446L554.982 370.349V370.25H553.982ZM550.482 370.75L550.979 369.882L550.061 369.357L549.588 370.303L550.482 370.75ZM550.232 371.25L550.885 372.008L551.037 371.877L551.127 371.697L550.232 371.25ZM526.982 389.25L527.508 390.101L527.515 390.097L527.521 390.092L526.982 389.25ZM504.982 381.5L503.985 381.433L503.984 381.447L504.982 381.5ZM509.732 368.25L508.877 367.732L508.872 367.74L508.867 367.749L509.732 368.25ZM535.982 346.75L535.935 347.749L535.971 347.751L536.008 347.75L535.982 346.75ZM551.232 355.25L550.4 355.805L551.058 356.791L551.92 355.976L551.232 355.25ZM578.982 325.5L579.749 326.142L579.749 326.142L578.982 325.5ZM620.232 270.25L619.396 269.701L619.391 269.709L620.232 270.25ZM625.482 262.25L626.318 262.799L626.33 262.782L626.34 262.764L625.482 262.25ZM630.732 263.75L630.025 264.457L630.025 264.457L630.732 263.75ZM633.232 269.75L634.084 270.274L634.107 270.237L634.127 270.197L633.232 269.75ZM627.232 279L626.4 278.445L626.394 278.454L626.389 278.463L627.232 279ZM513.482 472L514.411 471.629L514.407 471.619L514.403 471.609L513.482 472ZM511.482 475.25L511.24 476.22L511.24 476.22L511.482 475.25ZM506.232 470L507.19 469.713L507.174 469.658L507.152 469.606L506.232 470ZM568.482 353.25L569.337 353.769L567.757 352.561L568.482 353.25ZM554.232 367.25L553.566 366.505L553.232 366.803V367.25H554.232ZM545.732 360.5L546.44 361.207L546.856 360.791L546.694 360.225L545.732 360.5ZM540.732 356.75L540.677 357.748L540.705 357.75H540.732V356.75ZM517.482 375.5L516.628 374.981L516.621 374.992L516.614 375.004L517.482 375.5ZM513.482 384.75L512.502 384.554L512.101 386.559L513.93 385.644L513.482 384.75ZM519.982 381L519.468 380.143L519.457 380.149L519.446 380.156L519.982 381ZM542.982 363.25L543.645 363.999L543.668 363.979L543.69 363.957L542.982 363.25ZM553.002 370.054C552.977 370.176 552.935 370.228 552.906 370.254C552.872 370.284 552.799 370.332 552.647 370.355C552.32 370.404 551.738 370.316 550.979 369.882L549.986 371.618C550.977 372.184 552.02 372.471 552.943 372.333C553.416 372.262 553.874 372.075 554.247 371.738C554.624 371.397 554.862 370.949 554.963 370.446L553.002 370.054ZM549.588 370.303L549.338 370.803L551.127 371.697L551.377 371.197L549.588 370.303ZM549.58 370.492C540.593 378.231 532.634 384.445 526.443 388.408L527.521 390.092C533.83 386.055 541.872 379.769 550.885 372.008L549.58 370.492ZM526.457 388.399C522.341 390.942 516.904 392.459 512.69 391.703C510.612 391.331 508.885 390.418 507.706 388.858C506.524 387.293 505.802 384.954 505.981 381.553L503.984 381.447C503.788 385.171 504.566 388.019 506.11 390.064C507.658 392.113 509.884 393.232 512.337 393.672C517.186 394.541 523.124 392.808 527.508 390.101L526.457 388.399ZM505.98 381.567C506.216 378.031 507.886 373.435 510.598 368.751L508.867 367.749C506.079 372.565 504.249 377.469 503.985 381.433L505.98 381.567ZM510.588 368.768C513.059 364.691 516.944 359.269 521.485 354.943C526.065 350.579 531.114 347.519 535.935 347.749L536.03 345.751C530.35 345.481 524.775 349.046 520.105 353.495C515.396 357.981 511.406 363.559 508.877 367.732L510.588 368.768ZM536.008 347.75C540.693 347.63 543.654 348.767 545.731 350.304C547.846 351.868 549.128 353.896 550.4 355.805L552.064 354.695C550.837 352.854 549.368 350.507 546.921 348.696C544.436 346.858 541.022 345.62 535.957 345.75L536.008 347.75ZM551.92 355.976C561.203 347.195 570.729 336.916 579.749 326.142L578.216 324.858C569.236 335.584 559.762 345.805 550.545 354.524L551.92 355.976ZM579.749 326.142C600.278 301.607 614.303 281.323 621.074 270.791L619.391 269.709C612.662 280.177 598.687 300.393 578.215 324.858L579.749 326.142ZM621.068 270.799L626.318 262.799L624.646 261.701L619.396 269.701L621.068 270.799ZM626.34 262.764C626.388 262.685 626.564 262.461 627.287 262.654C628 262.844 628.978 263.409 630.025 264.457L631.44 263.043C630.237 261.841 628.965 261.031 627.803 260.721C626.651 260.414 625.327 260.565 624.625 261.735L626.34 262.764ZM630.025 264.457C630.96 265.392 631.691 266.417 632.099 267.341C632.523 268.303 632.514 268.951 632.338 269.303L634.127 270.197C634.701 269.049 634.442 267.697 633.929 266.534C633.399 265.333 632.505 264.108 631.44 263.043L630.025 264.457ZM633.232 269.75C632.381 269.226 632.381 269.226 632.381 269.226C632.381 269.226 632.381 269.226 632.381 269.226C632.381 269.226 632.381 269.226 632.381 269.226C632.38 269.227 632.38 269.227 632.38 269.228C632.379 269.229 632.377 269.231 632.375 269.234C632.372 269.241 632.366 269.25 632.358 269.262C632.343 269.287 632.32 269.324 632.289 269.374C632.228 269.473 632.135 269.622 632.01 269.82C631.762 270.216 631.389 270.807 630.89 271.586C629.893 273.143 628.397 275.451 626.4 278.445L628.064 279.555C630.068 276.549 631.571 274.232 632.575 272.664C633.076 271.88 633.453 271.284 633.704 270.883C633.83 270.683 633.925 270.531 633.988 270.429C634.02 270.378 634.044 270.34 634.06 270.314C634.068 270.301 634.074 270.291 634.078 270.285C634.08 270.281 634.081 270.279 634.082 270.277C634.083 270.276 634.083 270.275 634.084 270.275C634.084 270.275 634.084 270.274 634.084 270.274C634.084 270.274 634.084 270.274 634.084 270.274C634.084 270.274 634.084 270.274 633.232 269.75ZM626.389 278.463C614.138 297.714 584.821 343.908 559.003 386.324C546.095 407.53 534.056 427.801 525.46 443.292C521.163 451.035 517.717 457.6 515.453 462.498C514.322 464.943 513.473 466.999 512.962 468.59C512.707 469.384 512.526 470.091 512.441 470.69C512.362 471.25 512.342 471.871 512.562 472.391L514.403 471.609C514.404 471.613 514.354 471.449 514.421 470.97C514.484 470.529 514.628 469.942 514.866 469.202C515.341 467.725 516.15 465.755 517.268 463.337C519.501 458.507 522.919 451.993 527.208 444.263C535.784 428.808 547.807 408.564 560.712 387.364C586.519 344.967 615.826 298.786 628.076 279.537L626.389 278.463ZM512.554 472.371C513.018 473.533 512.868 474.056 512.775 474.195C512.744 474.242 512.547 474.485 511.725 474.28L511.24 476.22C512.418 476.515 513.721 476.383 514.439 475.305C515.097 474.319 514.946 472.967 514.411 471.629L512.554 472.371ZM511.725 474.28C510.944 474.085 509.968 473.512 509.084 472.656C508.207 471.807 507.505 470.761 507.19 469.713L505.275 470.287C505.71 471.739 506.633 473.068 507.693 474.094C508.747 475.113 510.021 475.915 511.24 476.22L511.725 474.28ZM507.152 469.606C507.066 469.405 506.999 468.979 507.08 468.22C507.158 467.488 507.36 466.554 507.693 465.419C508.359 463.151 509.516 460.191 511.106 456.631C514.285 449.516 519.144 440.115 525.109 429.263C537.035 407.564 553.338 380.142 569.337 353.769L567.627 352.731C551.626 379.108 535.305 406.561 523.356 428.3C517.383 439.166 512.493 448.624 509.28 455.815C507.676 459.407 506.477 462.461 505.774 464.855C505.423 466.052 505.186 467.112 505.091 468.009C504.999 468.88 505.024 469.72 505.313 470.394L507.152 469.606ZM567.757 352.561C563.018 357.55 558.288 362.279 553.566 366.505L554.899 367.995C559.677 363.721 564.447 358.949 569.207 353.939L567.757 352.561ZM553.232 367.25C553.232 368.076 553.174 368.721 553.115 369.188C553.086 369.424 553.056 369.614 553.033 369.774C553.015 369.891 552.982 370.093 552.982 370.25H554.982C554.982 370.282 554.981 370.265 555.01 370.07C555.033 369.917 555.067 369.701 555.1 369.437C555.166 368.904 555.232 368.174 555.232 367.25H553.232ZM546.694 360.225C546.414 359.246 545.904 358.119 544.941 357.233C543.956 356.327 542.581 355.75 540.732 355.75V357.75C542.133 357.75 543.009 358.173 543.587 358.705C544.186 359.256 544.551 360.004 544.771 360.775L546.694 360.225ZM540.788 355.752C535.852 355.477 530.835 358.674 526.644 362.581C522.407 366.532 518.789 371.421 516.628 374.981L518.337 376.019C520.426 372.579 523.933 367.843 528.008 364.044C532.13 360.201 536.612 357.523 540.677 357.748L540.788 355.752ZM516.614 375.004C514.605 378.52 513.035 381.887 512.502 384.554L514.463 384.946C514.93 382.613 516.36 379.48 518.351 375.996L516.614 375.004ZM513.93 385.644C515.465 384.877 517.745 383.609 520.519 381.844L519.446 380.156C516.72 381.891 514.5 383.123 513.035 383.856L513.93 385.644ZM520.497 381.857C526.825 378.06 534.879 371.763 543.645 363.999L542.319 362.501C533.586 370.237 525.639 376.44 519.468 380.143L520.497 381.857ZM543.69 363.957L546.44 361.207L545.025 359.793L542.275 362.543L543.69 363.957ZM811.412 222.5V223.5H811.978L812.27 223.014L811.412 222.5ZM816.662 224.25L815.915 224.914L815.954 224.958L815.998 224.997L816.662 224.25ZM818.912 230L818.205 229.293L818.155 229.343L818.112 229.4L818.912 230ZM817.412 232L816.612 231.4L815.417 232.994L817.409 233L817.412 232ZM992.412 251.25L991.416 251.334L991.417 251.354L991.42 251.374L992.412 251.25ZM988.662 252.25L989.217 251.418L989.183 251.395L989.148 251.376L988.662 252.25ZM984.162 246.25L983.166 246.333L983.167 246.354L983.17 246.374L984.162 246.25ZM810.912 240.5L810.903 239.5L810.416 239.505L810.119 239.89L810.912 240.5ZM751.412 322L750.589 321.432L749.442 323.096L751.46 322.999L751.412 322ZM819.162 333.75L818.18 333.938L818.185 333.965L818.192 333.993L819.162 333.75ZM815.912 335.25L816.398 334.376L816.359 334.354L816.318 334.336L815.912 335.25ZM811.162 329.5L812.154 329.376L812.151 329.351L812.147 329.326L811.162 329.5ZM745.662 330.5L745.569 329.504L745.099 329.549L744.834 329.939L745.662 330.5ZM706.162 423L706.218 422.001L706.204 422.001L706.162 423ZM774.162 422.25L774.198 423.249L774.21 423.249L774.162 422.25ZM832.912 431L833.861 430.684L833.858 430.674L833.854 430.665L832.912 431ZM830.662 433.75L831.013 432.814L830.996 432.807L830.978 432.801L830.662 433.75ZM825.162 428.25H824.162V428.462L824.248 428.656L825.162 428.25ZM779.662 430.75L779.623 429.751L779.615 429.751L779.662 430.75ZM710.912 431.75L710.966 430.751L710.963 430.751L710.912 431.75ZM734.662 331.5L735.514 332.024L736.567 330.311L734.566 330.505L734.662 331.5ZM707.162 334.5V333.5H707.079L706.998 333.514L707.162 334.5ZM701.412 330.5L702.27 329.985L702.257 329.965L702.244 329.945L701.412 330.5ZM701.662 325.75L701.549 324.756L701.535 324.758L701.521 324.76L701.662 325.75ZM740.412 322.5L740.471 323.498L740.981 323.468L741.256 323.037L740.412 322.5ZM751.162 305.75L752.006 306.287L752.236 305.924L752.132 305.507L751.162 305.75ZM751.162 303L750.339 302.432L750.335 302.439L750.33 302.445L751.162 303ZM715.412 245L715.375 245.999L715.384 246L715.392 246L715.412 245ZM702.912 244.5L703.054 243.51L703.044 243.509L702.912 244.5ZM687.912 236L688.044 236.991L690.675 236.64L688.467 235.168L687.912 236ZM694.412 235.25L694.335 236.247L694.421 236.254L694.507 236.245L694.412 235.25ZM714.162 234L714.124 233.001L714.111 233.001L714.098 233.002L714.162 234ZM770.662 232.5L770.673 233.5L770.686 233.5L770.662 232.5ZM803.912 232V233H804.396L804.696 232.621L803.912 232ZM771.412 276.5L770.414 276.445L770.218 279.964L772.233 277.071L771.412 276.5ZM797.412 240.75L798.217 241.343L799.391 239.75H797.412V240.75ZM775.912 241V240H775.9L775.889 240L775.912 241ZM746.162 241.75L746.134 240.75L745.826 242.692L746.162 241.75ZM812.27 223.014C812.272 223.011 812.428 222.745 813.261 223.014C814.023 223.26 815.004 223.89 815.915 224.914L817.41 223.586C816.32 222.36 815.051 221.49 813.875 221.111C812.771 220.755 811.303 220.739 810.555 221.985L812.27 223.014ZM815.998 224.997C817.017 225.904 817.729 226.961 818.072 227.857C818.243 228.306 818.306 228.672 818.299 228.934C818.292 229.193 818.222 229.276 818.205 229.293L819.619 230.707C820.103 230.224 820.282 229.588 820.298 228.988C820.315 228.39 820.174 227.756 819.94 227.143C819.47 225.914 818.557 224.596 817.326 223.503L815.998 224.997ZM818.112 229.4L816.612 231.4L818.212 232.6L819.712 230.6L818.112 229.4ZM817.409 233C858.15 233.125 901.554 234.25 934.918 237.184C951.607 238.651 965.742 240.568 975.764 243.026C980.782 244.257 984.709 245.609 987.398 247.076C990.146 248.576 991.305 250.029 991.416 251.334L993.409 251.166C993.207 248.783 991.209 246.877 988.355 245.32C985.442 243.731 981.32 242.329 976.24 241.083C966.067 238.588 951.811 236.661 935.093 235.191C901.645 232.25 858.174 231.125 817.415 231L817.409 233ZM991.42 251.374C991.465 251.736 991.405 251.917 991.368 251.987C991.342 252.034 991.309 252.071 991.212 252.098C990.94 252.172 990.253 252.108 989.217 251.418L988.107 253.082C989.322 253.892 990.634 254.328 991.738 254.027C992.328 253.866 992.826 253.497 993.129 252.935C993.419 252.395 993.484 251.764 993.404 251.126L991.42 251.374ZM989.148 251.376C988.172 250.834 987.211 249.94 986.465 248.935C985.709 247.918 985.25 246.892 985.154 246.126L983.17 246.374C983.324 247.608 983.99 248.957 984.859 250.128C985.738 251.31 986.903 252.416 988.176 253.124L989.148 251.376ZM985.159 246.167C985.115 245.637 984.82 245.238 984.517 244.963C984.214 244.688 983.827 244.466 983.412 244.278C982.578 243.9 981.42 243.569 980.011 243.271C977.178 242.672 973.109 242.159 968.042 241.719C957.896 240.837 943.612 240.235 926.904 239.844C893.481 239.062 850.281 239.125 810.903 239.5L810.922 241.5C850.294 241.125 893.468 241.063 926.857 241.843C943.556 242.234 957.788 242.835 967.869 243.711C972.915 244.15 976.886 244.654 979.597 245.228C980.96 245.516 981.95 245.811 982.587 246.099C982.906 246.244 983.085 246.365 983.173 246.444C983.26 246.523 983.178 246.488 983.166 246.333L985.159 246.167ZM810.119 239.89C797.613 256.148 773.352 288.413 750.589 321.432L752.235 322.568C774.972 289.587 799.211 257.352 811.705 241.11L810.119 239.89ZM751.46 322.999C767.066 322.25 783.371 322.253 796.033 323.898C802.371 324.721 807.731 325.948 811.618 327.661C815.541 329.39 817.712 331.496 818.18 333.938L820.144 333.562C819.487 330.129 816.533 327.641 812.425 325.831C808.281 324.005 802.703 322.747 796.291 321.915C783.453 320.247 767.009 320.25 751.364 321.001L751.46 322.999ZM818.192 333.993C818.288 334.375 818.261 334.598 818.229 334.701C818.204 334.778 818.177 334.798 818.14 334.815C817.993 334.885 817.434 334.952 816.398 334.376L815.426 336.124C816.64 336.798 817.956 337.115 818.996 336.622C819.553 336.359 819.948 335.893 820.135 335.307C820.313 334.746 820.287 334.125 820.132 333.507L818.192 333.993ZM816.318 334.336C815.37 333.915 814.363 333.091 813.559 332.114C812.743 331.124 812.246 330.111 812.154 329.376L810.17 329.624C810.328 330.889 811.081 332.251 812.015 333.386C812.961 334.534 814.204 335.585 815.506 336.164L816.318 334.336ZM812.147 329.326C812.037 328.701 811.624 328.258 811.195 327.96C810.766 327.661 810.22 327.434 809.622 327.253C808.42 326.889 806.774 326.642 804.807 326.48C800.856 326.155 795.387 326.157 789.065 326.376C776.409 326.814 760.197 328.129 745.569 329.504L745.756 331.496C760.377 330.121 776.54 328.811 789.134 328.374C795.437 328.156 800.812 328.158 804.643 328.473C806.566 328.632 808.045 328.865 809.042 329.167C809.544 329.319 809.866 329.472 810.053 329.602C810.241 329.732 810.194 329.768 810.177 329.674L812.147 329.326ZM744.834 329.939C729.08 353.195 714.731 376.186 706.54 393.478C702.456 402.099 699.845 409.42 699.419 414.689C699.206 417.322 699.525 419.6 700.639 421.272C701.792 423.002 703.668 423.895 706.12 423.999L706.204 422.001C704.219 421.917 703.016 421.233 702.303 420.163C701.551 419.034 701.215 417.291 701.413 414.85C701.807 409.97 704.275 402.932 708.347 394.334C716.469 377.189 730.744 354.305 746.49 331.061L744.834 329.939ZM706.107 423.998C728.665 425.252 753.474 423.998 774.198 423.249L774.126 421.251C753.351 422.002 728.66 423.248 706.218 422.002L706.107 423.998ZM774.21 423.249C789.736 422.498 803.343 421.879 813.569 422.839C818.681 423.32 822.868 424.189 825.996 425.589C829.107 426.981 831.089 428.858 831.97 431.335L833.854 430.665C832.735 427.517 830.249 425.301 826.813 423.763C823.394 422.233 818.956 421.337 813.756 420.848C803.357 419.871 789.588 420.502 774.114 421.251L774.21 423.249ZM831.963 431.316C832.302 432.333 832.12 432.773 832.042 432.869C832.035 432.879 831.84 433.124 831.013 432.814L830.311 434.686C831.484 435.126 832.79 435.121 833.594 434.131C834.329 433.227 834.272 431.917 833.861 430.684L831.963 431.316ZM830.978 432.801C830.057 432.494 829.063 431.797 828.162 430.867C827.266 429.943 826.524 428.851 826.076 427.844L824.248 428.656C824.801 429.899 825.683 431.182 826.725 432.258C827.761 433.328 829.018 434.256 830.346 434.699L830.978 432.801ZM826.162 428.25C826.162 427.783 825.863 427.518 825.738 427.43C825.608 427.337 825.487 427.298 825.441 427.284C825.336 427.252 825.245 427.242 825.209 427.238C825.119 427.228 825.021 427.226 824.938 427.226C824.762 427.225 824.517 427.233 824.219 427.246C823.618 427.272 822.737 427.324 821.61 427.397C819.36 427.541 816.071 427.768 812.003 428.033C803.851 428.564 792.486 429.251 779.623 429.751L779.701 431.749C792.588 431.249 803.973 430.561 812.133 430.029C816.222 429.763 819.48 429.537 821.738 429.392C822.865 429.32 823.728 429.269 824.307 429.244C824.599 429.231 824.804 429.225 824.93 429.226C824.998 429.226 825.014 429.228 825.001 429.227C824.995 429.226 824.981 429.225 824.96 429.221C824.943 429.218 824.904 429.211 824.855 429.196C824.818 429.185 824.704 429.148 824.579 429.059C824.459 428.974 824.162 428.713 824.162 428.25H826.162ZM779.615 429.751C758.352 430.752 733.906 431.998 710.966 430.751L710.858 432.749C733.918 434.002 758.473 432.748 779.709 431.749L779.615 429.751ZM710.963 430.751C707.445 430.571 704.8 429.685 702.868 428.258C700.945 426.838 699.646 424.82 698.922 422.216C697.456 416.945 698.379 409.383 701.243 400.107C706.952 381.613 720.143 357.017 735.514 332.024L733.81 330.976C718.431 355.983 705.122 380.762 699.332 399.518C696.445 408.867 695.368 416.899 696.996 422.752C697.819 425.712 699.34 428.139 701.679 429.867C704.009 431.588 707.066 432.554 710.861 432.749L710.963 430.751ZM734.566 330.505C726.808 331.255 719.99 332.006 715.079 332.569C712.624 332.85 710.646 333.085 709.267 333.249C708.576 333.331 708.038 333.396 707.664 333.439C707.476 333.461 707.333 333.478 707.233 333.489C707.09 333.504 707.107 333.5 707.162 333.5V335.5C707.248 335.5 707.386 335.484 707.451 335.477C707.558 335.465 707.708 335.448 707.896 335.426C708.273 335.382 708.814 335.317 709.503 335.235C710.881 335.071 712.856 334.837 715.307 334.556C720.21 333.994 727.016 333.245 734.758 332.495L734.566 330.505ZM706.998 333.514C706.844 333.539 706.568 333.523 706.165 333.386C705.773 333.252 705.321 333.023 704.847 332.703C703.897 332.06 702.939 331.102 702.27 329.985L700.555 331.014C701.385 332.398 702.552 333.565 703.727 334.36C704.315 334.758 704.926 335.076 705.519 335.278C706.1 335.477 706.73 335.586 707.327 335.486L706.998 333.514ZM702.244 329.945C701.563 328.923 701.297 328.004 701.318 327.411C701.328 327.125 701.401 326.974 701.458 326.902C701.503 326.845 701.588 326.771 701.804 326.74L701.521 324.76C700.861 324.854 700.29 325.155 699.89 325.661C699.501 326.151 699.34 326.75 699.319 327.339C699.278 328.496 699.762 329.827 700.58 331.055L702.244 329.945ZM701.662 325.75C701.776 326.744 701.776 326.744 701.776 326.744C701.776 326.743 701.776 326.743 701.776 326.743C701.777 326.743 701.778 326.743 701.779 326.743C701.781 326.743 701.784 326.743 701.788 326.742C701.796 326.741 701.809 326.74 701.825 326.738C701.859 326.734 701.909 326.728 701.975 326.721C702.108 326.706 702.306 326.684 702.565 326.656C703.083 326.599 703.848 326.516 704.833 326.413C706.802 326.206 709.65 325.917 713.161 325.589C720.185 324.934 729.86 324.122 740.471 323.498L740.353 321.502C729.714 322.128 720.015 322.941 712.975 323.598C709.456 323.927 706.6 324.216 704.624 324.423C703.636 324.527 702.868 324.61 702.346 324.668C702.086 324.696 701.886 324.718 701.752 324.733C701.685 324.741 701.635 324.747 701.6 324.751C701.583 324.752 701.571 324.754 701.562 324.755C701.558 324.755 701.554 324.756 701.552 324.756C701.551 324.756 701.55 324.756 701.549 324.756C701.549 324.756 701.549 324.756 701.549 324.756C701.549 324.756 701.549 324.756 701.662 325.75ZM741.256 323.037C743.004 320.29 744.815 317.48 746.628 314.667C748.44 311.855 750.254 309.04 752.006 306.287L750.318 305.213C748.57 307.96 746.759 310.77 744.947 313.583C743.134 316.395 741.32 319.21 739.568 321.963L741.256 323.037ZM752.132 305.507C752.002 304.987 751.903 304.577 751.879 304.215C751.856 303.868 751.911 303.679 751.994 303.555L750.33 302.445C749.913 303.071 749.844 303.757 749.883 304.348C749.921 304.923 750.072 305.513 750.192 305.993L752.132 305.507ZM751.162 303C751.985 303.568 751.985 303.567 751.986 303.567C751.986 303.566 751.987 303.565 751.988 303.564C751.989 303.562 751.992 303.559 751.994 303.555C752 303.547 752.007 303.536 752.017 303.521C752.037 303.492 752.066 303.449 752.103 303.394C752.177 303.282 752.285 303.119 752.422 302.907C752.695 302.484 753.084 301.866 753.551 301.08C754.485 299.51 755.733 297.268 756.994 294.572C759.507 289.197 762.109 281.944 762.318 274.591C762.528 267.199 760.314 259.663 753.16 253.916C746.056 248.209 734.218 244.377 715.432 244L715.392 246C733.981 246.373 745.299 250.166 751.907 255.475C758.464 260.743 760.515 267.614 760.319 274.534C760.121 281.493 757.645 288.459 755.182 293.725C753.955 296.349 752.74 298.533 751.832 300.058C751.379 300.821 751.003 301.418 750.742 301.823C750.611 302.025 750.509 302.179 750.44 302.282C750.406 302.333 750.38 302.372 750.363 302.397C750.354 302.41 750.348 302.419 750.344 302.425C750.342 302.428 750.341 302.43 750.34 302.431C750.339 302.431 750.339 302.432 750.339 302.432C750.339 302.432 750.339 302.432 751.162 303ZM715.449 244.001C712.07 243.876 709.371 243.813 707.317 243.75C705.236 243.687 703.861 243.625 703.054 243.51L702.771 245.49C703.713 245.625 705.213 245.688 707.257 245.75C709.328 245.812 712.004 245.874 715.375 245.999L715.449 244.001ZM703.044 243.509C696.493 242.635 691.365 241.795 687.591 240.998C683.764 240.19 681.47 239.451 680.466 238.835C680.226 238.688 680.128 238.587 680.1 238.55C680.083 238.528 680.16 238.625 680.134 238.797C680.111 238.944 680.037 238.975 680.119 238.902C680.2 238.831 680.363 238.722 680.653 238.589C681.847 238.042 684.285 237.492 688.044 236.991L687.78 235.009C684.039 235.508 681.321 236.083 679.82 236.77C679.436 236.946 679.079 237.152 678.795 237.403C678.513 237.652 678.23 238.012 678.157 238.494C678.079 239.001 678.262 239.439 678.511 239.765C678.748 240.075 679.075 240.328 679.421 240.54C680.761 241.362 683.388 242.154 687.178 242.955C691.022 243.767 696.206 244.615 702.78 245.491L703.044 243.509ZM688.467 235.168C688.392 235.118 688.336 235.077 688.296 235.045C688.255 235.011 688.241 234.995 688.243 234.998C688.245 234.999 688.254 235.01 688.267 235.029C688.279 235.048 688.299 235.08 688.319 235.126C688.358 235.22 688.402 235.385 688.361 235.587C688.32 235.792 688.213 235.934 688.127 236.014C688.05 236.086 687.988 236.111 687.986 236.112C687.981 236.114 688 236.106 688.056 236.093C688.11 236.081 688.185 236.067 688.286 236.055C689.167 235.945 691.061 235.995 694.335 236.247L694.489 234.253C691.263 234.005 689.157 233.93 688.038 234.07C687.755 234.106 687.46 234.163 687.205 234.271C686.987 234.363 686.516 234.616 686.4 235.195C686.289 235.752 686.602 236.161 686.745 236.323C686.92 236.52 687.144 236.689 687.357 236.832L688.467 235.168ZM694.507 236.245C699.739 235.747 706.433 235.501 714.226 234.998L714.098 233.002C706.392 233.499 699.585 233.753 694.317 234.254L694.507 236.245ZM714.2 234.999C727.449 234.499 747.437 233.75 770.673 233.5L770.651 231.5C747.387 231.75 727.375 232.501 714.124 233.001L714.2 234.999ZM770.686 233.5C781.186 233.25 792.425 233 803.912 233V231C792.399 231 781.138 231.25 770.638 231.5L770.686 233.5ZM804.696 232.621C807.077 229.614 808.894 227.232 810.142 225.61C810.769 224.795 811.245 224.181 811.578 223.772C811.747 223.565 811.864 223.429 811.94 223.349C811.98 223.307 811.987 223.302 811.971 223.315C811.964 223.321 811.928 223.351 811.869 223.384C811.834 223.403 811.662 223.5 811.412 223.5V221.5C811.146 221.5 810.954 221.604 810.895 221.637C810.812 221.683 810.747 221.733 810.707 221.766C810.624 221.833 810.548 221.91 810.486 221.975C810.358 222.11 810.203 222.294 810.028 222.509C809.673 222.944 809.18 223.58 808.557 224.39C807.305 226.018 805.498 228.386 803.128 231.379L804.696 232.621ZM772.233 277.071C781.973 263.086 791.209 250.854 798.217 241.343L796.607 240.157C789.615 249.646 780.352 261.914 770.592 275.929L772.233 277.071ZM797.412 239.75C793.652 239.75 789.956 239.813 786.363 239.875C782.768 239.938 779.277 240 775.912 240V242C779.298 242 782.807 241.937 786.398 241.875C789.993 241.812 793.672 241.75 797.412 241.75V239.75ZM775.889 240C765.138 240.25 755.136 240.5 746.134 240.75L746.19 242.75C755.188 242.5 765.186 242.25 775.935 242L775.889 240ZM745.826 242.692C756.162 246.383 762.458 251.573 766.095 257.404C769.736 263.242 770.781 269.833 770.414 276.445L772.411 276.555C772.793 269.667 771.713 262.632 767.792 256.346C763.866 250.052 757.162 244.617 746.498 240.808L745.826 242.692ZM851.014 366V365H850.599L850.307 365.293L851.014 366ZM845.514 363.75L844.766 364.414L844.786 364.436L844.807 364.457L845.514 363.75ZM844.014 358L844.638 358.781L844.658 358.765L844.677 358.749L844.014 358ZM871.264 342L871.468 342.979L871.478 342.977L871.489 342.974L871.264 342ZM880.514 345L881.221 344.293L881.221 344.293L880.514 345ZM884.514 353.75H883.514V353.812L883.521 353.874L884.514 353.75ZM883.014 360.25L882.14 359.764L882.116 359.807L882.096 359.852L883.014 360.25ZM852.764 384.75L852.374 383.829L851.393 384.244L851.869 385.197L852.764 384.75ZM853.014 385.25L852.119 385.697L852.428 386.315L853.116 386.245L853.014 385.25ZM899.264 358.5L898.406 357.985L898.4 357.997L899.264 358.5ZM902.764 357.75L902.057 358.457L902.077 358.478L902.099 358.497L902.764 357.75ZM905.014 360.5L904.156 359.985L904.151 359.994L905.014 360.5ZM854.764 394.25L854.729 393.251L853.677 393.287L853.767 394.335L854.764 394.25ZM843.264 425.75L842.565 425.035L842.557 425.043L843.264 425.75ZM820.014 438.25L819.937 437.253L819.931 437.253L820.014 438.25ZM812.014 437L812.499 436.126L812.468 436.109L812.437 436.094L812.014 437ZM803.764 428L802.815 428.316L802.818 428.325L802.821 428.333L803.764 428ZM805.014 416.5L804.111 416.071L804.105 416.082L804.1 416.094L805.014 416.5ZM846.264 386L846.662 386.917L847.378 386.606L847.25 385.836L846.264 386ZM844.514 380.25L845.462 379.934L845.44 379.866L845.408 379.803L844.514 380.25ZM845.014 376.75L845.385 377.678L845.392 377.676L845.014 376.75ZM875.264 353.25L876.171 353.671L876.211 353.585L876.234 353.493L875.264 353.25ZM876.014 350.75H877.014V349.441L875.751 349.785L876.014 350.75ZM836.014 418L836.709 418.719L836.715 418.713L836.721 418.707L836.014 418ZM846.514 397.25L847.507 397.365L847.719 395.529L846.066 396.356L846.514 397.25ZM813.014 423.75L813.908 424.197L813.916 424.181L813.923 424.165L813.014 423.75ZM811.264 429.5H810.264V430.281L811.021 430.47L811.264 429.5ZM814.514 429.75V430.75H814.555L814.597 430.747L814.514 429.75ZM850.307 365.293C850.299 365.3 850.248 365.356 850.033 365.352C849.804 365.347 849.47 365.272 849.039 365.084C848.183 364.709 847.159 363.981 846.221 363.043L844.807 364.457C845.869 365.519 847.094 366.416 848.238 366.916C848.808 367.165 849.411 367.34 849.994 367.351C850.592 367.363 851.228 367.2 851.721 366.707L850.307 365.293ZM846.261 363.086C845.331 362.039 844.739 360.984 844.51 360.143C844.271 359.266 844.476 358.911 844.638 358.781L843.389 357.219C842.301 358.089 842.257 359.484 842.58 360.669C842.913 361.891 843.697 363.211 844.766 364.414L846.261 363.086ZM844.014 358C844.677 358.749 844.676 358.749 844.676 358.749C844.677 358.749 844.677 358.749 844.677 358.749C844.677 358.748 844.678 358.748 844.678 358.747C844.68 358.746 844.682 358.744 844.686 358.741C844.693 358.735 844.703 358.725 844.717 358.713C844.745 358.689 844.787 358.652 844.843 358.603C844.955 358.506 845.122 358.362 845.34 358.177C845.774 357.808 846.411 357.276 847.212 356.63C848.815 355.336 851.077 353.586 853.709 351.759C859.006 348.082 865.678 344.185 871.468 342.979L871.06 341.021C864.849 342.315 857.896 346.418 852.568 350.116C849.888 351.977 847.587 353.757 845.956 355.073C845.14 355.731 844.491 356.274 844.045 356.653C843.822 356.842 843.65 356.991 843.532 357.093C843.474 357.143 843.429 357.183 843.399 357.209C843.383 357.223 843.372 357.233 843.364 357.24C843.36 357.243 843.357 357.246 843.354 357.248C843.353 357.249 843.353 357.25 843.352 357.25C843.352 357.25 843.351 357.251 843.351 357.251C843.351 357.251 843.351 357.251 844.014 358ZM871.489 342.974C874.359 342.312 877.267 343.167 879.807 345.707L881.221 344.293C878.261 341.333 874.669 340.188 871.039 341.026L871.489 342.974ZM879.807 345.707C882.168 348.068 883.514 350.827 883.514 353.75H885.514C885.514 350.173 883.86 346.932 881.221 344.293L879.807 345.707ZM883.521 353.874C883.74 355.619 883.31 357.657 882.14 359.764L883.888 360.736C885.217 358.343 885.788 355.881 885.506 353.626L883.521 353.874ZM882.096 359.852C878.985 367.032 869.988 376.386 852.374 383.829L853.153 385.671C871.039 378.114 880.542 368.468 883.931 360.648L882.096 359.852ZM851.869 385.197L852.119 385.697L853.908 384.803L853.658 384.303L851.869 385.197ZM853.116 386.245C862.893 385.242 886.612 382.21 900.128 359.003L898.4 357.997C885.416 380.29 862.634 383.258 852.912 384.255L853.116 386.245ZM900.121 359.014C900.326 358.674 900.481 358.401 900.655 358.162C900.829 357.922 900.947 357.825 901.013 357.79C901.032 357.78 901.053 357.76 901.162 357.796C901.317 357.848 901.61 358.01 902.057 358.457L903.471 357.043C902.918 356.49 902.366 356.089 901.795 355.899C901.178 355.693 900.589 355.751 900.077 356.022C899.612 356.269 899.277 356.656 899.036 356.987C898.796 357.318 898.577 357.701 898.406 357.986L900.121 359.014ZM902.099 358.497C903.238 359.509 904.216 360.058 904.414 360.206C904.551 360.309 904.295 360.166 904.295 359.824C904.295 359.714 904.326 359.663 904.305 359.713C904.285 359.759 904.243 359.841 904.156 359.985L905.871 361.014C905.972 360.846 906.07 360.671 906.144 360.497C906.217 360.327 906.295 360.094 906.295 359.824C906.295 359.163 905.852 358.785 905.614 358.606C905.061 358.192 904.54 357.991 903.428 357.003L902.099 358.497ZM904.151 359.994C888.368 386.875 861.732 393.009 854.729 393.251L854.798 395.249C862.295 394.991 889.659 388.625 905.876 361.006L904.151 359.994ZM853.767 394.335C854.501 402.893 853.035 414.808 842.565 425.035L843.962 426.465C854.992 415.692 856.527 403.107 855.76 394.165L853.767 394.335ZM842.557 425.043C834.677 432.922 826.139 436.776 819.937 437.253L820.09 439.247C826.888 438.724 835.85 434.578 843.971 426.457L842.557 425.043ZM819.931 437.253C817.014 437.496 814.498 437.236 812.499 436.126L811.528 437.874C814.03 439.264 817.013 439.504 820.097 439.247L819.931 437.253ZM812.437 436.094C808.908 434.447 806.11 431.642 804.707 427.667L802.821 428.333C804.418 432.858 807.619 436.053 811.591 437.906L812.437 436.094ZM804.712 427.684C803.812 424.982 803.999 421.245 805.927 416.906L804.1 416.094C802.028 420.755 801.716 425.018 802.815 428.316L804.712 427.684ZM805.917 416.929C809.407 409.589 818.052 402.718 826.73 397.318C835.356 391.949 843.805 388.16 846.662 386.917L845.865 385.083C842.973 386.34 834.421 390.176 825.673 395.62C816.976 401.032 807.871 408.161 804.111 416.071L805.917 416.929ZM847.25 385.836C846.733 382.736 845.662 380.533 845.462 379.934L843.565 380.566C843.865 381.467 844.794 383.264 845.277 386.164L847.25 385.836ZM845.408 379.803C845.082 379.15 844.972 378.595 845.009 378.225C845.04 377.916 845.154 377.771 845.385 377.678L844.642 375.822C843.623 376.229 843.113 377.084 843.019 378.025C842.931 378.905 843.195 379.85 843.619 380.697L845.408 379.803ZM845.392 377.676C863.275 370.371 872.776 360.982 876.171 353.671L874.357 352.829C871.251 359.517 862.252 368.629 844.636 375.824L845.392 377.676ZM876.234 353.493C876.34 353.07 876.493 352.714 876.666 352.265C876.822 351.86 877.014 351.329 877.014 350.75H875.014C875.014 350.921 874.956 351.14 874.799 351.547C874.659 351.911 874.438 352.43 874.294 353.007L876.234 353.493ZM875.751 349.785C870.069 351.335 863.761 355.238 858.904 358.684C856.461 360.418 854.359 362.056 852.854 363.258C852.103 363.858 851.497 364.353 851.08 364.69C850.868 364.861 850.711 364.988 850.604 365.07C850.548 365.113 850.519 365.134 850.508 365.142C850.5 365.147 850.515 365.136 850.543 365.121C850.556 365.113 850.591 365.094 850.64 365.074C850.66 365.065 850.81 365 851.014 365V367C851.222 367 851.376 366.933 851.404 366.922C851.46 366.899 851.504 366.875 851.527 366.862C851.576 366.834 851.618 366.806 851.645 366.788C851.701 366.749 851.764 366.701 851.826 366.653C851.953 366.555 852.128 366.415 852.337 366.245C852.763 365.901 853.358 365.416 854.103 364.82C855.59 363.632 857.66 362.019 860.061 360.316C864.892 356.887 870.958 353.165 876.277 351.715L875.751 349.785ZM836.721 418.707C843.888 411.54 846.733 404.077 847.507 397.365L845.52 397.135C844.795 403.423 842.139 410.46 835.307 417.293L836.721 418.707ZM846.066 396.356C841.051 398.863 833.936 402.64 827.406 407.245C820.908 411.829 814.845 417.331 812.104 423.335L813.923 424.165C816.433 418.669 822.12 413.421 828.559 408.88C834.966 404.36 841.976 400.637 846.961 398.144L846.066 396.356ZM812.119 423.303C810.834 425.873 810.264 428.033 810.264 429.5H812.264C812.264 428.467 812.693 426.627 813.908 424.197L812.119 423.303ZM811.021 430.47C812.162 430.755 813.29 430.75 814.514 430.75V428.75C813.238 428.75 812.365 428.745 811.506 428.53L811.021 430.47ZM814.597 430.747C820.906 430.221 828.861 426.314 836.709 418.719L835.318 417.281C827.667 424.686 820.122 428.279 814.431 428.753L814.597 430.747ZM940.318 355.5L939.359 355.781L939.372 355.827L939.39 355.871L940.318 355.5ZM933.068 354L933.982 353.594L933.901 353.412L933.757 353.275L933.068 354ZM911.318 358.75L911.948 359.527L911.959 359.518L911.318 358.75ZM894.068 386.75L893.096 386.517L892.698 388.182L894.343 387.712L894.068 386.75ZM925.568 357.75L924.861 357.043L924.834 357.07L924.81 357.099L925.568 357.75ZM931.068 359.75L931.821 359.091L931.799 359.066L931.775 359.043L931.068 359.75ZM933.068 365.25L932.211 364.736L932.17 364.804L932.14 364.879L933.068 365.25ZM931.068 380L932.055 379.836L932.051 379.813L932.046 379.79L931.068 380ZM965.068 358.5L965.516 359.394L965.661 359.322L965.775 359.207L965.068 358.5ZM970.068 358.25L970.816 357.586L970.796 357.564L970.775 357.543L970.068 358.25ZM970.818 363.5L971.485 364.246L971.506 364.227L971.525 364.207L970.818 363.5ZM937.818 390.5L937.358 389.612L937.356 389.613L937.818 390.5ZM917.818 380.75L918.818 380.77L918.867 378.384L917.132 380.023L917.818 380.75ZM894.068 394.5L894.482 393.59L894.451 393.576L894.419 393.564L894.068 394.5ZM889.068 390.75L888.276 391.36L888.315 391.411L888.361 391.457L889.068 390.75ZM886.068 380.25L887.06 380.382L887.063 380.358L887.065 380.333L886.068 380.25ZM888.818 370.75L887.911 370.329L887.91 370.331L888.818 370.75ZM904.318 350.75L904.947 351.528L904.953 351.522L904.318 350.75ZM939.39 355.871C939.859 357.044 939.79 357.696 939.674 357.928C939.636 358.005 939.594 358.04 939.517 358.065C939.413 358.098 939.193 358.125 938.811 358.03L938.326 359.97C938.944 360.125 939.567 360.152 940.136 359.966C940.73 359.773 941.189 359.37 941.463 358.822C941.972 357.804 941.778 356.456 941.247 355.129L939.39 355.871ZM938.811 358.03C938.027 357.834 937.045 357.258 936.115 356.415C935.194 355.58 934.414 354.565 933.982 353.594L932.155 354.406C932.723 355.685 933.693 356.92 934.772 357.897C935.842 358.867 937.11 359.666 938.326 359.97L938.811 358.03ZM933.757 353.275C932.274 351.866 930.305 351.288 928.23 351.212C926.158 351.136 923.899 351.556 921.711 352.232C917.344 353.581 913.037 356.016 910.678 357.982L911.959 359.518C914.1 357.734 918.168 355.419 922.301 354.143C924.363 353.506 926.385 353.145 928.157 353.21C929.926 353.275 931.363 353.759 932.38 354.725L933.757 353.275ZM910.689 357.973C901.251 365.626 895.892 374.825 893.096 386.517L895.041 386.983C897.745 375.675 902.886 366.874 911.948 359.527L910.689 357.973ZM894.343 387.712C895.582 387.358 896.995 386.605 898.485 385.621C899.988 384.628 901.627 383.361 903.326 381.929C906.725 379.063 910.414 375.49 913.815 372.012C917.218 368.53 920.345 365.128 922.62 362.598C923.759 361.333 924.684 360.285 925.326 359.553C925.647 359.186 925.897 358.899 926.066 358.703C926.151 358.605 926.216 358.53 926.26 358.479C926.282 358.454 926.299 358.434 926.31 358.421C926.315 358.415 926.32 358.41 926.323 358.407C926.324 358.405 926.325 358.404 926.326 358.403C926.326 358.402 926.327 358.402 926.327 358.402C926.327 358.402 926.327 358.401 925.568 357.75C924.81 357.099 924.81 357.099 924.809 357.099C924.809 357.099 924.809 357.099 924.809 357.1C924.808 357.1 924.807 357.101 924.806 357.103C924.803 357.106 924.799 357.111 924.794 357.117C924.783 357.129 924.767 357.148 924.746 357.173C924.703 357.223 924.639 357.297 924.555 357.393C924.387 357.587 924.14 357.871 923.822 358.235C923.185 358.961 922.265 360.003 921.133 361.261C918.87 363.778 915.762 367.158 912.384 370.613C909.004 374.072 905.365 377.593 902.037 380.4C900.373 381.803 898.799 383.017 897.383 383.952C895.955 384.895 894.742 385.517 893.794 385.788L894.343 387.712ZM926.275 358.457C926.372 358.361 926.695 358.183 927.515 358.474C928.301 358.752 929.303 359.399 930.361 360.457L931.775 359.043C930.583 357.851 929.336 356.998 928.184 356.589C927.067 356.192 925.765 356.139 924.861 357.043L926.275 358.457ZM930.316 360.409C931.139 361.349 931.752 362.313 932.073 363.142C932.411 364.014 932.345 364.512 932.211 364.736L933.926 365.764C934.541 364.738 934.351 363.486 933.938 362.42C933.509 361.312 932.748 360.151 931.821 359.091L930.316 360.409ZM932.14 364.879C931.66 366.079 928.517 372.864 930.091 380.21L932.046 379.79C930.62 373.136 933.477 366.921 933.997 365.621L932.14 364.879ZM930.082 380.164C930.192 380.827 930.565 381.381 931.204 381.664C931.763 381.912 932.397 381.893 932.967 381.794C934.121 381.594 935.594 380.953 937.205 380.088C940.466 378.338 944.686 375.451 948.847 372.4C953.019 369.342 957.171 366.09 960.309 363.591C961.878 362.34 963.195 361.277 964.133 360.52C964.603 360.141 964.976 359.84 965.238 359.631C965.37 359.525 965.471 359.446 965.54 359.393C965.575 359.366 965.598 359.349 965.61 359.34C965.65 359.311 965.596 359.354 965.516 359.394L964.621 357.606C964.525 357.654 964.44 357.718 964.434 357.722C964.399 357.747 964.36 357.777 964.319 357.809C964.236 357.873 964.126 357.96 963.992 358.067C963.723 358.281 963.345 358.585 962.877 358.963C961.938 359.721 960.626 360.781 959.062 362.026C955.934 364.519 951.805 367.752 947.665 370.787C943.514 373.83 939.389 376.646 936.26 378.326C934.675 379.176 933.441 379.682 932.625 379.824C932.209 379.896 932.042 379.848 932.015 379.836C932.013 379.835 932.019 379.838 932.03 379.846C932.042 379.855 932.052 379.866 932.06 379.877C932.077 379.901 932.065 379.899 932.055 379.836L930.082 380.164ZM965.775 359.207C966.209 358.773 966.794 358.358 967.403 358.228C967.931 358.115 968.59 358.186 969.361 358.957L970.775 357.543C969.547 356.314 968.206 356.01 966.984 356.272C965.843 356.517 964.928 357.227 964.361 357.793L965.775 359.207ZM969.321 358.914C971.095 360.91 970.616 362.288 970.111 362.793L971.525 364.207C973.02 362.712 973.042 360.09 970.816 357.586L969.321 358.914ZM970.152 362.754C961.896 370.134 955.349 375.996 950.021 380.452C944.682 384.916 940.628 387.917 937.358 389.612L938.279 391.388C941.758 389.583 945.955 386.459 951.304 381.986C956.663 377.504 963.24 371.616 971.485 364.246L970.152 362.754ZM937.356 389.613C931.723 392.552 927.014 393.028 923.831 391.561C920.733 390.133 918.698 386.671 918.818 380.77L916.819 380.73C916.689 387.079 918.904 391.492 922.994 393.377C926.998 395.222 932.414 394.448 938.281 391.387L937.356 389.613ZM917.132 380.023C912.632 384.272 908.127 388.279 904.085 390.912C902.064 392.229 900.206 393.171 898.56 393.64C896.917 394.108 895.569 394.084 894.482 393.59L893.655 395.41C895.318 396.166 897.189 396.11 899.108 395.563C901.024 395.017 903.073 393.959 905.177 392.588C909.385 389.846 914.004 385.728 918.505 381.477L917.132 380.023ZM894.419 393.564C892.656 392.902 891.303 391.571 889.775 390.043L888.361 391.457C889.833 392.929 891.481 394.598 893.717 395.436L894.419 393.564ZM889.861 390.14C887.508 387.082 886.598 383.845 887.06 380.382L885.077 380.118C884.539 384.155 885.628 387.918 888.276 391.36L889.861 390.14ZM887.065 380.333C887.302 377.484 888.258 374.351 889.726 371.169L887.91 370.331C886.379 373.649 885.334 377.016 885.072 380.167L887.065 380.333ZM889.725 371.171C892.917 364.298 898.576 356.674 904.947 351.528L903.69 349.972C897.061 355.326 891.22 363.202 887.911 370.329L889.725 371.171ZM904.953 351.522C910.377 347.063 918.059 344.704 924.868 345.216C931.651 345.726 937.385 349.047 939.359 355.781L941.278 355.219C939.002 347.453 932.36 343.774 925.018 343.222C917.702 342.671 909.51 345.187 903.683 349.978L904.953 351.522ZM1005.5 355.5L1004.54 355.781L1004.56 355.827L1004.58 355.871L1005.5 355.5ZM998.254 354L999.168 353.594L999.087 353.412L998.943 353.275L998.254 354ZM976.504 358.75L977.134 359.527L977.144 359.518L976.504 358.75ZM959.254 386.75L958.281 386.517L957.883 388.182L959.529 387.712L959.254 386.75ZM990.754 357.75L990.047 357.043L990.02 357.07L989.995 357.099L990.754 357.75ZM996.254 359.75L997.006 359.091L996.985 359.066L996.961 359.043L996.254 359.75ZM998.254 365.25L997.396 364.736L997.355 364.804L997.325 364.879L998.254 365.25ZM996.254 380L997.24 379.836L997.237 379.813L997.232 379.79L996.254 380ZM1030.25 358.5L1030.7 359.394L1030.85 359.322L1030.96 359.207L1030.25 358.5ZM1035.25 358.25L1036 357.586L1035.98 357.564L1035.96 357.543L1035.25 358.25ZM1036 363.5L1036.67 364.246L1036.69 364.227L1036.71 364.207L1036 363.5ZM1003 390.5L1002.54 389.612L1002.54 389.613L1003 390.5ZM983.004 380.75L984.004 380.77L984.052 378.384L982.317 380.023L983.004 380.75ZM959.254 394.5L959.668 393.59L959.637 393.576L959.605 393.564L959.254 394.5ZM954.254 390.75L953.461 391.36L953.501 391.411L953.547 391.457L954.254 390.75ZM951.254 380.25L952.245 380.382L952.248 380.358L952.25 380.333L951.254 380.25ZM954.004 370.75L953.097 370.329L953.096 370.331L954.004 370.75ZM969.504 350.75L970.132 351.528L970.139 351.522L969.504 350.75ZM1004.58 355.871C1005.04 357.044 1004.98 357.696 1004.86 357.928C1004.82 358.005 1004.78 358.04 1004.7 358.065C1004.6 358.098 1004.38 358.125 1004 358.03L1003.51 359.97C1004.13 360.125 1004.75 360.152 1005.32 359.966C1005.92 359.773 1006.37 359.37 1006.65 358.822C1007.16 357.804 1006.96 356.456 1006.43 355.129L1004.58 355.871ZM1004 358.03C1003.21 357.834 1002.23 357.258 1001.3 356.415C1000.38 355.58 999.599 354.565 999.168 353.594L997.34 354.406C997.909 355.685 998.879 356.92 999.957 357.897C1001.03 358.867 1002.3 359.666 1003.51 359.97L1004 358.03ZM998.943 353.275C997.46 351.866 995.49 351.288 993.415 351.212C991.343 351.136 989.085 351.556 986.896 352.232C982.529 353.581 978.222 356.016 975.864 357.982L977.144 359.518C979.285 357.734 983.354 355.419 987.486 354.143C989.548 353.506 991.571 353.145 993.342 353.21C995.111 353.275 996.548 353.759 997.565 354.725L998.943 353.275ZM975.874 357.973C966.436 365.626 961.077 374.825 958.281 386.517L960.226 386.983C962.931 375.675 968.072 366.874 977.134 359.527L975.874 357.973ZM959.529 387.712C960.768 387.358 962.18 386.605 963.671 385.621C965.174 384.628 966.813 383.361 968.512 381.929C971.91 379.063 975.6 375.49 979 372.012C982.404 368.53 985.531 365.128 987.806 362.598C988.944 361.333 989.87 360.285 990.511 359.553C990.832 359.186 991.082 358.899 991.252 358.703C991.337 358.605 991.402 358.53 991.446 358.479C991.468 358.454 991.484 358.434 991.495 358.421C991.501 358.415 991.505 358.41 991.508 358.407C991.51 358.405 991.511 358.404 991.511 358.403C991.512 358.402 991.512 358.402 991.512 358.402C991.513 358.402 991.513 358.401 990.754 357.75C989.995 357.099 989.995 357.099 989.995 357.099C989.995 357.099 989.995 357.099 989.994 357.1C989.994 357.1 989.993 357.101 989.991 357.103C989.989 357.106 989.985 357.111 989.979 357.117C989.969 357.129 989.953 357.148 989.931 357.173C989.888 357.223 989.824 357.297 989.741 357.393C989.573 357.587 989.325 357.871 989.007 358.235C988.37 358.961 987.45 360.003 986.319 361.261C984.055 363.778 980.948 367.158 977.57 370.613C974.189 374.072 970.551 377.593 967.223 380.4C965.558 381.803 963.984 383.017 962.569 383.952C961.14 384.895 959.928 385.517 958.979 385.788L959.529 387.712ZM991.461 358.457C991.557 358.361 991.88 358.183 992.701 358.474C993.486 358.752 994.489 359.399 995.547 360.457L996.961 359.043C995.769 357.851 994.522 356.998 993.37 356.589C992.253 356.192 990.951 356.139 990.047 357.043L991.461 358.457ZM995.501 360.409C996.324 361.349 996.938 362.313 997.259 363.142C997.596 364.014 997.531 364.512 997.396 364.736L999.111 365.764C999.727 364.738 999.536 363.486 999.124 362.42C998.695 361.312 997.933 360.151 997.006 359.091L995.501 360.409ZM997.325 364.879C996.845 366.079 993.702 372.864 995.276 380.21L997.232 379.79C995.806 373.136 998.662 366.921 999.182 365.621L997.325 364.879ZM995.268 380.164C995.378 380.827 995.751 381.381 996.39 381.664C996.948 381.912 997.583 381.893 998.153 381.794C999.307 381.594 1000.78 380.953 1002.39 380.088C1005.65 378.338 1009.87 375.451 1014.03 372.4C1018.2 369.342 1022.36 366.09 1025.49 363.591C1027.06 362.34 1028.38 361.277 1029.32 360.52C1029.79 360.141 1030.16 359.84 1030.42 359.631C1030.56 359.525 1030.66 359.446 1030.73 359.393C1030.76 359.366 1030.78 359.349 1030.8 359.34C1030.84 359.311 1030.78 359.354 1030.7 359.394L1029.81 357.606C1029.71 357.654 1029.63 357.718 1029.62 357.722C1029.59 357.747 1029.55 357.777 1029.5 357.809C1029.42 357.873 1029.31 357.96 1029.18 358.067C1028.91 358.281 1028.53 358.585 1028.06 358.963C1027.12 359.721 1025.81 360.781 1024.25 362.026C1021.12 364.519 1016.99 367.752 1012.85 370.787C1008.7 373.83 1004.57 376.646 1001.45 378.326C999.861 379.176 998.627 379.682 997.81 379.824C997.395 379.896 997.228 379.848 997.2 379.836C997.198 379.835 997.205 379.838 997.216 379.846C997.227 379.855 997.238 379.866 997.246 379.877C997.263 379.901 997.251 379.899 997.24 379.836L995.268 380.164ZM1030.96 359.207C1031.39 358.773 1031.98 358.358 1032.59 358.228C1033.12 358.115 1033.78 358.186 1034.55 358.957L1035.96 357.543C1034.73 356.314 1033.39 356.01 1032.17 356.272C1031.03 356.517 1030.11 357.227 1029.55 357.793L1030.96 359.207ZM1034.51 358.914C1036.28 360.91 1035.8 362.288 1035.3 362.793L1036.71 364.207C1038.21 362.712 1038.23 360.09 1036 357.586L1034.51 358.914ZM1035.34 362.754C1027.08 370.134 1020.53 375.996 1015.21 380.452C1009.87 384.916 1005.81 387.917 1002.54 389.612L1003.46 391.388C1006.94 389.583 1011.14 386.459 1016.49 381.986C1021.85 377.504 1028.43 371.616 1036.67 364.246L1035.34 362.754ZM1002.54 389.613C996.908 392.552 992.199 393.028 989.016 391.561C985.919 390.133 983.883 386.671 984.004 380.77L982.004 380.73C981.875 387.079 984.089 391.492 988.179 393.377C992.183 395.222 997.599 394.448 1003.47 391.387L1002.54 389.613ZM982.317 380.023C977.818 384.272 973.313 388.279 969.271 390.912C967.25 392.229 965.392 393.171 963.745 393.64C962.102 394.108 960.754 394.084 959.668 393.59L958.84 395.41C960.503 396.166 962.374 396.11 964.294 395.563C966.21 395.017 968.258 393.959 970.362 392.588C974.57 389.846 979.19 385.728 983.691 381.477L982.317 380.023ZM959.605 393.564C957.842 392.902 956.489 391.571 954.961 390.043L953.547 391.457C955.019 392.929 956.666 394.598 958.903 395.436L959.605 393.564ZM955.047 390.14C952.694 387.082 951.783 383.845 952.245 380.382L950.263 380.118C949.724 384.155 950.814 387.918 953.461 391.36L955.047 390.14ZM952.25 380.333C952.488 377.484 953.443 374.351 954.912 371.169L953.096 370.331C951.564 373.649 950.52 377.016 950.257 380.167L952.25 380.333ZM954.911 371.171C958.102 364.298 963.761 356.674 970.132 351.528L968.876 349.972C962.247 355.326 956.406 363.202 953.097 370.329L954.911 371.171ZM970.139 351.522C975.563 347.063 983.245 344.704 990.054 345.216C996.837 345.726 1002.57 349.047 1004.54 355.781L1006.46 355.219C1004.19 347.453 997.546 343.774 990.204 343.222C982.888 342.671 974.695 345.187 968.869 349.978L970.139 351.522ZM1036.69 345.75L1035.83 345.236L1035.82 345.249L1035.82 345.262L1036.69 345.75ZM1041.94 347L1041.23 347.707L1041.25 347.728L1041.28 347.747L1041.94 347ZM1044.44 353L1043.58 352.485L1043.57 352.5L1043.57 352.514L1044.44 353ZM1038.19 364.25L1037.32 363.764L1038.83 365.018L1038.19 364.25ZM1071.94 343.5L1071.68 344.465L1071.81 344.5H1071.94V343.5ZM1072.44 343.5L1072.73 342.542L1072.59 342.5H1072.44V343.5ZM1079.44 356.75L1078.48 356.48L1078.47 356.487L1079.44 356.75ZM1075.19 366.5L1076.08 366.947L1076.09 366.935L1076.1 366.923L1075.19 366.5ZM1068.19 380.25L1067.3 379.791L1066.89 380.591L1067.64 381.086L1068.19 380.25ZM1103.44 361.75V362.75H1103.94L1104.24 362.35L1103.44 361.75ZM1108.94 359.75L1108.19 360.414L1108.23 360.458L1108.28 360.497L1108.94 359.75ZM1108.69 363.5L1109.45 364.145L1109.46 364.135L1109.47 364.125L1108.69 363.5ZM1068.44 387.25L1068.99 386.413L1068.98 386.409L1068.44 387.25ZM1067.44 359.25L1066.54 358.803L1066.54 358.812L1067.44 359.25ZM1070.19 353.25L1071.13 353.601L1072.05 351.142L1069.72 352.365L1070.19 353.25ZM1021.69 393.5L1020.98 392.793L1020.93 392.843L1020.89 392.9L1021.69 393.5ZM1016.69 392L1015.94 392.664L1015.98 392.711L1016.03 392.753L1016.69 392ZM1014.19 386L1015.05 386.514L1015.05 386.501L1015.06 386.488L1014.19 386ZM1037.55 346.264C1037.59 346.195 1037.82 345.95 1038.63 346.132C1039.38 346.301 1040.34 346.814 1041.23 347.707L1042.65 346.293C1041.54 345.186 1040.25 344.449 1039.07 344.181C1037.93 343.925 1036.54 344.055 1035.83 345.236L1037.55 346.264ZM1041.28 347.747C1042.29 348.651 1043.01 349.712 1043.39 350.653C1043.79 351.659 1043.71 352.273 1043.58 352.485L1045.3 353.514C1045.92 352.477 1045.72 351.091 1045.24 349.91C1044.74 348.663 1043.84 347.349 1042.6 346.253L1041.28 347.747ZM1043.57 352.514L1037.32 363.764L1039.06 364.736L1045.31 353.486L1043.57 352.514ZM1038.83 365.018C1045.57 359.399 1052.6 353.867 1058.61 349.93C1061.62 347.961 1064.34 346.411 1066.63 345.449C1068.97 344.463 1070.65 344.185 1071.68 344.465L1072.2 342.535C1070.48 342.065 1068.25 342.599 1065.86 343.606C1063.41 344.635 1060.57 346.258 1057.52 348.257C1051.4 352.258 1044.31 357.851 1037.55 363.482L1038.83 365.018ZM1071.94 344.5H1072.44V342.5H1071.94V344.5ZM1072.15 344.458C1075.74 345.533 1077.63 347.141 1078.5 349.042C1079.39 350.978 1079.32 353.45 1078.48 356.48L1080.4 357.02C1081.3 353.8 1081.49 350.772 1080.32 348.208C1079.13 345.609 1076.64 343.717 1072.73 342.542L1072.15 344.458ZM1078.47 356.487C1077.75 359.127 1076.08 362.234 1074.28 366.077L1076.1 366.923C1077.8 363.266 1079.62 359.873 1080.4 357.013L1078.47 356.487ZM1074.3 366.053C1072.67 369.299 1070.92 372.733 1069.58 375.357C1068.91 376.668 1068.34 377.777 1067.94 378.558C1067.74 378.948 1067.58 379.256 1067.47 379.467C1067.41 379.572 1067.37 379.653 1067.34 379.708C1067.33 379.735 1067.32 379.756 1067.31 379.77C1067.31 379.777 1067.31 379.782 1067.3 379.785C1067.3 379.787 1067.3 379.788 1067.3 379.789C1067.3 379.79 1067.3 379.79 1067.3 379.79C1067.3 379.79 1067.3 379.79 1067.3 379.791C1067.3 379.791 1067.3 379.791 1068.19 380.25C1069.08 380.709 1069.08 380.709 1069.08 380.709C1069.08 380.709 1069.08 380.709 1069.08 380.709C1069.08 380.709 1069.08 380.709 1069.08 380.708C1069.08 380.707 1069.08 380.706 1069.08 380.704C1069.08 380.701 1069.09 380.695 1069.09 380.688C1069.1 380.674 1069.11 380.653 1069.12 380.626C1069.15 380.571 1069.19 380.49 1069.25 380.384C1069.35 380.173 1069.51 379.864 1069.72 379.473C1070.12 378.692 1070.69 377.582 1071.36 376.268C1072.71 373.642 1074.46 370.201 1076.08 366.947L1074.3 366.053ZM1067.64 381.086C1068.9 381.913 1070.45 382.117 1072.09 381.958C1073.72 381.798 1075.54 381.264 1077.41 380.501C1081.17 378.973 1085.37 376.45 1089.28 373.796C1093.2 371.136 1096.87 368.314 1099.57 366.161C1100.93 365.084 1102.04 364.173 1102.82 363.533C1103.21 363.211 1103.51 362.962 1103.72 362.793C1103.82 362.707 1103.9 362.649 1103.95 362.613C1103.97 362.594 1103.98 362.59 1103.97 362.595C1103.97 362.596 1103.95 362.611 1103.91 362.629C1103.9 362.638 1103.86 362.658 1103.81 362.679C1103.79 362.688 1103.64 362.75 1103.44 362.75V360.75C1103.24 360.75 1103.09 360.813 1103.06 360.824C1103.01 360.845 1102.97 360.867 1102.94 360.879C1102.9 360.904 1102.87 360.927 1102.85 360.94C1102.81 360.967 1102.77 360.997 1102.73 361.023C1102.66 361.077 1102.57 361.151 1102.46 361.238C1102.24 361.414 1101.93 361.67 1101.55 361.988C1100.77 362.626 1099.67 363.529 1098.33 364.597C1095.65 366.733 1092.02 369.521 1088.16 372.141C1084.29 374.768 1080.22 377.199 1076.66 378.648C1074.88 379.373 1073.27 379.833 1071.89 379.967C1070.52 380.102 1069.48 379.9 1068.74 379.414L1067.64 381.086ZM1104.24 362.35C1104.6 361.874 1105.38 360.931 1106.26 360.375C1106.69 360.099 1107.06 359.975 1107.35 359.973C1107.59 359.971 1107.87 360.049 1108.19 360.414L1109.69 359.086C1109.01 358.326 1108.2 357.967 1107.33 357.973C1106.52 357.978 1105.78 358.307 1105.18 358.688C1104 359.444 1103.03 360.626 1102.64 361.15L1104.24 362.35ZM1108.28 360.497C1108.8 360.962 1109.01 361.259 1109.08 361.422C1109.11 361.493 1109.11 361.52 1109.11 361.515C1109.11 361.508 1109.12 361.507 1109.11 361.525C1109.08 361.595 1109 361.717 1108.75 361.972C1108.54 362.185 1108.2 362.513 1107.91 362.875L1109.47 364.125C1109.68 363.862 1109.9 363.659 1110.18 363.364C1110.43 363.111 1110.77 362.748 1110.96 362.287C1111.18 361.752 1111.17 361.174 1110.9 360.585C1110.65 360.053 1110.21 359.538 1109.6 359.003L1108.28 360.497ZM1108.69 363.5C1107.93 362.855 1107.93 362.855 1107.93 362.855C1107.93 362.855 1107.93 362.855 1107.92 362.856C1107.92 362.856 1107.92 362.858 1107.92 362.859C1107.92 362.863 1107.91 362.868 1107.91 362.876C1107.9 362.89 1107.88 362.913 1107.85 362.942C1107.8 363.002 1107.72 363.09 1107.62 363.205C1107.42 363.436 1107.13 363.775 1106.75 364.204C1105.98 365.062 1104.87 366.28 1103.5 367.716C1100.76 370.59 1096.98 374.326 1092.8 377.793C1088.61 381.269 1084.08 384.43 1079.83 386.202C1075.55 387.985 1071.82 388.265 1068.99 386.413L1067.89 388.087C1071.56 390.485 1076.11 389.922 1080.6 388.048C1085.12 386.164 1089.83 382.856 1094.08 379.332C1098.34 375.799 1102.18 372.004 1104.95 369.097C1106.34 367.642 1107.46 366.407 1108.24 365.534C1108.63 365.098 1108.93 364.752 1109.14 364.515C1109.24 364.396 1109.32 364.304 1109.37 364.242C1109.4 364.211 1109.42 364.187 1109.43 364.171C1109.44 364.163 1109.44 364.157 1109.45 364.152C1109.45 364.15 1109.45 364.149 1109.45 364.147C1109.45 364.147 1109.45 364.146 1109.45 364.146C1109.45 364.146 1109.45 364.145 1108.69 363.5ZM1068.98 386.409C1066.3 384.682 1064.68 382.774 1063.78 380.777C1062.88 378.776 1062.67 376.607 1062.93 374.302C1063.47 369.633 1065.94 364.612 1068.34 359.688L1066.54 358.812C1064.19 363.638 1061.53 368.992 1060.95 374.073C1060.65 376.643 1060.87 379.192 1061.96 381.598C1063.04 384.007 1064.95 386.193 1067.9 388.091L1068.98 386.409ZM1068.33 359.697C1069.33 357.707 1070.35 355.659 1071.13 353.601L1069.25 352.899C1068.52 354.841 1067.55 356.793 1066.55 358.803L1068.33 359.697ZM1069.72 352.365C1062.47 356.181 1050.51 366.082 1040.31 375.062C1030.08 384.071 1021.5 392.274 1020.98 392.793L1022.4 394.207C1022.88 393.726 1031.42 385.554 1041.63 376.563C1051.87 367.543 1063.66 357.819 1070.66 354.135L1069.72 352.365ZM1020.89 392.9C1020.89 392.901 1020.89 392.903 1020.88 392.908C1020.86 392.916 1020.83 392.932 1020.75 392.941C1020.59 392.961 1020.33 392.941 1019.95 392.826C1019.22 392.597 1018.27 392.057 1017.35 391.247L1016.03 392.753C1017.11 393.693 1018.29 394.403 1019.36 394.736C1020.34 395.039 1021.7 395.152 1022.49 394.1L1020.89 392.9ZM1017.44 391.336C1016.48 390.261 1015.74 389.161 1015.32 388.221C1014.88 387.206 1014.94 386.689 1015.05 386.514L1013.33 385.486C1012.69 386.561 1013 387.919 1013.49 389.029C1014.02 390.214 1014.9 391.489 1015.94 392.664L1017.44 391.336ZM1015.06 386.488L1037.56 346.238L1035.82 345.262L1013.32 385.512L1015.06 386.488Z" fill="#C34CE1"/>
</g>
<defs>
<filter id="filter0_ddddd_32_89" x="0.75" y="0" width="1310.44" height="680" filterUnits="userSpaceOnUse" color-interpolation-filters="sRGB">
<feFlood flood-opacity="0" result="BackgroundImageFix"/>
<feColorMatrix in="SourceAlpha" type="matrix" values="0 0 0 0 0 0 0 0 0 0 0 0 0 0 0 0 0 0 127 0" result="hardAlpha"/>
<feOffset dy="4"/>
<feGaussianBlur stdDeviation="20"/>
<feComposite in2="hardAlpha" operator="out"/>
<feColorMatrix type="matrix" values="0 0 0 0 0.764706 0 0 0 0 0.298039 0 0 0 0 0.882353 0 0 0 1 0"/>
<feBlend mode="normal" in2="BackgroundImageFix" result="effect1_dropShadow_32_89"/>
<feColorMatrix in="SourceAlpha" type="matrix" values="0 0 0 0 0 0 0 0 0 0 0 0 0 0 0 0 0 0 127 0" result="hardAlpha"/>
<feOffset dy="4"/>
<feGaussianBlur stdDeviation="30"/>
<feComposite in2="hardAlpha" operator="out"/>
<feColorMatrix type="matrix" values="0 0 0 0 0.766458 0 0 0 0 0.296623 0 0 0 0 0.883916 0 0 0 1 0"/>
<feBlend mode="normal" in2="effect1_dropShadow_32_89" result="effect2_dropShadow_32_89"/>
<feColorMatrix in="SourceAlpha" type="matrix" values="0 0 0 0 0 0 0 0 0 0 0 0 0 0 0 0 0 0 127 0" result="hardAlpha"/>
<feOffset dy="4"/>
<feGaussianBlur stdDeviation="70"/>
<feComposite in2="hardAlpha" operator="out"/>
<feColorMatrix type="matrix" values="0 0 0 0 0.766458 0 0 0 0 0.296623 0 0 0 0 0.883916 0 0 0 1 0"/>
<feBlend mode="normal" in2="effect2_dropShadow_32_89" result="effect3_dropShadow_32_89"/>
<feColorMatrix in="SourceAlpha" type="matrix" values="0 0 0 0 0 0 0 0 0 0 0 0 0 0 0 0 0 0 127 0" result="hardAlpha"/>
<feOffset dy="4"/>
<feGaussianBlur stdDeviation="80"/>
<feComposite in2="hardAlpha" operator="out"/>
<feColorMatrix type="matrix" values="0 0 0 0 0.766458 0 0 0 0 0.296623 0 0 0 0 0.883916 0 0 0 1 0"/>
<feBlend mode="normal" in2="effect3_dropShadow_32_89" result="effect4_dropShadow_32_89"/>
<feColorMatrix in="SourceAlpha" type="matrix" values="0 0 0 0 0 0 0 0 0 0 0 0 0 0 0 0 0 0 127 0" result="hardAlpha"/>
<feOffset dy="4"/>
<feGaussianBlur stdDeviation="100"/>
<feComposite in2="hardAlpha" operator="out"/>
<feColorMatrix type="matrix" values="0 0 0 0 0.766458 0 0 0 0 0.296623 0 0 0 0 0.883916 0 0 0 1 0"/>
<feBlend mode="normal" in2="effect4_dropShadow_32_89" result="effect5_dropShadow_32_89"/>
<feBlend mode="normal" in="SourceGraphic" in2="effect5_dropShadow_32_89" result="shape"/>
</filter>
</defs>
</svg>
