<svg width="1312" height="680" viewBox="0 0 1312 680" fill="none" xmlns="http://www.w3.org/2000/svg">
<g id="Syed Ezaan" filter="url(#filter0_dddd_84_45)">
<path d="M497.75 261C496.75 262 494.25 261 492.25 258.75C490.25 256.75 489.5 254 490.5 253C491.5 252.25 492.25 250.5 492.5 248.75C493 245.75 492.5 242.25 490.25 238.75C488.25 235.25 484.5 231.75 478.75 228.25C437.5 205 356.25 225.25 316 244C296.75 253 249.5 279.75 262.5 307.25C268.5 320.25 289.5 327.5 310 334.5C321.75 338.75 333.5 342.75 343.25 348.25C414 388 325.75 473.5 256.25 474.75C231 476 201.5 464 201 438.75C200.75 427.25 209.75 412.25 232 394.5C233 393.5 235.5 394.75 237.5 397C239.5 399 240.25 401.75 239 402.5C217.5 419.75 209 433.75 209.25 444C209.5 460 237.25 461.75 248.25 461.25C309 459.75 396.5 385 344.25 355.5C335.5 350.75 324.25 346.75 312.75 342.75C289 334.5 264.75 326.25 255.25 306C240 273.25 283.75 244.75 307.75 233.5C350.75 213.5 433.75 196 477.75 221C486.75 226.25 493 232.5 496.5 238.75C500.25 244.75 501.25 250.5 500.75 254.75C500.25 257.5 499.25 259.75 497.75 261ZM528.145 409C530.145 409.25 532.645 411.25 533.895 413.75C535.145 416 534.895 417.75 532.895 417.75C479.895 413.25 440.895 414.25 412.645 418.25C395.895 446.5 377.145 473.75 368.645 473.75C357.145 473.5 347.145 467.25 342.145 458.5C339.395 453.5 338.395 447.75 340.145 442.25C341.895 437.25 345.645 432.25 352.395 427.5C362.645 420.25 379.645 413.75 405.645 409.75C412.145 398.75 418.395 387.75 423.645 378.25C415.895 385 407.895 390.25 402.645 389.75C400.395 389.5 398.645 389 396.895 388C391.895 385.25 389.145 381 389.145 375.75C388.895 372.75 389.895 369 391.645 365C394.895 357 401.395 347.25 409.395 337.75C410.395 336.5 412.895 337.5 414.895 339.5C416.895 341.75 417.895 344.25 416.895 345.5C408.895 354.75 402.645 364.25 399.395 372C398.895 373 398.395 378.5 399.895 379.5C417.145 383.25 446.645 340.75 444.645 339.25V339.5C445.645 338.25 447.645 339 449.895 341C451.895 343 453.145 345.5 452.395 346.75L446.895 356.5L446.645 356.75C446.645 357 433.895 381.5 418.645 408.25C445.895 405.25 481.895 405 528.145 409ZM399.395 420.5C380.645 424.5 367.645 429.75 359.395 435.75C353.145 440 349.645 444.75 348.145 449C346.895 453 347.395 456.25 348.645 458.75C350.895 462.25 356.395 464.75 363.395 465C370.145 465 384.895 444.5 399.395 420.5ZM466.18 358.25C469.68 357.25 473.43 355.75 477.43 354C482.68 351.25 487.18 346 489.93 341.25C490.43 340.25 490.68 339.5 491.18 338.5C488.43 339.75 485.18 341.75 481.43 344.5C476.43 348.25 470.68 353 466.18 358.25ZM483.93 362.25C472.18 368.25 458.93 369.75 458.18 369.75C441.18 406.25 508.68 375.25 516.43 361.25C517.18 359.75 519.68 358 521.93 360C523.93 362 523.93 363 523.18 364.5C516.18 376.75 477.18 403.75 459.93 394C451.43 389.25 446.18 379.25 448.18 369.5C449.43 363.25 453.18 356.75 458.18 351C463.18 345.5 468.93 340.25 474.43 336.25C481.68 331.25 488.43 328.25 491.18 328.75C493.43 329.25 495.43 330.5 497.18 332.5C499.68 335.25 500.68 338.5 500.18 341.5C499.93 343.75 498.93 346 497.68 348.5C494.93 353.75 489.93 359.25 483.93 362.25ZM553.982 370.25C553.732 371.5 552.232 371.75 550.482 370.75L550.232 371.25C541.232 379 533.232 385.25 526.982 389.25C518.482 394.5 504.232 395.75 504.982 381.5C505.232 377.75 506.982 373 509.732 368.25C514.732 360 525.482 346.25 535.982 346.75C545.732 346.5 548.732 351.5 551.232 355.25C560.482 346.5 569.982 336.25 578.982 325.5C599.482 301 613.482 280.75 620.232 270.25L625.482 262.25C626.232 261 628.482 261.5 630.732 263.75C632.732 265.75 633.982 268.25 633.232 269.75C633.232 269.75 631.232 273 627.232 279C602.732 317.5 509.982 463.75 513.482 472C514.482 474.5 513.482 475.75 511.482 475.25C509.482 474.75 506.982 472.5 506.232 470C503.232 463 536.482 406 568.482 353.25C563.732 358.25 558.982 363 554.232 367.25C554.232 369 553.982 370 553.982 370.25ZM545.732 360.5C545.232 358.75 543.982 356.75 540.732 356.75C531.732 356.25 521.732 368.5 517.482 375.5C515.482 379 513.982 382.25 513.482 384.75C514.982 384 517.232 382.75 519.982 381C526.232 377.25 534.232 371 542.982 363.25L545.732 360.5ZM811.412 222.5C812.162 221.25 814.662 222 816.662 224.25C818.912 226.25 819.912 229 818.912 230L817.412 232C898.912 232.25 991.162 236.5 992.412 251.25C992.662 253.25 990.912 253.75 988.662 252.25C986.412 251 984.412 248.25 984.162 246.25C983.662 240.25 889.662 239.75 810.912 240.5C798.412 256.75 774.162 289 751.412 322C782.662 320.5 816.912 322 819.162 333.75C819.662 335.75 818.162 336.5 815.912 335.25C813.662 334.25 811.412 331.5 811.162 329.5C810.412 325.25 774.912 327.75 745.662 330.5C714.162 377 688.412 422.25 706.162 423C728.662 424.25 753.412 423 774.162 422.25C805.162 420.75 828.912 419.75 832.912 431C833.662 433.25 832.662 434.5 830.662 433.75C828.412 433 826.162 430.5 825.162 428.25C825.162 428 805.412 429.75 779.662 430.75C758.412 431.75 733.912 433 710.912 431.75C681.662 430.25 703.912 381.5 734.662 331.5C719.162 333 707.412 334.5 707.162 334.5C705.662 334.75 702.912 333 701.412 330.5C699.912 328.25 699.912 326 701.662 325.75C701.662 325.75 719.162 323.75 740.412 322.5C743.912 317 747.662 311.25 751.162 305.75C750.912 304.75 750.662 303.75 751.162 303C751.162 303 790.162 246.5 715.412 245C708.662 244.75 704.662 244.75 702.912 244.5C676.662 241 672.912 238 687.912 236C686.412 235 687.912 234.75 694.412 235.25C699.662 234.75 706.412 234.5 714.162 234C727.412 233.5 747.412 232.75 770.662 232.5C781.162 232.25 792.412 232 803.912 232C808.662 226 811.162 222.5 811.412 222.5ZM771.412 276.5C781.162 262.5 790.412 250.25 797.412 240.75C789.912 240.75 782.662 241 775.912 241C765.162 241.25 755.162 241.5 746.162 241.75C767.162 249.25 772.162 263 771.412 276.5ZM851.014 366C850.014 367 847.514 365.75 845.514 363.75C843.514 361.5 842.764 359 844.014 358C844.014 358 859.264 344.5 871.264 342C874.514 341.25 877.764 342.25 880.514 345C883.014 347.5 884.514 350.5 884.514 353.75C884.764 355.75 884.264 358 883.014 360.25C879.764 367.75 870.514 377.25 852.764 384.75L853.014 385.25C862.764 384.25 886.014 381.25 899.264 358.5C900.014 357.25 900.764 355.75 902.764 357.75C905.014 359.75 905.764 359.25 905.014 360.5C889.014 387.75 862.014 394 854.764 394.25C855.514 403 854.014 415.25 843.264 425.75C835.264 433.75 826.514 437.75 820.014 438.25C817.014 438.5 814.264 438.25 812.014 437C808.264 435.25 805.264 432.25 803.764 428C802.764 425 803.014 421 805.014 416.5C812.264 401.25 840.514 388.5 846.264 386C845.764 383 844.764 381 844.514 380.25C843.764 378.75 843.764 377.25 845.014 376.75C862.764 369.5 872.014 360.25 875.264 353.25C875.514 352.25 876.014 351.5 876.014 350.75C865.014 353.75 851.264 366 851.014 366ZM836.014 418C843.014 411 845.764 403.75 846.514 397.25C836.514 402.25 818.264 412.25 813.014 423.75C811.764 426.25 811.264 428.25 811.264 429.5C812.264 429.75 813.264 429.75 814.514 429.75C820.514 429.25 828.264 425.5 836.014 418ZM940.318 355.5C941.318 358 940.568 359.5 938.568 359C936.568 358.5 934.068 356.25 933.068 354C928.068 349.25 915.818 355 911.318 358.75C902.068 366.25 896.818 375.25 894.068 386.75C902.818 384.25 925.568 357.75 925.568 357.75C926.568 356.75 928.818 357.5 931.068 359.75C932.818 361.75 933.818 364 933.068 365.25C932.568 366.5 929.568 373 931.068 380C932.068 386 964.568 358.75 965.068 358.5C966.068 357.5 968.068 356.25 970.068 358.25C972.068 360.5 971.818 362.5 970.818 363.5C954.318 378.25 944.568 387 937.818 390.5C926.318 396.5 917.568 393 917.818 380.75C908.818 389.25 899.568 397 894.068 394.5C892.068 393.75 890.568 392.25 889.068 390.75C886.568 387.5 885.568 384 886.068 380.25C886.318 377.25 887.318 374 888.818 370.75C892.068 363.75 897.818 356 904.318 350.75C915.568 341.5 936.068 341 940.318 355.5ZM1005.5 355.5C1006.5 358 1005.75 359.5 1003.75 359C1001.75 358.5 999.254 356.25 998.254 354C993.254 349.25 981.004 355 976.504 358.75C967.254 366.25 962.004 375.25 959.254 386.75C968.004 384.25 990.754 357.75 990.754 357.75C991.754 356.75 994.004 357.5 996.254 359.75C998.004 361.75 999.004 364 998.254 365.25C997.754 366.5 994.754 373 996.254 380C997.254 386 1029.75 358.75 1030.25 358.5C1031.25 357.5 1033.25 356.25 1035.25 358.25C1037.25 360.5 1037 362.5 1036 363.5C1019.5 378.25 1009.75 387 1003 390.5C991.504 396.5 982.754 393 983.004 380.75C974.004 389.25 964.754 397 959.254 394.5C957.254 393.75 955.754 392.25 954.254 390.75C951.754 387.5 950.754 384 951.254 380.25C951.504 377.25 952.504 374 954.004 370.75C957.254 363.75 963.004 356 969.504 350.75C980.754 341.5 1001.25 341 1005.5 355.5ZM1036.69 345.75C1037.44 344.5 1039.94 345 1041.94 347C1044.19 349 1045.19 351.75 1044.44 353L1038.19 364.25C1051.69 353 1066.44 342 1071.94 343.5H1072.44C1079.94 345.75 1081.19 350.5 1079.44 356.75C1078.69 359.5 1076.94 362.75 1075.19 366.5C1071.94 373 1068.19 380.25 1068.19 380.25C1076.19 385.5 1103.19 361.75 1103.44 361.75C1104.19 360.75 1106.94 357.5 1108.94 359.75C1111.19 361.75 1109.69 362.25 1108.69 363.5C1108.69 363.5 1081.44 395.75 1068.44 387.25C1057.19 380 1062.69 369 1067.44 359.25C1068.44 357.25 1069.44 355.25 1070.19 353.25C1055.94 360.75 1022.69 392.5 1021.69 393.5C1020.94 394.5 1018.69 393.75 1016.69 392C1014.69 389.75 1013.44 387.25 1014.19 386L1036.69 345.75Z" fill="white"/>
<path d="M497.75 261L497.43 260.616L497.413 260.63L497.396 260.646L497.75 261ZM492.25 258.75L492.624 258.418L492.614 258.407L492.604 258.396L492.25 258.75ZM490.5 253L490.2 252.6L490.172 252.621L490.146 252.646L490.5 253ZM492.5 248.75L492.007 248.668L492.005 248.679L492.5 248.75ZM490.25 238.75L489.816 238.998L489.822 239.009L489.829 239.02L490.25 238.75ZM478.75 228.25L479.01 227.823L479.003 227.819L478.996 227.814L478.75 228.25ZM316 244L315.789 243.547L315.788 243.547L316 244ZM262.5 307.25L262.954 307.04L262.952 307.036L262.5 307.25ZM310 334.5L310.17 334.03L310.162 334.027L310 334.5ZM343.25 348.25L343.004 348.685L343.005 348.686L343.25 348.25ZM256.25 474.75L256.241 474.25L256.233 474.25L256.225 474.251L256.25 474.75ZM201 438.75L201.5 438.74L201.5 438.739L201 438.75ZM232 394.5L232.312 394.891L232.334 394.873L232.354 394.854L232 394.5ZM237.5 397L237.126 397.332L237.136 397.343L237.146 397.354L237.5 397ZM239 402.5L238.743 402.071L238.714 402.089L238.687 402.11L239 402.5ZM209.25 444L209.75 443.992L209.75 443.988L209.25 444ZM248.25 461.25L248.238 460.75L248.227 460.751L248.25 461.25ZM344.25 355.5L344.496 355.065L344.489 355.061L344.25 355.5ZM312.75 342.75L312.914 342.278L312.914 342.278L312.75 342.75ZM255.25 306L254.797 306.211L254.797 306.212L255.25 306ZM307.75 233.5L307.539 233.047L307.538 233.047L307.75 233.5ZM477.75 221L478.002 220.568L477.997 220.565L477.75 221ZM496.5 238.75L496.064 238.994L496.07 239.005L496.076 239.015L496.5 238.75ZM500.75 254.75L501.242 254.839L501.245 254.824L501.247 254.808L500.75 254.75ZM497.396 260.646C497.122 260.921 496.519 261.019 495.563 260.631C494.649 260.259 493.584 259.498 492.624 258.418L491.876 259.082C492.916 260.252 494.101 261.116 495.187 261.557C496.231 261.981 497.378 262.079 498.104 261.354L497.396 260.646ZM492.604 258.396C491.658 257.451 491.017 256.335 490.73 255.359C490.43 254.338 490.558 253.649 490.854 253.354L490.146 252.646C489.442 253.351 489.445 254.537 489.77 255.641C490.108 256.79 490.842 258.049 491.896 259.104L492.604 258.396ZM490.8 253.4C491.392 252.956 491.874 252.248 492.236 251.458C492.601 250.661 492.864 249.739 492.995 248.821L492.005 248.679C491.886 249.511 491.649 250.339 491.327 251.042C491.001 251.752 490.608 252.294 490.2 252.6L490.8 253.4ZM492.993 248.832C493.513 245.711 492.989 242.085 490.671 238.48L489.829 239.02C492.011 242.415 492.487 245.789 492.007 248.668L492.993 248.832ZM490.684 238.502C488.625 234.898 484.795 231.344 479.01 227.823L478.49 228.677C484.205 232.156 487.875 235.602 489.816 238.998L490.684 238.502ZM478.996 227.814C458.219 216.104 427.451 215.377 396.927 219.88C366.379 224.387 335.958 234.151 315.789 243.547L316.211 244.453C336.292 235.099 366.621 225.363 397.073 220.87C427.549 216.373 458.031 217.146 478.505 228.686L478.996 227.814ZM315.788 243.547C306.146 248.055 289.47 257.017 276.823 268.315C270.501 273.963 265.154 280.221 262.211 286.828C259.261 293.451 258.725 300.434 262.048 307.464L262.952 307.036C259.775 300.316 260.27 293.643 263.125 287.235C265.986 280.81 271.218 274.662 277.489 269.06C290.03 257.858 306.605 248.945 316.212 244.453L315.788 243.547ZM262.046 307.46C265.12 314.12 272.001 319.247 280.588 323.572C289.187 327.902 299.596 331.476 309.838 334.973L310.162 334.027C299.904 330.524 289.563 326.973 281.037 322.678C272.499 318.378 265.88 313.38 262.954 307.04L262.046 307.46ZM309.83 334.97C321.599 339.227 333.3 343.211 343.004 348.685L343.496 347.814C333.7 342.289 321.901 338.273 310.17 334.03L309.83 334.97ZM343.005 348.686C360.577 358.559 368.197 371.216 368.778 384.631C369.36 398.084 362.87 412.419 351.958 425.619C330.13 452.024 290.823 473.628 256.241 474.25L256.259 475.25C291.177 474.622 330.745 452.851 352.729 426.256C363.724 412.956 370.374 398.385 369.777 384.588C369.178 370.753 361.298 357.816 343.495 347.814L343.005 348.686ZM256.225 474.251C243.678 474.872 230.088 472.198 219.59 466.252C209.101 460.312 201.745 451.139 201.5 438.74L200.5 438.76C200.755 451.611 208.399 461.063 219.097 467.123C229.787 473.177 243.572 475.878 256.275 475.249L256.225 474.251ZM201.5 438.739C201.378 433.125 203.513 426.601 208.477 419.249C213.44 411.897 221.212 403.746 232.312 394.891L231.688 394.109C220.538 403.004 212.685 411.228 207.648 418.689C202.612 426.149 200.372 432.875 200.5 438.761L201.5 438.739ZM232.354 394.854C232.482 394.725 232.678 394.643 232.986 394.652C233.3 394.661 233.7 394.767 234.163 394.984C235.087 395.417 236.159 396.244 237.126 397.332L237.874 396.668C236.841 395.506 235.663 394.583 234.587 394.079C234.05 393.827 233.512 393.667 233.014 393.653C232.509 393.638 232.018 393.775 231.646 394.146L232.354 394.854ZM237.146 397.354C238.093 398.3 238.731 399.414 238.986 400.35C239.114 400.819 239.139 401.216 239.083 401.513C239.029 401.801 238.906 401.973 238.743 402.071L239.257 402.929C239.719 402.652 239.971 402.199 240.066 401.698C240.158 401.206 240.104 400.649 239.951 400.087C239.644 398.961 238.907 397.7 237.854 396.646L237.146 397.354ZM238.687 402.11C227.914 410.754 220.375 418.601 215.557 425.591C210.741 432.579 208.622 438.744 208.75 444.012L209.75 443.988C209.628 439.006 211.634 433.046 216.38 426.159C221.125 419.274 228.586 411.496 239.313 402.89L238.687 402.11ZM208.75 444.008C208.815 448.174 210.678 451.412 213.577 453.895C216.462 456.367 220.375 458.096 224.582 459.293C232.997 461.689 242.744 462.001 248.273 461.749L248.227 460.751C242.756 460.999 233.128 460.686 224.856 458.332C220.719 457.154 216.96 455.477 214.228 453.136C211.509 450.807 209.81 447.826 209.75 443.992L208.75 444.008ZM248.262 461.75C278.797 460.996 315.974 441.857 338.976 419.231C350.475 407.92 358.5 395.671 360.33 384.337C361.246 378.659 360.608 373.203 358.063 368.225C355.52 363.249 351.093 358.789 344.496 355.065L344.004 355.935C350.47 359.586 354.738 363.915 357.173 368.68C359.607 373.442 360.23 378.677 359.342 384.178C357.562 395.204 349.712 407.268 338.274 418.519C315.401 441.018 278.453 460.004 248.238 460.75L248.262 461.75ZM344.489 355.061C335.696 350.288 324.406 346.275 312.914 342.278L312.586 343.222C324.094 347.225 335.304 351.212 344.011 355.939L344.489 355.061ZM312.914 342.278C301.028 338.149 289.072 334.038 278.897 328.437C268.729 322.84 260.391 315.781 255.703 305.788L254.797 306.212C259.609 316.469 268.146 323.66 278.415 329.313C288.678 334.962 300.722 339.101 312.586 343.222L312.914 342.278ZM255.703 305.789C248.208 289.692 255.168 274.599 267.143 262.032C279.114 249.471 295.99 239.565 307.962 233.953L307.538 233.047C295.51 238.685 278.511 248.654 266.419 261.343C254.332 274.026 247.042 289.558 254.797 306.211L255.703 305.789ZM307.961 233.953C329.411 223.977 360.859 214.616 392.434 210.872C424.027 207.125 455.644 209.015 477.503 221.435L477.997 220.565C455.856 207.985 423.973 206.125 392.316 209.878C360.641 213.634 329.089 223.023 307.539 233.047L307.961 233.953ZM477.498 221.432C486.439 226.648 492.617 232.839 496.064 238.994L496.936 238.506C493.383 232.161 487.061 225.852 478.002 220.568L477.498 221.432ZM496.076 239.015C499.772 244.928 500.739 250.566 500.253 254.692L501.247 254.808C501.761 250.434 500.728 244.572 496.924 238.485L496.076 239.015ZM500.258 254.661C499.767 257.364 498.798 259.476 497.43 260.616L498.07 261.384C499.702 260.024 500.733 257.636 501.242 254.839L500.258 254.661ZM528.145 409L528.207 408.504L528.197 408.503L528.188 408.502L528.145 409ZM533.895 413.75L533.447 413.974L533.452 413.983L533.457 413.993L533.895 413.75ZM532.895 417.75L532.852 418.248L532.873 418.25H532.895V417.75ZM412.645 418.25L412.574 417.755L412.337 417.789L412.214 417.995L412.645 418.25ZM368.645 473.75L368.634 474.25H368.645V473.75ZM342.145 458.5L341.706 458.741L341.71 458.748L342.145 458.5ZM340.145 442.25L339.673 442.085L339.67 442.092L339.668 442.098L340.145 442.25ZM352.395 427.5L352.682 427.909L352.683 427.908L352.395 427.5ZM405.645 409.75L405.721 410.244L405.955 410.208L406.075 410.004L405.645 409.75ZM423.645 378.25L424.082 378.492L423.316 377.873L423.645 378.25ZM402.645 389.75L402.589 390.247L402.597 390.248L402.645 389.75ZM396.895 388L397.143 387.566L397.135 387.562L396.895 388ZM389.145 375.75H389.645V375.729L389.643 375.708L389.145 375.75ZM391.645 365L392.103 365.2L392.108 365.188L391.645 365ZM409.395 337.75L409.777 338.072L409.785 338.062L409.395 337.75ZM414.895 339.5L415.268 339.168L415.258 339.157L415.248 339.146L414.895 339.5ZM416.895 345.5L417.273 345.827L417.279 345.82L417.285 345.812L416.895 345.5ZM399.395 372L399.842 372.224L399.849 372.209L399.856 372.193L399.395 372ZM399.895 379.5L399.617 379.916L399.696 379.968L399.788 379.989L399.895 379.5ZM444.645 339.25L444.945 338.85L444.145 338.25V339.25H444.645ZM444.645 339.5H444.145V340.925L445.035 339.812L444.645 339.5ZM449.895 341L450.248 340.646L450.238 340.636L450.227 340.626L449.895 341ZM452.395 346.75L451.966 346.493L451.959 346.504L452.395 346.75ZM446.895 356.5L447.248 356.854L447.296 356.805L447.33 356.746L446.895 356.5ZM446.645 356.75L446.291 356.396L446.145 356.543V356.75H446.645ZM418.645 408.25L418.21 408.002L417.724 408.854L418.699 408.747L418.645 408.25ZM399.395 420.5L399.822 420.759L400.42 419.77L399.29 420.011L399.395 420.5ZM359.395 435.75L359.676 436.163L359.682 436.159L359.689 436.154L359.395 435.75ZM348.145 449L347.673 448.834L347.67 448.842L347.667 448.851L348.145 449ZM348.645 458.75L348.197 458.974L348.209 458.998L348.224 459.02L348.645 458.75ZM363.395 465L363.377 465.5L363.386 465.5H363.395V465ZM528.083 409.496C528.958 409.606 529.997 410.11 530.984 410.918C531.965 411.721 532.856 412.792 533.447 413.974L534.342 413.526C533.683 412.208 532.699 411.029 531.617 410.144C530.542 409.265 529.331 408.644 528.207 408.504L528.083 409.496ZM533.457 413.993C534.063 415.082 534.242 415.948 534.125 416.488C534.07 416.739 533.954 416.913 533.784 417.032C533.606 417.156 533.325 417.25 532.895 417.25V418.25C533.464 418.25 533.964 418.126 534.357 417.851C534.757 417.571 535 417.167 535.102 416.7C535.297 415.802 534.976 414.668 534.332 413.507L533.457 413.993ZM532.937 417.252C479.913 412.75 440.873 413.748 412.574 417.755L412.715 418.745C440.916 414.752 479.876 413.75 532.852 418.248L532.937 417.252ZM412.214 417.995C403.843 432.114 394.979 445.97 387.152 456.292C383.238 461.454 379.594 465.717 376.409 468.685C374.817 470.169 373.351 471.318 372.035 472.093C370.712 472.872 369.58 473.25 368.645 473.25V474.25C369.834 474.25 371.147 473.777 372.542 472.955C373.944 472.129 375.468 470.929 377.091 469.417C380.336 466.392 384.02 462.077 387.949 456.896C395.81 446.53 404.696 432.636 413.075 418.505L412.214 417.995ZM368.655 473.25C357.328 473.004 347.49 466.847 342.579 458.252L341.71 458.748C346.799 467.653 356.962 473.996 368.634 474.25L368.655 473.25ZM342.583 458.259C339.885 453.354 338.921 447.746 340.621 442.402L339.668 442.098C337.868 447.754 338.904 453.646 341.706 458.741L342.583 458.259ZM340.616 442.415C342.325 437.535 345.997 432.613 352.682 427.909L352.107 427.091C345.292 431.887 341.464 436.965 339.673 442.085L340.616 442.415ZM352.683 427.908C362.844 420.721 379.758 414.238 405.721 410.244L405.568 409.256C379.531 413.262 362.445 419.779 352.106 427.092L352.683 427.908ZM406.075 410.004C412.578 399 418.83 387.996 424.082 378.492L423.207 378.008C417.959 387.504 411.711 398.5 405.214 409.496L406.075 410.004ZM423.316 377.873C419.454 381.237 415.543 384.214 411.957 386.286C408.35 388.369 405.154 389.487 402.692 389.252L402.597 390.248C405.385 390.513 408.814 389.256 412.457 387.152C416.121 385.036 420.085 382.013 423.973 378.627L423.316 377.873ZM402.7 389.253C400.501 389.009 398.82 388.525 397.143 387.566L396.646 388.434C398.469 389.475 400.288 389.991 402.589 390.247L402.7 389.253ZM397.135 387.562C392.272 384.887 389.645 380.793 389.645 375.75H388.645C388.645 381.207 391.517 385.613 396.654 388.438L397.135 387.562ZM389.643 375.708C389.403 372.834 390.363 369.176 392.103 365.2L391.186 364.8C389.426 368.824 388.386 372.666 388.646 375.792L389.643 375.708ZM392.108 365.188C395.33 357.257 401.793 347.553 409.777 338.072L409.012 337.428C400.996 346.947 394.459 356.743 391.181 364.812L392.108 365.188ZM409.785 338.062C410.082 337.691 410.672 337.558 411.607 337.879C412.516 338.192 413.579 338.891 414.541 339.854L415.248 339.146C414.211 338.109 413.023 337.308 411.932 336.933C410.867 336.567 409.707 336.559 409.004 337.438L409.785 338.062ZM414.521 339.832C415.492 340.925 416.201 342.057 416.548 343.041C416.903 344.048 416.841 344.767 416.504 345.188L417.285 345.812C417.948 344.983 417.886 343.827 417.491 342.709C417.088 341.568 416.297 340.325 415.268 339.168L414.521 339.832ZM416.516 345.173C408.495 354.447 402.211 363.992 398.933 371.807L399.856 372.193C403.079 364.508 409.294 355.053 417.273 345.827L416.516 345.173ZM398.947 371.776C398.782 372.108 398.649 372.714 398.556 373.384C398.459 374.078 398.395 374.914 398.395 375.75C398.395 376.583 398.458 377.437 398.626 378.16C398.788 378.854 399.073 379.553 399.617 379.916L400.172 379.084C399.966 378.947 399.751 378.584 399.6 377.934C399.456 377.313 399.395 376.542 399.395 375.75C399.395 374.961 399.455 374.172 399.546 373.522C399.64 372.848 399.757 372.392 399.842 372.224L398.947 371.776ZM399.788 379.989C404.311 380.972 409.54 378.916 414.725 375.418C419.933 371.906 425.206 366.865 429.86 361.678C434.517 356.488 438.571 351.133 441.338 346.976C442.721 344.9 443.789 343.112 444.451 341.787C444.78 341.129 445.019 340.564 445.142 340.126C445.203 339.909 445.245 339.694 445.241 339.499C445.238 339.317 445.191 339.035 444.945 338.85L444.345 339.65C444.223 339.559 444.24 339.45 444.241 339.517C444.242 339.571 444.229 339.679 444.18 339.855C444.082 340.202 443.876 340.701 443.556 341.34C442.92 342.613 441.877 344.362 440.506 346.422C437.765 350.539 433.741 355.856 429.116 361.01C424.489 366.166 419.278 371.141 414.166 374.589C409.031 378.053 404.103 379.903 400.001 379.011L399.788 379.989ZM444.145 339.25V339.5H445.145V339.25H444.145ZM445.035 339.812C445.213 339.59 445.424 339.466 445.67 339.416C445.928 339.363 446.253 339.385 446.653 339.509C447.46 339.759 448.459 340.393 449.562 341.374L450.227 340.626C449.08 339.607 447.954 338.866 446.949 338.554C446.442 338.396 445.94 338.34 445.47 338.436C444.991 338.534 444.576 338.785 444.254 339.188L445.035 339.812ZM449.541 341.354C450.509 342.321 451.282 343.398 451.721 344.363C452.176 345.365 452.206 346.093 451.966 346.493L452.823 347.007C453.334 346.157 453.113 345.01 452.631 343.949C452.132 342.852 451.281 341.679 450.248 340.646L449.541 341.354ZM451.959 346.504L446.459 356.254L447.33 356.746L452.83 346.996L451.959 346.504ZM446.541 356.146L446.291 356.396L446.998 357.104L447.248 356.854L446.541 356.146ZM446.145 356.75C446.145 356.695 446.154 356.654 446.156 356.644C446.16 356.627 446.164 356.615 446.165 356.609C446.169 356.599 446.171 356.593 446.17 356.596C446.168 356.6 446.163 356.614 446.152 356.638C446.13 356.686 446.096 356.759 446.048 356.857C445.953 357.053 445.81 357.339 445.621 357.711C445.244 358.455 444.687 359.535 443.971 360.909C442.538 363.658 440.469 367.578 437.923 372.326C432.83 381.823 425.833 394.632 418.21 408.002L419.079 408.498C426.707 395.118 433.709 382.302 438.804 372.799C441.352 368.047 443.423 364.124 444.857 361.372C445.575 359.996 446.133 358.912 446.513 358.164C446.702 357.79 446.848 357.498 446.947 357.294C446.996 357.193 447.036 357.111 447.063 357.049C447.077 357.02 447.09 356.99 447.1 356.963C447.105 356.95 447.112 356.932 447.119 356.911C447.122 356.901 447.127 356.884 447.132 356.864C447.135 356.85 447.145 356.807 447.145 356.75H446.145ZM418.699 408.747C445.907 405.752 481.873 405.5 528.101 409.498L528.188 408.502C481.916 404.5 445.882 404.748 418.59 407.753L418.699 408.747ZM399.29 420.011C380.509 424.018 367.432 429.287 359.1 435.346L359.689 436.154C367.857 430.213 380.78 424.982 399.499 420.989L399.29 420.011ZM359.113 435.337C352.793 439.634 349.215 444.464 347.673 448.834L348.616 449.166C350.074 445.036 353.496 440.366 359.676 436.163L359.113 435.337ZM347.667 448.851C346.379 452.972 346.888 456.356 348.197 458.974L349.092 458.526C347.901 456.144 347.41 453.028 348.622 449.149L347.667 448.851ZM348.224 459.02C350.602 462.72 356.304 465.247 363.377 465.5L363.412 464.5C356.485 464.253 351.187 461.78 349.065 458.48L348.224 459.02ZM363.395 465.5C364.359 465.5 365.415 465.136 366.53 464.508C367.651 463.876 368.867 462.957 370.162 461.794C372.752 459.469 375.703 456.13 378.882 452.058C385.244 443.91 392.568 432.765 399.822 420.759L398.967 420.241C391.721 432.235 384.42 443.34 378.094 451.442C374.93 455.495 372.021 458.781 369.494 461.05C368.231 462.184 367.074 463.053 366.039 463.637C364.999 464.223 364.118 464.5 363.395 464.5V465.5ZM466.18 358.25L465.8 357.925L464.717 359.188L466.317 358.731L466.18 358.25ZM477.43 354L477.63 354.458L477.646 354.451L477.662 354.443L477.43 354ZM489.93 341.25L490.362 341.501L490.37 341.487L490.377 341.474L489.93 341.25ZM491.18 338.5L491.627 338.724L492.259 337.46L490.973 338.045L491.18 338.5ZM481.43 344.5L481.134 344.097L481.13 344.1L481.43 344.5ZM483.93 362.25L483.706 361.803L483.702 361.805L483.93 362.25ZM458.18 369.75V369.25H457.861L457.726 369.539L458.18 369.75ZM516.43 361.25L516.867 361.492L516.872 361.483L516.877 361.474L516.43 361.25ZM521.93 360L522.283 359.646L522.273 359.636L522.262 359.626L521.93 360ZM523.18 364.5L523.614 364.748L523.621 364.736L523.627 364.724L523.18 364.5ZM459.93 394L460.176 393.565L460.174 393.564L459.93 394ZM448.18 369.5L448.669 369.6L448.67 369.598L448.18 369.5ZM458.18 351L457.81 350.664L457.802 350.672L458.18 351ZM474.43 336.25L474.146 335.838L474.136 335.846L474.43 336.25ZM491.18 328.75L491.288 328.262L491.279 328.26L491.269 328.258L491.18 328.75ZM497.18 332.5L496.803 332.829L496.81 332.836L497.18 332.5ZM500.18 341.5L499.686 341.418L499.684 341.431L499.683 341.445L500.18 341.5ZM497.68 348.5L498.123 348.732L498.127 348.724L497.68 348.5ZM466.317 358.731C469.85 357.721 473.624 356.211 477.63 354.458L477.229 353.542C473.235 355.289 469.51 356.779 466.042 357.769L466.317 358.731ZM477.662 354.443C483.023 351.634 487.584 346.3 490.362 341.501L489.497 340.999C486.776 345.7 482.336 350.866 477.198 353.557L477.662 354.443ZM490.377 341.474C490.634 340.959 490.827 340.509 491.014 340.072C491.202 339.634 491.384 339.209 491.627 338.724L490.732 338.276C490.475 338.791 490.282 339.241 490.095 339.678C489.907 340.116 489.725 340.541 489.482 341.026L490.377 341.474ZM490.973 338.045C488.18 339.314 484.899 341.336 481.134 344.097L481.725 344.903C485.461 342.164 488.68 340.186 491.387 338.955L490.973 338.045ZM481.13 344.1C476.119 347.858 470.335 352.633 465.8 357.925L466.559 358.575C471.024 353.367 476.74 348.642 481.73 344.9L481.13 344.1ZM483.702 361.805C477.876 364.78 471.669 366.643 466.817 367.763C464.393 368.322 462.312 368.695 460.792 368.928C459.253 369.163 458.322 369.25 458.18 369.25V370.25C458.412 370.25 459.419 370.149 460.943 369.916C462.485 369.68 464.591 369.303 467.042 368.737C471.941 367.607 478.233 365.72 484.157 362.695L483.702 361.805ZM457.726 369.539C455.587 374.133 454.74 377.736 454.986 380.483C455.235 383.272 456.61 385.155 458.798 386.237C460.947 387.3 463.84 387.574 467.139 387.29C470.448 387.006 474.222 386.156 478.173 384.915C486.076 382.432 494.745 378.368 501.926 374.046C505.517 371.884 508.745 369.653 511.323 367.517C513.892 365.389 515.853 363.325 516.867 361.492L515.992 361.008C515.069 362.675 513.225 364.643 510.685 366.747C508.155 368.843 504.971 371.046 501.41 373.189C494.287 377.476 485.69 381.505 477.874 383.96C473.965 385.188 470.266 386.018 467.053 386.294C463.83 386.571 461.151 386.286 459.241 385.341C457.371 384.415 456.201 382.841 455.982 380.394C455.76 377.904 456.523 374.492 458.633 369.961L457.726 369.539ZM516.877 361.474C517.198 360.831 517.917 360.109 518.793 359.781C519.633 359.466 520.622 359.506 521.598 360.374L522.262 359.626C520.987 358.493 519.601 358.409 518.442 358.844C517.318 359.266 516.411 360.169 515.982 361.026L516.877 361.474ZM521.576 360.354C522.561 361.338 522.975 362.004 523.098 362.548C523.216 363.065 523.091 363.56 522.732 364.276L523.627 364.724C524.019 363.94 524.269 363.185 524.074 362.327C523.885 361.496 523.299 360.662 522.283 359.646L521.576 360.354ZM522.746 364.252C521.041 367.235 517.347 371.174 512.449 375.265C507.563 379.346 501.519 383.547 495.157 387.062C488.792 390.58 482.127 393.4 475.999 394.738C469.86 396.078 464.333 395.915 460.176 393.565L459.684 394.435C464.151 396.96 469.968 397.078 476.212 395.715C482.466 394.35 489.224 391.483 495.64 387.938C502.059 384.391 508.156 380.154 513.09 376.032C518.013 371.92 521.819 367.89 523.614 364.748L522.746 364.252ZM460.174 393.564C451.843 388.908 446.718 379.115 448.669 369.6L447.69 369.4C445.641 379.385 451.016 389.592 459.686 394.436L460.174 393.564ZM448.67 369.598C449.897 363.462 453.591 357.039 458.557 351.328L457.802 350.672C452.768 356.461 448.962 363.038 447.689 369.402L448.67 369.598ZM458.55 351.336C463.53 345.858 469.255 340.632 474.724 336.654L474.136 335.846C468.604 339.868 462.829 345.142 457.81 350.664L458.55 351.336ZM474.714 336.662C478.32 334.175 481.793 332.191 484.696 330.894C486.148 330.245 487.449 329.772 488.546 329.492C489.654 329.21 490.508 329.136 491.09 329.242L491.269 328.258C490.476 328.114 489.456 328.228 488.298 328.523C487.13 328.822 485.774 329.317 484.288 329.981C481.317 331.309 477.79 333.325 474.146 335.838L474.714 336.662ZM491.071 329.238C493.202 329.712 495.112 330.897 496.803 332.829L497.556 332.171C495.747 330.103 493.657 328.788 491.288 328.262L491.071 329.238ZM496.81 332.836C499.222 335.49 500.158 338.59 499.686 341.418L500.673 341.582C501.202 338.41 500.138 335.01 497.55 332.164L496.81 332.836ZM499.683 341.445C499.444 343.596 498.483 345.775 497.232 348.276L498.127 348.724C499.376 346.225 500.416 343.903 500.677 341.555L499.683 341.445ZM497.237 348.268C494.528 353.44 489.599 358.857 483.706 361.803L484.153 362.697C490.261 359.643 495.332 354.06 498.123 348.732L497.237 348.268ZM553.982 370.25L554.473 370.348L554.482 370.299V370.25H553.982ZM550.482 370.75L550.73 370.316L550.272 370.054L550.035 370.526L550.482 370.75ZM550.232 371.25L550.559 371.629L550.635 371.563L550.68 371.474L550.232 371.25ZM526.982 389.25L527.245 389.675L527.252 389.671L526.982 389.25ZM504.982 381.5L504.483 381.467L504.483 381.474L504.982 381.5ZM509.732 368.25L509.305 367.991L509.3 367.999L509.732 368.25ZM535.982 346.75L535.959 347.249L535.977 347.25L535.995 347.25L535.982 346.75ZM551.232 355.25L550.816 355.527L551.145 356.021L551.576 355.613L551.232 355.25ZM578.982 325.5L579.366 325.821L579.366 325.821L578.982 325.5ZM620.232 270.25L619.814 269.976L619.812 269.98L620.232 270.25ZM625.482 262.25L625.9 262.524L625.906 262.516L625.911 262.507L625.482 262.25ZM630.732 263.75L630.379 264.104L630.732 263.75ZM633.232 269.75L633.658 270.012L633.67 269.993L633.68 269.974L633.232 269.75ZM627.232 279L626.816 278.723L626.811 278.732L627.232 279ZM513.482 472L513.947 471.814L513.943 471.805L513.482 472ZM511.482 475.25L511.361 475.735L511.482 475.25ZM506.232 470L506.711 469.856L506.703 469.829L506.692 469.803L506.232 470ZM568.482 353.25L568.91 353.509L568.12 352.906L568.482 353.25ZM554.232 367.25L553.899 366.877L553.732 367.026V367.25H554.232ZM545.732 360.5L546.086 360.854L546.294 360.646L546.213 360.363L545.732 360.5ZM540.732 356.75L540.705 357.249L540.719 357.25H540.732V356.75ZM517.482 375.5L517.055 375.24L517.048 375.252L517.482 375.5ZM513.482 384.75L512.992 384.652L512.792 385.654L513.706 385.197L513.482 384.75ZM519.982 381L519.725 380.571L519.714 380.578L519.982 381ZM542.982 363.25L543.314 363.624L543.325 363.614L543.336 363.604L542.982 363.25ZM553.492 370.152C553.449 370.369 553.357 370.52 553.241 370.625C553.123 370.732 552.953 370.814 552.721 370.849C552.245 370.921 551.548 370.783 550.73 370.316L550.234 371.184C551.167 371.717 552.095 371.954 552.869 371.838C553.262 371.779 553.623 371.627 553.911 371.367C554.202 371.105 554.391 370.756 554.473 370.348L553.492 370.152ZM550.035 370.526L549.785 371.026L550.68 371.474L550.93 370.974L550.035 370.526ZM549.906 370.871C540.913 378.616 532.933 384.848 526.713 388.829L527.252 389.671C533.531 385.652 541.552 379.384 550.559 371.629L549.906 370.871ZM526.72 388.825C522.536 391.408 516.974 392.979 512.602 392.195C510.43 391.806 508.578 390.842 507.307 389.16C506.034 387.475 505.298 385.008 505.482 381.526L504.483 381.474C504.291 385.117 505.055 387.838 506.509 389.762C507.965 391.689 510.066 392.757 512.425 393.18C517.116 394.021 522.928 392.342 527.245 389.675L526.72 388.825ZM505.481 381.533C505.724 377.891 507.434 373.218 510.165 368.501L509.3 367.999C506.531 372.782 504.741 377.609 504.484 381.467L505.481 381.533ZM510.16 368.509C512.646 364.408 516.557 358.947 521.14 354.581C525.742 350.196 530.923 347.01 535.959 347.249L536.006 346.251C530.541 345.99 525.097 349.429 520.45 353.857C515.783 358.303 511.819 363.842 509.305 367.991L510.16 368.509ZM535.995 347.25C540.775 347.127 543.849 348.29 546.029 349.902C548.227 351.528 549.555 353.635 550.816 355.527L551.648 354.973C550.41 353.115 548.988 350.847 546.624 349.098C544.24 347.335 540.94 346.123 535.97 346.25L535.995 347.25ZM551.576 355.613C560.843 346.848 570.356 336.583 579.366 325.821L578.599 325.179C569.609 335.917 560.122 346.152 550.889 354.887L551.576 355.613ZM579.366 325.821C599.88 301.304 613.893 281.037 620.653 270.52L619.812 269.98C613.072 280.463 599.085 300.696 578.599 325.179L579.366 325.821ZM620.65 270.524L625.9 262.524L625.064 261.976L619.814 269.976L620.65 270.524ZM625.911 262.507C626.123 262.155 626.586 261.949 627.416 262.171C628.241 262.391 629.292 263.017 630.379 264.104L631.086 263.396C629.922 262.233 628.724 261.484 627.674 261.204C626.629 260.926 625.592 261.095 625.054 261.993L625.911 262.507ZM630.379 264.104C631.346 265.071 632.118 266.146 632.556 267.139C633.003 268.152 633.061 268.975 632.785 269.526L633.68 269.974C634.154 269.025 633.962 267.848 633.471 266.736C632.972 265.604 632.119 264.429 631.086 263.396L630.379 264.104ZM633.232 269.75C632.807 269.488 632.807 269.488 632.807 269.488C632.807 269.488 632.807 269.488 632.807 269.488C632.806 269.488 632.806 269.488 632.806 269.488C632.806 269.489 632.806 269.489 632.805 269.49C632.804 269.492 632.803 269.494 632.801 269.497C632.797 269.503 632.791 269.513 632.784 269.525C632.768 269.55 632.745 269.587 632.714 269.637C632.652 269.737 632.559 269.887 632.434 270.086C632.185 270.483 631.81 271.075 631.311 271.855C630.313 273.415 628.815 275.725 626.816 278.723L627.648 279.277C629.65 276.275 631.152 273.96 632.154 272.395C632.654 271.612 633.03 271.017 633.281 270.617C633.406 270.417 633.5 270.266 633.563 270.165C633.595 270.115 633.618 270.076 633.634 270.051C633.642 270.038 633.648 270.028 633.652 270.022C633.654 270.019 633.656 270.016 633.657 270.015C633.657 270.014 633.658 270.013 633.658 270.013C633.658 270.013 633.658 270.012 633.658 270.012C633.658 270.012 633.658 270.012 633.658 270.012C633.658 270.012 633.658 270.012 633.232 269.75ZM626.811 278.732C614.56 297.982 585.246 344.173 559.43 386.584C546.523 407.788 534.488 428.053 525.897 443.535C521.602 451.274 518.163 457.827 515.907 462.708C514.779 465.146 513.94 467.181 513.438 468.743C513.187 469.523 513.015 470.2 512.936 470.76C512.86 471.3 512.857 471.807 513.022 472.195L513.943 471.805C513.889 471.678 513.856 471.399 513.926 470.9C513.994 470.419 514.148 469.802 514.39 469.049C514.874 467.544 515.693 465.552 516.814 463.127C519.055 458.28 522.48 451.753 526.771 444.02C535.352 428.556 547.379 408.305 560.285 387.104C586.094 344.702 615.404 298.518 627.654 279.268L626.811 278.732ZM513.018 472.186C513.5 473.391 513.425 474.122 513.191 474.473C512.988 474.777 512.515 474.993 511.604 474.765L511.361 475.735C512.45 476.007 513.476 475.848 514.023 475.027C514.54 474.253 514.464 473.109 513.947 471.814L513.018 472.186ZM511.604 474.765C510.713 474.542 509.663 473.912 508.736 473.016C507.813 472.122 507.056 471.006 506.711 469.856L505.754 470.144C506.159 471.494 507.027 472.753 508.041 473.734C509.052 474.713 510.252 475.458 511.361 475.735L511.604 474.765ZM506.692 469.803C506.555 469.484 506.499 468.954 506.583 468.168C506.665 467.394 506.875 466.429 507.213 465.278C507.888 462.978 509.056 459.995 510.65 456.427C513.837 449.293 518.704 439.878 524.671 429.022C536.603 407.313 552.91 379.883 568.91 353.509L568.055 352.991C552.054 379.367 535.737 406.812 523.794 428.54C517.824 439.403 512.941 448.847 509.737 456.019C508.136 459.603 506.948 462.633 506.254 464.996C505.907 466.177 505.679 467.206 505.588 468.062C505.499 468.905 505.535 469.641 505.773 470.197L506.692 469.803ZM568.12 352.906C563.375 357.9 558.635 362.64 553.899 366.877L554.566 367.623C559.33 363.36 564.09 358.6 568.845 353.594L568.12 352.906ZM553.732 367.25C553.732 368.101 553.672 368.767 553.611 369.25C553.581 369.493 553.551 369.69 553.527 369.848C553.507 369.984 553.482 370.14 553.482 370.25H554.482C554.482 370.252 554.483 370.235 554.489 370.183C554.495 370.135 554.504 370.075 554.516 369.996C554.539 369.841 554.571 369.632 554.604 369.375C554.668 368.858 554.732 368.149 554.732 367.25H553.732ZM546.213 360.363C545.948 359.436 545.474 358.403 544.602 357.601C543.719 356.788 542.469 356.25 540.732 356.25V357.25C542.245 357.25 543.246 357.712 543.925 358.337C544.615 358.972 545.017 359.814 545.252 360.637L546.213 360.363ZM540.76 356.251C536.042 355.989 531.159 359.056 526.985 362.947C522.788 366.86 519.198 371.711 517.055 375.241L517.91 375.759C520.017 372.289 523.552 367.515 527.667 363.678C531.806 359.819 536.422 357.011 540.705 357.249L540.76 356.251ZM517.048 375.252C515.044 378.76 513.509 382.068 512.992 384.652L513.973 384.848C514.456 382.432 515.921 379.24 517.917 375.748L517.048 375.252ZM513.706 385.197C515.224 384.438 517.489 383.18 520.251 381.422L519.714 380.578C516.976 382.32 514.741 383.562 513.259 384.303L513.706 385.197ZM520.24 381.429C526.529 377.655 534.556 371.381 543.314 363.624L542.651 362.876C533.909 370.619 525.936 376.845 519.725 380.571L520.24 381.429ZM543.336 363.604L546.086 360.854L545.379 360.146L542.629 362.896L543.336 363.604ZM811.412 222.5V223H811.695L811.841 222.757L811.412 222.5ZM816.662 224.25L816.288 224.582L816.308 224.604L816.33 224.624L816.662 224.25ZM818.912 230L818.559 229.646L818.533 229.672L818.512 229.7L818.912 230ZM817.412 232L817.012 231.7L816.414 232.497L817.411 232.5L817.412 232ZM992.412 251.25L991.914 251.292L991.915 251.302L991.916 251.312L992.412 251.25ZM988.662 252.25L988.939 251.834L988.923 251.823L988.905 251.813L988.662 252.25ZM984.162 246.25L983.664 246.292L983.665 246.302L983.666 246.312L984.162 246.25ZM810.912 240.5L810.907 240L810.664 240.002L810.516 240.195L810.912 240.5ZM751.412 322L751 321.716L750.427 322.548L751.436 322.499L751.412 322ZM819.162 333.75L818.671 333.844L818.674 333.858L818.677 333.871L819.162 333.75ZM815.912 335.25L816.155 334.813L816.135 334.802L816.115 334.793L815.912 335.25ZM811.162 329.5L811.658 329.438L811.657 329.425L811.654 329.413L811.162 329.5ZM745.662 330.5L745.615 330.002L745.38 330.024L745.248 330.22L745.662 330.5ZM706.162 423L706.19 422.501L706.183 422.5L706.162 423ZM774.162 422.25L774.18 422.75L774.186 422.749L774.162 422.25ZM832.912 431L833.387 430.842L833.383 430.832L832.912 431ZM830.662 433.75L830.838 433.282L830.829 433.279L830.82 433.276L830.662 433.75ZM825.162 428.25H824.662V428.356L824.705 428.453L825.162 428.25ZM779.662 430.75L779.643 430.25L779.639 430.251L779.662 430.75ZM710.912 431.75L710.939 431.251L710.938 431.251L710.912 431.75ZM734.662 331.5L735.088 331.762L735.615 330.905L734.614 331.002L734.662 331.5ZM707.162 334.5V334H707.121L707.08 334.007L707.162 334.5ZM701.412 330.5L701.841 330.243L701.835 330.233L701.828 330.223L701.412 330.5ZM701.662 325.75L701.605 325.253L701.591 325.255L701.662 325.75ZM740.412 322.5L740.441 322.999L740.697 322.984L740.834 322.768L740.412 322.5ZM751.162 305.75L751.584 306.018L751.699 305.837L751.647 305.629L751.162 305.75ZM751.162 303L750.751 302.716L750.746 302.723L751.162 303ZM715.412 245L715.394 245.5L715.402 245.5L715.412 245ZM702.912 244.5L702.983 244.005L702.978 244.004L702.912 244.5ZM687.912 236L687.978 236.496L689.294 236.32L688.189 235.584L687.912 236ZM694.412 235.25L694.374 235.749L694.417 235.752L694.46 235.748L694.412 235.25ZM714.162 234L714.143 233.5L714.13 233.501L714.162 234ZM770.662 232.5L770.667 233L770.674 233L770.662 232.5ZM803.912 232V232.5H804.154L804.304 232.31L803.912 232ZM771.412 276.5L770.913 276.472L770.815 278.232L771.822 276.786L771.412 276.5ZM797.412 240.75L797.815 241.047L798.402 240.25H797.412V240.75ZM775.912 241V240.5L775.901 240.5L775.912 241ZM746.162 241.75L746.148 241.25L745.994 242.221L746.162 241.75ZM811.841 222.757C812.029 222.443 812.514 222.248 813.415 222.538C814.28 222.817 815.333 223.507 816.288 224.582L817.036 223.918C815.991 222.743 814.794 221.933 813.722 221.587C812.685 221.252 811.545 221.307 810.983 222.243L811.841 222.757ZM816.33 224.624C817.402 225.577 818.164 226.699 818.539 227.679C818.726 228.169 818.808 228.602 818.799 228.947C818.79 229.292 818.692 229.513 818.559 229.646L819.266 230.354C819.632 229.987 819.785 229.489 819.799 228.975C819.813 228.461 819.692 227.894 819.473 227.321C819.035 226.176 818.172 224.923 816.994 223.876L816.33 224.624ZM818.512 229.7L817.012 231.7L817.812 232.3L819.312 230.3L818.512 229.7ZM817.411 232.5C858.156 232.625 901.577 233.75 934.962 236.686C951.658 238.154 965.823 240.073 975.883 242.54C980.916 243.775 984.892 245.139 987.637 246.637C990.412 248.151 991.78 249.718 991.914 251.292L992.91 251.208C992.731 249.095 990.943 247.302 988.116 245.759C985.259 244.2 981.185 242.811 976.121 241.569C965.986 239.083 951.76 237.159 935.05 235.689C901.622 232.75 858.168 231.625 817.414 231.5L817.411 232.5ZM991.916 251.312C991.97 251.743 991.909 252.037 991.808 252.224C991.713 252.4 991.564 252.52 991.343 252.58C990.864 252.711 990.02 252.554 988.939 251.834L988.385 252.666C989.554 253.446 990.711 253.789 991.606 253.545C992.073 253.418 992.455 253.131 992.688 252.698C992.916 252.276 992.979 251.757 992.908 251.188L991.916 251.312ZM988.905 251.813C987.854 251.229 986.843 250.282 986.063 249.233C985.28 248.178 984.769 247.071 984.658 246.188L983.666 246.312C983.806 247.429 984.42 248.697 985.261 249.829C986.106 250.968 987.22 252.021 988.419 252.687L988.905 251.813ZM984.66 246.208C984.63 245.85 984.43 245.559 984.181 245.333C983.932 245.107 983.597 244.91 983.206 244.733C982.421 244.377 981.305 244.056 979.908 243.76C977.105 243.167 973.06 242.657 967.998 242.217C957.869 241.336 943.598 240.735 926.893 240.344C893.478 239.562 850.284 239.625 810.907 240L810.917 241C850.29 240.625 893.471 240.563 926.869 241.344C943.57 241.734 957.815 242.335 967.912 243.213C972.963 243.652 976.959 244.159 979.701 244.739C981.075 245.029 982.107 245.333 982.793 245.644C983.137 245.8 983.368 245.946 983.509 246.074C983.65 246.202 983.662 246.275 983.664 246.292L984.66 246.208ZM810.516 240.195C798.013 256.449 773.757 288.707 751 321.716L751.824 322.284C774.567 289.293 798.811 257.051 811.308 240.805L810.516 240.195ZM751.436 322.499C767.051 321.75 783.392 321.752 796.098 323.402C802.454 324.228 807.868 325.462 811.82 327.204C815.789 328.953 818.156 331.154 818.671 333.844L819.653 333.656C819.043 330.471 816.285 328.079 812.223 326.289C808.143 324.491 802.62 323.241 796.227 322.41C783.433 320.748 767.023 320.75 751.388 321.501L751.436 322.499ZM818.677 333.871C818.787 334.312 818.774 334.635 818.705 334.853C818.64 335.057 818.521 335.188 818.354 335.267C817.984 335.442 817.236 335.413 816.155 334.813L815.669 335.687C816.838 336.337 817.966 336.558 818.782 336.171C819.209 335.968 819.512 335.615 819.658 335.155C819.8 334.709 819.787 334.188 819.647 333.629L818.677 333.871ZM816.115 334.793C815.079 334.332 814.013 333.452 813.173 332.432C812.328 331.406 811.767 330.306 811.658 329.438L810.666 329.562C810.808 330.694 811.497 331.969 812.401 333.068C813.312 334.173 814.495 335.168 815.709 335.707L816.115 334.793ZM811.654 329.413C811.576 328.968 811.279 328.627 810.91 328.37C810.541 328.113 810.051 327.905 809.477 327.731C808.326 327.383 806.722 327.139 804.766 326.978C800.845 326.655 795.4 326.656 789.082 326.875C776.442 327.313 760.242 328.627 745.615 330.002L745.709 330.998C760.332 329.623 776.507 328.312 789.117 327.875C795.425 327.656 800.823 327.657 804.684 327.975C806.618 328.134 808.139 328.371 809.187 328.688C809.713 328.848 810.091 329.019 810.339 329.191C810.587 329.364 810.655 329.501 810.67 329.587L811.654 329.413ZM745.248 330.22C729.496 353.473 715.165 376.437 706.991 393.692C702.911 402.307 700.336 409.558 699.918 414.729C699.709 417.314 700.031 419.459 701.055 420.995C702.098 422.559 703.806 423.401 706.141 423.5L706.183 422.5C704.081 422.412 702.71 421.675 701.887 420.44C701.045 419.176 700.713 417.299 700.914 414.81C701.317 409.833 703.82 402.724 707.895 394.12C716.034 376.938 730.328 354.027 746.076 330.78L745.248 330.22ZM706.134 423.499C728.663 424.751 753.443 423.499 774.18 422.75L774.144 421.75C753.381 422.501 728.661 423.749 706.19 422.501L706.134 423.499ZM774.186 422.749C789.699 421.999 803.346 421.377 813.615 422.342C818.75 422.824 822.999 423.7 826.2 425.132C829.392 426.561 831.501 428.523 832.441 431.168L833.383 430.832C832.324 427.852 829.963 425.721 826.609 424.219C823.262 422.722 818.887 421.832 813.709 421.346C803.353 420.373 789.625 421.001 774.138 421.751L774.186 422.749ZM832.438 431.158C832.795 432.229 832.672 432.887 832.43 433.185C832.223 433.439 831.751 433.624 830.838 433.282L830.487 434.218C831.573 434.626 832.601 434.561 833.206 433.815C833.777 433.113 833.779 432.021 833.386 430.842L832.438 431.158ZM830.82 433.276C829.797 432.935 828.738 432.18 827.802 431.215C826.871 430.253 826.093 429.113 825.619 428.047L824.705 428.453C825.231 429.637 826.079 430.872 827.084 431.91C828.087 432.945 829.277 433.815 830.504 434.224L830.82 433.276ZM825.662 428.25C825.662 428.015 825.512 427.882 825.448 427.837C825.382 427.79 825.32 427.769 825.294 427.762C825.237 427.744 825.184 427.738 825.157 427.735C825.093 427.728 825.015 427.726 824.936 427.726C824.773 427.725 824.538 427.732 824.241 427.745C823.645 427.771 822.769 427.823 821.642 427.896C819.39 428.04 816.109 428.267 812.036 428.532C803.882 429.063 792.512 429.751 779.643 430.25L779.682 431.25C792.563 430.749 803.942 430.062 812.101 429.53C816.184 429.264 819.45 429.038 821.706 428.894C822.833 428.821 823.7 428.77 824.285 428.744C824.579 428.731 824.794 428.725 824.932 428.726C825.004 428.726 825.04 428.728 825.053 428.73C825.063 428.731 825.039 428.729 825.001 428.718C824.985 428.713 824.93 428.696 824.869 428.652C824.81 428.61 824.662 428.481 824.662 428.25H825.662ZM779.639 430.251C758.382 431.251 733.909 432.499 710.939 431.251L710.885 432.249C733.915 433.501 758.442 432.249 779.686 431.249L779.639 430.251ZM710.938 431.251C707.351 431.067 704.602 430.161 702.571 428.66C700.544 427.163 699.189 425.043 698.441 422.35C696.934 416.933 697.896 409.254 700.765 399.96C706.495 381.4 719.715 356.759 735.088 331.762L734.236 331.238C718.859 356.241 705.579 380.975 699.809 399.665C696.929 408.996 695.89 416.911 697.477 422.618C698.275 425.489 699.741 427.814 701.976 429.465C704.207 431.112 707.161 432.058 710.887 432.249L710.938 431.251ZM734.614 331.002C726.86 331.753 720.045 332.503 715.136 333.066C712.682 333.347 710.705 333.582 709.326 333.746C708.636 333.828 708.097 333.892 707.722 333.936C707.534 333.958 707.389 333.975 707.287 333.986C707.164 333.999 707.142 334 707.162 334V335C707.213 335 707.312 334.989 707.396 334.98C707.502 334.968 707.65 334.951 707.838 334.929C708.214 334.885 708.755 334.821 709.444 334.739C710.822 334.575 712.798 334.34 715.25 334.059C720.155 333.497 726.964 332.747 734.71 331.998L734.614 331.002ZM707.08 334.007C706.816 334.051 706.451 334.012 706.003 333.859C705.561 333.708 705.07 333.457 704.567 333.117C703.561 332.436 702.551 331.426 701.841 330.243L700.983 330.757C701.774 332.074 702.889 333.189 704.007 333.945C704.567 334.324 705.138 334.62 705.68 334.805C706.217 334.988 706.759 335.074 707.244 334.993L707.08 334.007ZM701.828 330.223C701.112 329.149 700.792 328.127 700.818 327.393C700.831 327.031 700.926 326.768 701.066 326.592C701.2 326.423 701.406 326.292 701.733 326.245L701.591 325.255C701.043 325.333 700.593 325.577 700.282 325.971C699.976 326.357 699.837 326.844 699.819 327.357C699.782 328.373 700.212 329.601 700.996 330.777L701.828 330.223ZM701.662 325.75C701.719 326.247 701.719 326.247 701.719 326.247C701.719 326.247 701.719 326.247 701.72 326.247C701.72 326.247 701.721 326.247 701.722 326.246C701.724 326.246 701.727 326.246 701.731 326.245C701.74 326.244 701.752 326.243 701.769 326.241C701.803 326.237 701.853 326.232 701.92 326.224C702.053 326.209 702.251 326.187 702.51 326.159C703.029 326.102 703.795 326.019 704.781 325.915C706.752 325.708 709.601 325.42 713.115 325.092C720.142 324.436 729.824 323.624 740.441 322.999L740.383 322.001C729.751 322.626 720.057 323.439 713.022 324.096C709.504 324.424 706.651 324.713 704.676 324.921C703.689 325.024 702.922 325.107 702.401 325.165C702.141 325.193 701.942 325.215 701.808 325.23C701.741 325.238 701.691 325.244 701.657 325.247C701.64 325.249 701.627 325.251 701.618 325.252C701.614 325.252 701.611 325.253 701.609 325.253C701.608 325.253 701.607 325.253 701.606 325.253C701.606 325.253 701.606 325.253 701.606 325.253C701.605 325.253 701.605 325.253 701.662 325.75ZM740.834 322.768C742.583 320.02 744.395 317.209 746.207 314.396C748.02 311.584 749.833 308.77 751.584 306.018L750.74 305.482C748.991 308.23 747.18 311.041 745.367 313.854C743.554 316.666 741.741 319.48 739.99 322.232L740.834 322.768ZM751.647 305.629C751.52 305.118 751.407 304.664 751.38 304.248C751.353 303.84 751.412 303.527 751.578 303.277L750.746 302.723C750.413 303.223 750.347 303.785 750.382 304.314C750.417 304.836 750.555 305.382 750.677 305.871L751.647 305.629ZM751.162 303C751.574 303.284 751.574 303.284 751.574 303.283C751.575 303.283 751.575 303.282 751.576 303.281C751.577 303.279 751.579 303.276 751.582 303.272C751.587 303.265 751.594 303.254 751.604 303.24C751.623 303.212 751.651 303.17 751.687 303.116C751.76 303.007 751.867 302.846 752.002 302.636C752.272 302.217 752.658 301.605 753.122 300.825C754.049 299.266 755.288 297.038 756.541 294.36C759.042 289.013 761.612 281.831 761.818 274.577C762.025 267.303 759.851 259.933 752.846 254.306C745.867 248.698 734.159 244.876 715.422 244.5L715.402 245.5C734.04 245.874 745.489 249.677 752.22 255.085C758.926 260.473 761.018 267.51 760.819 274.548C760.618 281.606 758.111 288.644 755.635 293.937C754.399 296.579 753.176 298.777 752.262 300.314C751.805 301.082 751.426 301.684 751.162 302.094C751.03 302.299 750.926 302.455 750.856 302.56C750.821 302.612 750.794 302.652 750.777 302.678C750.768 302.691 750.761 302.701 750.757 302.707C750.755 302.71 750.753 302.713 750.752 302.714C750.751 302.715 750.751 302.715 750.751 302.716C750.751 302.716 750.751 302.716 751.162 303ZM715.431 244.5C712.054 244.375 709.36 244.313 707.302 244.25C705.23 244.187 703.824 244.125 702.983 244.005L702.841 244.995C703.75 245.125 705.219 245.188 707.272 245.25C709.339 245.312 712.021 245.375 715.394 245.5L715.431 244.5ZM702.978 244.004C696.422 243.13 691.279 242.288 687.488 241.487C683.67 240.681 681.293 239.928 680.205 239.261C679.938 239.098 679.783 238.959 679.703 238.854C679.664 238.803 679.649 238.769 679.643 238.75C679.638 238.733 679.639 238.726 679.639 238.721C679.641 238.711 679.656 238.644 679.788 238.527C679.92 238.411 680.131 238.278 680.445 238.134C681.716 237.552 684.224 236.996 687.978 236.496L687.846 235.504C684.1 236.004 681.452 236.573 680.028 237.225C679.668 237.39 679.359 237.572 679.126 237.778C678.894 237.983 678.701 238.245 678.651 238.57C678.599 238.907 678.717 239.211 678.908 239.461C679.093 239.703 679.363 239.918 679.682 240.114C680.938 240.884 683.482 241.663 687.281 242.466C691.108 243.274 696.278 244.12 702.846 244.996L702.978 244.004ZM688.189 235.584C688.015 235.468 687.916 235.383 687.869 235.329C687.805 235.257 687.903 235.327 687.871 235.489C687.837 235.661 687.707 235.687 687.791 235.652C687.857 235.624 687.991 235.588 688.224 235.559C689.165 235.441 691.111 235.498 694.374 235.749L694.45 234.751C691.213 234.502 689.16 234.434 688.1 234.566C687.834 234.6 687.592 234.65 687.4 234.731C687.227 234.805 686.956 234.964 686.891 235.293C686.827 235.61 687.003 235.86 687.12 235.991C687.252 236.141 687.434 236.282 687.635 236.416L688.189 235.584ZM694.46 235.748C699.701 235.249 706.422 235 714.194 234.499L714.13 233.501C706.402 234 699.623 234.251 694.365 234.752L694.46 235.748ZM714.181 234.5C727.431 234 747.425 233.25 770.667 233L770.657 232C747.399 232.25 727.394 233 714.143 233.5L714.181 234.5ZM770.674 233C781.174 232.75 792.419 232.5 803.912 232.5V231.5C792.406 231.5 781.15 231.75 770.65 232L770.674 233ZM804.304 232.31C806.682 229.307 808.497 226.929 809.746 225.305C810.372 224.491 810.852 223.872 811.19 223.456C811.361 223.248 811.488 223.099 811.576 223.006C811.622 222.958 811.646 222.935 811.655 222.928C811.66 222.924 811.649 222.934 811.626 222.947C811.614 222.953 811.533 223 811.412 223V222C811.275 222 811.174 222.054 811.139 222.073C811.091 222.1 811.051 222.13 811.023 222.153C810.965 222.201 810.906 222.259 810.85 222.319C810.735 222.44 810.589 222.612 810.415 222.825C810.066 223.253 809.577 223.884 808.953 224.695C807.702 226.321 805.892 228.693 803.52 231.69L804.304 232.31ZM771.822 276.786C781.567 262.793 790.811 250.552 797.815 241.047L797.01 240.453C790.014 249.948 780.757 262.207 771.002 276.214L771.822 276.786ZM797.412 240.25C793.657 240.25 789.966 240.313 786.372 240.375C782.777 240.438 779.282 240.5 775.912 240.5V241.5C779.292 241.5 782.797 241.437 786.39 241.375C789.984 241.312 793.667 241.25 797.412 241.25V240.25ZM775.901 240.5C765.15 240.75 755.149 241 746.148 241.25L746.176 242.25C755.175 242 765.174 241.75 775.924 241.5L775.901 240.5ZM745.994 242.221C756.412 245.942 762.81 251.193 766.519 257.14C770.23 263.09 771.284 269.792 770.913 276.472L771.911 276.528C772.29 269.708 771.219 262.785 767.368 256.61C763.514 250.432 756.912 245.058 746.33 241.279L745.994 242.221ZM851.014 366V365.5H850.807L850.66 365.646L851.014 366ZM845.514 363.75L845.14 364.082L845.15 364.093L845.16 364.104L845.514 363.75ZM844.014 358L844.326 358.39L844.336 358.383L844.345 358.374L844.014 358ZM871.264 342L871.366 342.49L871.376 342.487L871.264 342ZM880.514 345L880.867 344.646L880.514 345ZM884.514 353.75H884.014V353.781L884.018 353.812L884.514 353.75ZM883.014 360.25L882.577 360.007L882.565 360.029L882.555 360.051L883.014 360.25ZM852.764 384.75L852.569 384.289L852.078 384.497L852.316 384.974L852.764 384.75ZM853.014 385.25L852.566 385.474L852.721 385.783L853.065 385.747L853.014 385.25ZM899.264 358.5L898.835 358.243L898.832 358.248L899.264 358.5ZM902.764 357.75L902.41 358.104L902.421 358.114L902.432 358.124L902.764 357.75ZM905.014 360.5L904.585 360.243L904.583 360.247L905.014 360.5ZM854.764 394.25L854.746 393.75L854.221 393.768L854.266 394.293L854.764 394.25ZM843.264 425.75L842.914 425.392L842.91 425.396L843.264 425.75ZM820.014 438.25L819.975 437.751L819.972 437.752L820.014 438.25ZM812.014 437L812.256 436.563L812.241 436.554L812.225 436.547L812.014 437ZM803.764 428L803.289 428.158L803.292 428.166L803.764 428ZM805.014 416.5L804.562 416.285L804.557 416.297L805.014 416.5ZM846.264 386L846.463 386.459L846.821 386.303L846.757 385.918L846.264 386ZM844.514 380.25L844.988 380.092L844.977 380.058L844.961 380.026L844.514 380.25ZM845.014 376.75L845.199 377.214L845.203 377.213L845.014 376.75ZM875.264 353.25L875.717 353.461L875.737 353.417L875.749 353.371L875.264 353.25ZM876.014 350.75H876.514V350.095L875.882 350.268L876.014 350.75ZM836.014 418L836.361 418.359L836.367 418.354L836.014 418ZM846.514 397.25L847.01 397.307L847.116 396.39L846.29 396.803L846.514 397.25ZM813.014 423.75L813.461 423.974L813.465 423.966L813.469 423.958L813.014 423.75ZM811.264 429.5H810.764V429.89L811.142 429.985L811.264 429.5ZM814.514 429.75V430.25H814.534L814.555 430.248L814.514 429.75ZM850.66 365.646C850.532 365.775 850.334 365.858 850.023 365.852C849.706 365.846 849.304 365.745 848.839 365.542C847.911 365.136 846.836 364.365 845.867 363.396L845.16 364.104C846.191 365.135 847.366 365.989 848.438 366.458C848.973 366.692 849.509 366.842 850.004 366.851C850.506 366.861 850.996 366.725 851.367 366.354L850.66 365.646ZM845.887 363.418C844.922 362.332 844.283 361.211 844.027 360.275C843.767 359.321 843.932 358.705 844.326 358.39L843.701 357.61C842.845 358.295 842.76 359.429 843.063 360.538C843.37 361.664 844.105 362.918 845.14 364.082L845.887 363.418ZM844.014 358C844.345 358.374 844.345 358.374 844.345 358.374C844.345 358.374 844.345 358.374 844.346 358.374C844.346 358.374 844.347 358.373 844.347 358.372C844.349 358.371 844.352 358.368 844.355 358.365C844.362 358.359 844.373 358.35 844.387 358.337C844.416 358.312 844.459 358.275 844.516 358.225C844.629 358.127 844.797 357.982 845.016 357.796C845.454 357.425 846.093 356.89 846.898 356.241C848.508 354.942 850.78 353.184 853.424 351.348C858.729 347.666 865.471 343.718 871.366 342.489L871.162 341.51C865.056 342.782 858.174 346.834 852.854 350.527C850.185 352.379 847.894 354.152 846.27 355.462C845.458 356.118 844.812 356.657 844.369 357.034C844.147 357.222 843.976 357.37 843.86 357.47C843.802 357.52 843.758 357.559 843.728 357.585C843.713 357.598 843.702 357.608 843.694 357.615C843.69 357.618 843.688 357.621 843.685 357.623C843.684 357.624 843.684 357.624 843.683 357.625C843.683 357.625 843.683 357.625 843.683 357.625C843.682 357.626 843.682 357.626 844.014 358ZM871.376 342.487C874.436 341.781 877.515 342.709 880.16 345.354L880.867 344.646C878.012 341.791 874.591 340.719 871.151 341.513L871.376 342.487ZM880.16 345.354C882.591 347.784 884.014 350.663 884.014 353.75H885.014C885.014 350.337 883.437 347.216 880.867 344.646L880.16 345.354ZM884.018 353.812C884.252 355.685 883.787 357.828 882.577 360.007L883.451 360.493C884.74 358.172 885.276 355.815 885.01 353.688L884.018 353.812ZM882.555 360.051C879.374 367.391 870.251 376.818 852.569 384.289L852.958 385.211C870.776 377.682 880.153 368.109 883.472 360.449L882.555 360.051ZM852.316 384.974L852.566 385.474L853.461 385.026L853.211 384.526L852.316 384.974ZM853.065 385.747C862.828 384.746 886.313 381.73 899.696 358.752L898.832 358.248C885.715 380.77 862.699 383.754 852.963 384.753L853.065 385.747ZM899.692 358.757C899.888 358.43 900.06 358.13 900.25 357.868C900.441 357.606 900.613 357.436 900.779 357.348C900.921 357.273 901.084 357.243 901.32 357.322C901.58 357.408 901.937 357.63 902.41 358.104L903.117 357.396C902.591 356.87 902.104 356.529 901.637 356.373C901.146 356.21 900.7 356.258 900.311 356.464C899.945 356.658 899.665 356.972 899.441 357.28C899.217 357.589 899.014 357.944 898.835 358.243L899.692 358.757ZM902.432 358.124C903.563 359.13 904.427 359.591 904.714 359.806C904.876 359.928 904.795 359.915 904.795 359.824C904.795 359.809 904.799 359.829 904.765 359.909C904.731 359.987 904.675 360.092 904.585 360.243L905.442 360.757C905.54 360.595 905.624 360.443 905.685 360.301C905.744 360.161 905.795 359.999 905.795 359.824C905.795 359.413 905.526 359.166 905.314 359.006C904.85 358.659 904.214 358.37 903.096 357.376L902.432 358.124ZM904.583 360.247C888.691 387.312 861.873 393.505 854.746 393.75L854.781 394.75C862.154 394.495 889.337 388.188 905.445 360.753L904.583 360.247ZM854.266 394.293C855.007 402.946 853.525 415.029 842.914 425.392L843.613 426.108C854.503 415.471 856.02 403.054 855.262 394.207L854.266 394.293ZM842.91 425.396C834.971 433.336 826.326 437.263 819.975 437.751L820.052 438.749C826.701 438.237 835.557 434.164 843.617 426.104L842.91 425.396ZM819.972 437.752C817.014 437.998 814.381 437.743 812.256 436.563L811.771 437.437C814.147 438.757 817.013 439.002 820.055 438.748L819.972 437.752ZM812.225 436.547C808.586 434.849 805.687 431.946 804.235 427.834L803.292 428.166C804.841 432.554 807.942 435.651 811.802 437.453L812.225 436.547ZM804.238 427.842C803.288 424.991 803.506 421.123 805.471 416.703L804.557 416.297C802.521 420.877 802.24 425.009 803.289 428.158L804.238 427.842ZM805.465 416.715C809.023 409.232 817.783 402.297 826.465 396.893C835.122 391.506 843.597 387.705 846.463 386.459L846.064 385.541C843.181 386.795 834.655 390.619 825.937 396.044C817.245 401.453 808.255 408.518 804.562 416.285L805.465 416.715ZM846.757 385.918C846.249 382.868 845.213 380.766 844.988 380.092L844.039 380.408C844.314 381.234 845.279 383.132 845.77 386.082L846.757 385.918ZM844.961 380.026C844.61 379.325 844.461 378.673 844.511 378.175C844.558 377.708 844.772 377.385 845.199 377.214L844.828 376.286C844.006 376.615 843.594 377.292 843.516 378.075C843.441 378.827 843.667 379.675 844.066 380.474L844.961 380.026ZM845.203 377.213C863.019 369.936 872.395 360.616 875.717 353.461L874.81 353.039C871.632 359.884 862.508 369.064 844.825 376.287L845.203 377.213ZM875.749 353.371C875.864 352.91 876.035 352.513 876.199 352.086C876.355 351.68 876.514 351.227 876.514 350.75H875.514C875.514 351.023 875.422 351.32 875.266 351.727C875.118 352.112 874.913 352.59 874.779 353.129L875.749 353.371ZM875.882 350.268C870.292 351.792 864.043 355.65 859.193 359.092C856.761 360.818 854.667 362.45 853.166 363.648C852.417 364.247 851.813 364.74 851.394 365.079C851.183 365.25 851.021 365.379 850.909 365.466C850.852 365.51 850.814 365.538 850.792 365.553C850.78 365.562 850.78 365.561 850.789 365.556C850.793 365.554 850.808 365.545 850.831 365.536C850.839 365.532 850.913 365.5 851.014 365.5V366.5C851.119 366.5 851.197 366.466 851.213 366.46C851.243 366.448 851.267 366.435 851.281 366.426C851.311 366.41 851.339 366.391 851.36 366.376C851.405 366.345 851.46 366.304 851.52 366.257C851.643 366.163 851.813 366.027 852.023 365.857C852.446 365.514 853.044 365.026 853.791 364.43C855.282 363.238 857.36 361.619 859.772 359.908C864.609 356.475 870.736 352.708 876.145 351.232L875.882 350.268ZM836.367 418.354C843.451 411.27 846.248 403.914 847.01 397.307L846.017 397.193C845.279 403.586 842.576 410.73 835.66 417.646L836.367 418.354ZM846.29 396.803C841.282 399.307 834.194 403.07 827.694 407.654C821.211 412.227 815.242 417.666 812.559 423.542L813.469 423.958C816.036 418.334 821.817 413.023 828.271 408.471C834.709 403.93 841.745 400.193 846.737 397.697L846.29 396.803ZM812.566 423.526C811.299 426.061 810.764 428.141 810.764 429.5H811.764C811.764 428.359 812.228 426.439 813.461 423.974L812.566 423.526ZM811.142 429.985C812.213 430.253 813.277 430.25 814.514 430.25V429.25C813.251 429.25 812.315 429.247 811.385 429.015L811.142 429.985ZM814.555 430.248C820.71 429.735 828.562 425.907 836.361 418.359L835.666 417.641C827.965 425.093 820.318 428.765 814.472 429.252L814.555 430.248ZM940.318 355.5L939.839 355.641L939.845 355.664L939.854 355.686L940.318 355.5ZM933.068 354L933.525 353.797L933.485 353.706L933.413 353.637L933.068 354ZM911.318 358.75L911.633 359.138L911.638 359.134L911.318 358.75ZM894.068 386.75L893.582 386.634L893.383 387.466L894.206 387.231L894.068 386.75ZM925.568 357.75L925.215 357.396L925.201 357.41L925.189 357.424L925.568 357.75ZM931.068 359.75L931.445 359.421L931.434 359.408L931.422 359.396L931.068 359.75ZM933.068 365.25L932.64 364.993L932.619 365.027L932.604 365.064L933.068 365.25ZM931.068 380L931.562 379.918L931.56 379.906L931.557 379.895L931.068 380ZM965.068 358.5L965.292 358.947L965.365 358.911L965.422 358.854L965.068 358.5ZM970.068 358.25L970.442 357.918L970.432 357.907L970.422 357.896L970.068 358.25ZM970.818 363.5L971.152 363.873L971.162 363.863L971.172 363.854L970.818 363.5ZM937.818 390.5L937.588 390.056L937.587 390.057L937.818 390.5ZM917.818 380.75L918.318 380.76L918.343 379.567L917.475 380.386L917.818 380.75ZM894.068 394.5L894.275 394.045L894.26 394.038L894.244 394.032L894.068 394.5ZM889.068 390.75L888.672 391.055L888.692 391.081L888.715 391.104L889.068 390.75ZM886.068 380.25L886.564 380.316L886.566 380.304L886.567 380.292L886.068 380.25ZM888.818 370.75L888.365 370.539L888.364 370.54L888.818 370.75ZM904.318 350.75L904.633 351.139L904.636 351.136L904.318 350.75ZM939.854 355.686C940.339 356.897 940.335 357.723 940.121 358.151C940.024 358.346 939.878 358.473 939.671 358.54C939.452 358.612 939.131 358.625 938.69 358.515L938.447 359.485C939.006 359.625 939.529 359.638 939.981 359.491C940.446 359.34 940.8 359.029 941.016 358.599C941.426 357.777 941.298 356.603 940.783 355.314L939.854 355.686ZM938.69 358.515C937.798 358.292 936.744 357.66 935.779 356.786C934.819 355.915 933.991 354.845 933.525 353.797L932.611 354.203C933.146 355.405 934.068 356.585 935.108 357.527C936.143 358.465 937.339 359.208 938.447 359.485L938.69 358.515ZM933.413 353.637C932.046 352.339 930.21 351.784 928.212 351.711C926.214 351.638 924.015 352.044 921.858 352.71C917.55 354.04 913.303 356.446 910.998 358.366L911.638 359.134C913.834 357.304 917.962 354.96 922.153 353.665C924.247 353.019 926.328 352.643 928.175 352.711C930.021 352.778 931.59 353.286 932.724 354.363L933.413 353.637ZM911.003 358.362C901.659 365.938 896.355 375.038 893.582 386.634L894.555 386.866C897.282 375.462 902.477 366.562 911.633 359.138L911.003 358.362ZM894.206 387.231C895.372 386.898 896.735 386.177 898.21 385.203C899.691 384.225 901.314 382.972 903.004 381.546C906.385 378.696 910.062 375.136 913.457 371.662C916.854 368.187 919.976 364.791 922.249 362.264C923.385 361.001 924.309 359.954 924.95 359.223C925.27 358.858 925.519 358.571 925.689 358.376C925.773 358.278 925.838 358.203 925.881 358.153C925.903 358.127 925.92 358.108 925.931 358.095C925.936 358.089 925.941 358.084 925.943 358.081C925.945 358.079 925.946 358.078 925.947 358.077C925.947 358.077 925.947 358.076 925.947 358.076C925.948 358.076 925.948 358.076 925.568 357.75C925.189 357.424 925.189 357.424 925.189 357.425C925.189 357.425 925.188 357.425 925.188 357.425C925.187 357.426 925.186 357.427 925.185 357.429C925.182 357.432 925.178 357.437 925.173 357.443C925.162 357.456 925.146 357.475 925.124 357.5C925.081 357.549 925.017 357.624 924.933 357.721C924.765 357.915 924.517 358.2 924.198 358.564C923.56 359.292 922.638 360.335 921.505 361.595C919.239 364.115 916.126 367.501 912.742 370.963C909.356 374.427 905.705 377.961 902.359 380.782C900.686 382.192 899.096 383.419 897.659 384.369C896.215 385.323 894.952 385.977 893.931 386.269L894.206 387.231ZM925.922 358.104C926.22 357.805 926.788 357.685 927.682 358.002C928.56 358.314 929.623 359.012 930.715 360.104L931.422 359.396C930.263 358.238 929.077 357.436 928.017 357.06C926.974 356.69 925.917 356.695 925.215 357.396L925.922 358.104ZM930.692 360.079C931.541 361.05 932.192 362.063 932.54 362.962C932.896 363.882 932.894 364.568 932.64 364.993L933.497 365.507C933.992 364.682 933.866 363.618 933.472 362.601C933.07 361.562 932.346 360.45 931.445 359.421L930.692 360.079ZM932.604 365.064C932.114 366.289 929.042 372.932 930.579 380.105L931.557 379.895C930.094 373.068 933.023 366.711 933.533 365.436L932.604 365.064ZM930.575 380.082C930.662 380.601 930.941 381.001 931.407 381.207C931.833 381.396 932.35 381.394 932.882 381.302C933.951 381.116 935.365 380.509 936.969 379.648C940.197 377.915 944.393 375.046 948.551 371.997C952.716 368.944 956.862 365.698 959.997 363.2C961.565 361.951 962.88 360.888 963.819 360.131C964.289 359.752 964.662 359.45 964.927 359.24C965.059 359.134 965.162 359.053 965.235 358.997C965.272 358.968 965.298 358.949 965.316 358.936C965.347 358.913 965.328 358.929 965.292 358.947L964.845 358.053C964.793 358.079 964.742 358.116 964.728 358.127C964.699 358.148 964.664 358.174 964.625 358.205C964.545 358.266 964.437 358.351 964.303 358.458C964.036 358.671 963.66 358.974 963.191 359.353C962.252 360.11 960.939 361.171 959.374 362.418C956.243 364.912 952.109 368.149 947.96 371.19C943.807 374.235 939.658 377.069 936.496 378.766C934.905 379.62 933.611 380.16 932.71 380.316C932.256 380.395 931.972 380.364 931.812 380.293C931.692 380.24 931.6 380.149 931.562 379.918L930.575 380.082ZM965.422 358.854C965.889 358.387 966.556 357.898 967.298 357.739C968 357.589 968.829 357.718 969.715 358.604L970.422 357.896C969.307 356.782 968.137 356.536 967.089 356.761C966.08 356.977 965.248 357.613 964.715 358.146L965.422 358.854ZM969.695 358.582C971.582 360.705 971.217 362.394 970.465 363.146L971.172 363.854C972.419 362.606 972.555 360.295 970.442 357.918L969.695 358.582ZM970.485 363.127C962.232 370.505 955.677 376.373 950.341 380.835C945 385.302 940.911 388.333 937.588 390.056L938.049 390.944C941.476 389.167 945.637 386.073 950.983 381.602C956.334 377.127 962.904 371.245 971.152 363.873L970.485 363.127ZM937.587 390.057C931.896 393.026 927.01 393.576 923.621 392.015C920.276 390.473 918.196 386.773 918.318 380.76L917.318 380.74C917.191 386.977 919.361 391.152 923.203 392.923C927.002 394.674 932.241 393.974 938.05 390.943L937.587 390.057ZM917.475 380.386C912.975 384.636 908.442 388.671 904.358 391.331C902.316 392.661 900.411 393.632 898.697 394.121C896.985 394.609 895.506 394.604 894.275 394.045L893.861 394.955C895.381 395.646 897.121 395.61 898.971 395.082C900.82 394.555 902.82 393.526 904.904 392.169C909.07 389.454 913.661 385.364 918.162 381.114L917.475 380.386ZM894.244 394.032C892.362 393.326 890.936 391.91 889.422 390.396L888.715 391.104C890.201 392.59 891.775 394.174 893.893 394.968L894.244 394.032ZM889.465 390.445C887.038 387.291 886.083 383.922 886.564 380.316L885.573 380.184C885.054 384.078 886.098 387.709 888.672 391.055L889.465 390.445ZM886.567 380.292C886.81 377.367 887.788 374.175 889.272 370.96L888.364 370.54C886.849 373.825 885.826 377.133 885.57 380.208L886.567 380.292ZM889.272 370.961C892.492 364.024 898.197 356.337 904.633 351.139L904.004 350.361C897.44 355.663 891.644 363.476 888.365 370.539L889.272 370.961ZM904.636 351.136C910.16 346.594 917.97 344.196 924.906 344.717C931.829 345.238 937.789 348.649 939.839 355.641L940.798 355.359C938.598 347.851 932.183 344.262 924.981 343.72C917.792 343.179 909.727 345.656 904.001 350.364L904.636 351.136ZM1005.5 355.5L1005.02 355.641L1005.03 355.664L1005.04 355.686L1005.5 355.5ZM998.254 354L998.711 353.797L998.67 353.706L998.598 353.637L998.254 354ZM976.504 358.75L976.819 359.138L976.824 359.134L976.504 358.75ZM959.254 386.75L958.768 386.634L958.569 387.466L959.391 387.231L959.254 386.75ZM990.754 357.75L990.4 357.396L990.387 357.41L990.375 357.424L990.754 357.75ZM996.254 359.75L996.63 359.421L996.619 359.408L996.607 359.396L996.254 359.75ZM998.254 365.25L997.825 364.993L997.805 365.027L997.79 365.064L998.254 365.25ZM996.254 380L996.747 379.918L996.745 379.906L996.743 379.895L996.254 380ZM1030.25 358.5L1030.48 358.947L1030.55 358.911L1030.61 358.854L1030.25 358.5ZM1035.25 358.25L1035.63 357.918L1035.62 357.907L1035.61 357.896L1035.25 358.25ZM1036 363.5L1036.34 363.873L1036.35 363.863L1036.36 363.854L1036 363.5ZM1003 390.5L1002.77 390.056L1002.77 390.057L1003 390.5ZM983.004 380.75L983.504 380.76L983.528 379.567L982.661 380.386L983.004 380.75ZM959.254 394.5L959.461 394.045L959.445 394.038L959.429 394.032L959.254 394.5ZM954.254 390.75L953.858 391.055L953.877 391.081L953.9 391.104L954.254 390.75ZM951.254 380.25L951.75 380.316L951.751 380.304L951.752 380.292L951.254 380.25ZM954.004 370.75L953.55 370.539L953.55 370.54L954.004 370.75ZM969.504 350.75L969.818 351.139L969.821 351.136L969.504 350.75ZM1005.04 355.686C1005.52 356.897 1005.52 357.723 1005.31 358.151C1005.21 358.346 1005.06 358.473 1004.86 358.54C1004.64 358.612 1004.32 358.625 1003.88 358.515L1003.63 359.485C1004.19 359.625 1004.71 359.638 1005.17 359.491C1005.63 359.34 1005.99 359.029 1006.2 358.599C1006.61 357.777 1006.48 356.603 1005.97 355.314L1005.04 355.686ZM1003.88 358.515C1002.98 358.292 1001.93 357.66 1000.96 356.786C1000 355.915 999.177 354.845 998.711 353.797L997.797 354.203C998.331 355.405 999.254 356.585 1000.29 357.527C1001.33 358.465 1002.52 359.208 1003.63 359.485L1003.88 358.515ZM998.598 353.637C997.232 352.339 995.396 351.784 993.397 351.711C991.4 351.638 989.201 352.044 987.044 352.71C982.735 354.04 978.488 356.446 976.184 358.366L976.824 359.134C979.02 357.304 983.147 354.96 987.339 353.665C989.432 353.019 991.514 352.643 993.361 352.711C995.206 352.778 996.776 353.286 997.91 354.363L998.598 353.637ZM976.189 358.362C966.845 365.938 961.541 375.038 958.768 386.634L959.74 386.866C962.467 375.462 967.663 366.562 976.819 359.138L976.189 358.362ZM959.391 387.231C960.558 386.898 961.92 386.177 963.395 385.203C964.876 384.225 966.499 382.972 968.19 381.546C971.57 378.696 975.247 375.136 978.643 371.662C982.04 368.187 985.162 364.791 987.434 362.264C988.571 361.001 989.495 359.954 990.135 359.223C990.456 358.858 990.705 358.571 990.874 358.376C990.959 358.278 991.023 358.203 991.067 358.153C991.089 358.127 991.105 358.108 991.116 358.095C991.122 358.089 991.126 358.084 991.129 358.081C991.13 358.079 991.131 358.078 991.132 358.077C991.133 358.077 991.133 358.076 991.133 358.076C991.133 358.076 991.133 358.076 990.754 357.75C990.375 357.424 990.374 357.424 990.374 357.425C990.374 357.425 990.374 357.425 990.374 357.425C990.373 357.426 990.372 357.427 990.371 357.429C990.368 357.432 990.364 357.437 990.358 357.443C990.348 357.456 990.331 357.475 990.31 357.5C990.267 357.549 990.203 357.624 990.118 357.721C989.95 357.915 989.702 358.2 989.383 358.564C988.745 359.292 987.824 360.335 986.691 361.595C984.424 364.115 981.312 367.501 977.928 370.963C974.542 374.427 970.891 377.961 967.545 380.782C965.872 382.192 964.282 383.419 962.844 384.369C961.4 385.323 960.138 385.977 959.117 386.269L959.391 387.231ZM991.107 358.104C991.406 357.805 991.973 357.685 992.868 358.002C993.745 358.314 994.809 359.012 995.9 360.104L996.607 359.396C995.449 358.238 994.263 357.436 993.202 357.06C992.159 356.69 991.102 356.695 990.4 357.396L991.107 358.104ZM995.878 360.079C996.727 361.05 997.377 362.063 997.725 362.962C998.081 363.882 998.08 364.568 997.825 364.993L998.683 365.507C999.178 364.682 999.051 363.618 998.658 362.601C998.256 361.562 997.531 360.45 996.63 359.421L995.878 360.079ZM997.79 365.064C997.3 366.289 994.228 372.932 995.765 380.105L996.743 379.895C995.28 373.068 998.208 366.711 998.718 365.436L997.79 365.064ZM995.761 380.082C995.847 380.601 996.126 381.001 996.592 381.207C997.018 381.396 997.536 381.394 998.067 381.302C999.137 381.116 1000.55 380.509 1002.15 379.648C1005.38 377.915 1009.58 375.046 1013.74 371.997C1017.9 368.944 1022.05 365.698 1025.18 363.2C1026.75 361.951 1028.07 360.888 1029 360.131C1029.47 359.752 1029.85 359.45 1030.11 359.24C1030.24 359.134 1030.35 359.053 1030.42 358.997C1030.46 358.968 1030.48 358.949 1030.5 358.936C1030.53 358.913 1030.51 358.929 1030.48 358.947L1030.03 358.053C1029.98 358.079 1029.93 358.116 1029.91 358.127C1029.88 358.148 1029.85 358.174 1029.81 358.205C1029.73 358.266 1029.62 358.351 1029.49 358.458C1029.22 358.671 1028.85 358.974 1028.38 359.353C1027.44 360.11 1026.12 361.171 1024.56 362.418C1021.43 364.912 1017.29 368.149 1013.15 371.19C1008.99 374.235 1004.84 377.069 1001.68 378.766C1000.09 379.62 998.797 380.16 997.896 380.316C997.442 380.395 997.158 380.364 996.998 380.293C996.878 380.24 996.786 380.149 996.747 379.918L995.761 380.082ZM1030.61 358.854C1031.07 358.387 1031.74 357.898 1032.48 357.739C1033.19 357.589 1034.01 357.718 1034.9 358.604L1035.61 357.896C1034.49 356.782 1033.32 356.536 1032.27 356.761C1031.27 356.977 1030.43 357.613 1029.9 358.146L1030.61 358.854ZM1034.88 358.582C1036.77 360.705 1036.4 362.394 1035.65 363.146L1036.36 363.854C1037.6 362.606 1037.74 360.295 1035.63 357.918L1034.88 358.582ZM1035.67 363.127C1027.42 370.505 1020.86 376.373 1015.53 380.835C1010.19 385.302 1006.1 388.333 1002.77 390.056L1003.23 390.944C1006.66 389.167 1010.82 386.073 1016.17 381.602C1021.52 377.127 1028.09 371.245 1036.34 363.873L1035.67 363.127ZM1002.77 390.057C997.081 393.026 992.195 393.576 988.807 392.015C985.461 390.473 983.381 386.773 983.504 380.76L982.504 380.74C982.377 386.977 984.547 391.152 988.388 392.923C992.187 394.674 997.427 393.974 1003.24 390.943L1002.77 390.057ZM982.661 380.386C978.161 384.636 973.627 388.671 969.543 391.331C967.502 392.661 965.596 393.632 963.882 394.121C962.17 394.609 960.692 394.604 959.461 394.045L959.047 394.955C960.566 395.646 962.306 395.61 964.157 395.082C966.005 394.555 968.006 393.526 970.089 392.169C974.256 389.454 978.847 385.364 983.347 381.114L982.661 380.386ZM959.429 394.032C957.548 393.326 956.121 391.91 954.607 390.396L953.9 391.104C955.386 392.59 956.96 394.174 959.078 394.968L959.429 394.032ZM954.65 390.445C952.224 387.291 951.269 383.922 951.75 380.316L950.758 380.184C950.239 384.078 951.284 387.709 953.858 391.055L954.65 390.445ZM951.752 380.292C951.996 377.367 952.974 374.175 954.458 370.96L953.55 370.54C952.034 373.825 951.012 377.133 950.756 380.208L951.752 380.292ZM954.457 370.961C957.678 364.024 963.383 356.337 969.818 351.139L969.19 350.361C962.625 355.663 956.83 363.476 953.55 370.539L954.457 370.961ZM969.821 351.136C975.346 346.594 983.156 344.196 990.091 344.717C997.014 345.238 1002.97 348.649 1005.02 355.641L1005.98 355.359C1003.78 347.851 997.369 344.262 990.166 343.72C982.977 343.179 974.912 345.656 969.186 350.364L969.821 351.136ZM1036.69 345.75L1036.26 345.493L1036.26 345.499L1036.25 345.506L1036.69 345.75ZM1041.94 347L1041.59 347.354L1041.6 347.364L1041.61 347.374L1041.94 347ZM1044.44 353L1044.01 352.743L1044.01 352.75L1044 352.757L1044.44 353ZM1038.19 364.25L1037.75 364.007L1038.51 364.634L1038.19 364.25ZM1071.94 343.5L1071.81 343.982L1071.87 344H1071.94V343.5ZM1072.44 343.5L1072.58 343.021L1072.51 343H1072.44V343.5ZM1079.44 356.75L1078.96 356.615L1078.96 356.618L1079.44 356.75ZM1075.19 366.5L1075.64 366.724L1075.64 366.711L1075.19 366.5ZM1068.19 380.25L1067.75 380.02L1067.54 380.421L1067.92 380.668L1068.19 380.25ZM1103.44 361.75V362.25H1103.69L1103.84 362.05L1103.44 361.75ZM1108.94 359.75L1108.57 360.082L1108.59 360.104L1108.61 360.124L1108.94 359.75ZM1108.69 363.5L1109.07 363.823L1109.08 363.812L1108.69 363.5ZM1068.44 387.25L1068.71 386.831L1068.71 386.83L1068.44 387.25ZM1067.44 359.25L1066.99 359.026L1066.99 359.031L1067.44 359.25ZM1070.19 353.25L1070.66 353.426L1071.12 352.196L1069.96 352.808L1070.19 353.25ZM1021.69 393.5L1021.34 393.146L1021.31 393.172L1021.29 393.2L1021.69 393.5ZM1016.69 392L1016.32 392.332L1016.34 392.356L1016.36 392.376L1016.69 392ZM1014.19 386L1014.62 386.257L1014.62 386.251L1014.63 386.244L1014.19 386ZM1037.12 346.007C1037.33 345.66 1037.85 345.444 1038.74 345.644C1039.6 345.838 1040.64 346.407 1041.59 347.354L1042.29 346.646C1041.24 345.593 1040.03 344.912 1038.96 344.669C1037.91 344.431 1036.8 344.59 1036.26 345.493L1037.12 346.007ZM1041.61 347.374C1042.68 348.325 1043.44 349.45 1043.85 350.467C1044.27 351.517 1044.26 352.324 1044.01 352.743L1044.87 353.257C1045.37 352.426 1045.23 351.233 1044.78 350.096C1044.31 348.925 1043.45 347.674 1042.27 346.626L1041.61 347.374ZM1044 352.757L1037.75 364.007L1038.63 364.493L1044.88 353.243L1044 352.757ZM1038.51 364.634C1045.26 359.012 1052.3 353.465 1058.34 349.512C1061.36 347.535 1064.11 345.967 1066.44 344.988C1068.79 343.997 1070.61 343.655 1071.81 343.982L1072.07 343.018C1070.52 342.595 1068.43 343.065 1066.05 344.066C1063.64 345.079 1060.83 346.684 1057.79 348.675C1051.7 352.66 1044.62 358.238 1037.87 363.866L1038.51 364.634ZM1071.94 344H1072.44V343H1071.94V344ZM1072.3 343.979C1075.96 345.079 1078 346.758 1078.95 348.833C1079.91 350.926 1079.82 353.538 1078.96 356.615L1079.92 356.885C1080.81 353.712 1080.97 350.824 1079.86 348.417C1078.75 345.992 1076.42 344.171 1072.58 343.021L1072.3 343.979ZM1078.96 356.618C1078.22 359.314 1076.51 362.492 1074.74 366.289L1075.64 366.711C1077.37 363.008 1079.16 359.686 1079.92 356.882L1078.96 356.618ZM1074.74 366.276C1073.12 369.524 1071.37 372.96 1070.03 375.585C1069.35 376.897 1068.78 378.006 1068.38 378.787C1068.18 379.177 1068.02 379.486 1067.91 379.696C1067.86 379.802 1067.82 379.883 1067.79 379.937C1067.77 379.965 1067.76 379.985 1067.76 379.999C1067.75 380.006 1067.75 380.012 1067.75 380.015C1067.75 380.017 1067.75 380.018 1067.75 380.019C1067.75 380.019 1067.75 380.02 1067.75 380.02C1067.75 380.02 1067.75 380.02 1067.75 380.02C1067.75 380.02 1067.75 380.02 1068.19 380.25C1068.63 380.48 1068.63 380.48 1068.63 380.48C1068.63 380.48 1068.63 380.479 1068.63 380.479C1068.63 380.479 1068.63 380.479 1068.63 380.478C1068.63 380.477 1068.64 380.476 1068.64 380.474C1068.64 380.471 1068.64 380.466 1068.64 380.459C1068.65 380.445 1068.66 380.424 1068.68 380.397C1068.7 380.342 1068.75 380.261 1068.8 380.155C1068.91 379.944 1069.07 379.635 1069.27 379.245C1069.67 378.463 1070.24 377.353 1070.92 376.04C1072.26 373.415 1074.01 369.976 1075.64 366.724L1074.74 366.276ZM1067.92 380.668C1069.04 381.409 1070.47 381.613 1072.04 381.46C1073.61 381.307 1075.37 380.791 1077.23 380.037C1080.93 378.529 1085.1 376.03 1089 373.382C1092.91 370.732 1096.57 367.919 1099.26 365.77C1100.61 364.695 1101.72 363.786 1102.5 363.147C1102.89 362.826 1103.19 362.575 1103.4 362.404C1103.51 362.318 1103.59 362.256 1103.64 362.215C1103.67 362.195 1103.68 362.184 1103.69 362.181C1103.69 362.179 1103.68 362.184 1103.67 362.192C1103.66 362.196 1103.65 362.205 1103.62 362.215C1103.61 362.219 1103.54 362.25 1103.44 362.25V361.25C1103.34 361.25 1103.26 361.282 1103.25 361.287C1103.22 361.299 1103.2 361.31 1103.19 361.317C1103.16 361.33 1103.14 361.344 1103.13 361.353C1103.1 361.373 1103.07 361.397 1103.04 361.421C1102.97 361.47 1102.88 361.54 1102.78 361.627C1102.56 361.801 1102.25 362.055 1101.86 362.374C1101.09 363.013 1099.98 363.918 1098.64 364.988C1095.95 367.128 1092.32 369.924 1088.44 372.555C1084.56 375.189 1080.46 377.642 1076.85 379.111C1075.04 379.845 1073.38 380.324 1071.94 380.465C1070.5 380.605 1069.33 380.403 1068.46 379.832L1067.92 380.668ZM1103.84 362.05C1104.21 361.562 1105.04 360.559 1105.99 359.953C1106.46 359.651 1106.93 359.476 1107.35 359.473C1107.74 359.47 1108.15 359.618 1108.57 360.082L1109.31 359.418C1108.73 358.757 1108.04 358.468 1107.34 358.473C1106.66 358.477 1106.01 358.755 1105.45 359.109C1104.34 359.816 1103.42 360.938 1103.04 361.45L1103.84 362.05ZM1108.61 360.124C1109.15 360.606 1109.42 360.958 1109.54 361.213C1109.64 361.44 1109.62 361.585 1109.57 361.716C1109.5 361.884 1109.35 362.065 1109.11 362.32C1108.88 362.553 1108.57 362.85 1108.3 363.188L1109.08 363.812C1109.31 363.525 1109.56 363.29 1109.83 363.016C1110.07 362.763 1110.35 362.46 1110.5 362.097C1110.66 361.696 1110.66 361.263 1110.44 360.795C1110.24 360.355 1109.85 359.894 1109.27 359.376L1108.61 360.124ZM1108.69 363.5C1108.31 363.177 1108.31 363.177 1108.31 363.178C1108.31 363.178 1108.31 363.178 1108.31 363.178C1108.31 363.179 1108.3 363.181 1108.3 363.183C1108.3 363.186 1108.3 363.192 1108.29 363.2C1108.28 363.215 1108.26 363.237 1108.23 363.267C1108.18 363.327 1108.1 363.417 1108 363.533C1107.8 363.765 1107.5 364.106 1107.12 364.537C1106.35 365.398 1105.24 366.621 1103.87 368.061C1101.12 370.943 1097.32 374.694 1093.12 378.178C1088.92 381.666 1084.34 384.864 1080.02 386.664C1075.69 388.469 1071.75 388.82 1068.71 386.832L1068.17 387.668C1071.62 389.93 1075.97 389.437 1080.41 387.586C1084.86 385.73 1089.53 382.459 1093.76 378.947C1098 375.431 1101.82 371.65 1104.59 368.751C1105.97 367.301 1107.09 366.071 1107.87 365.202C1108.25 364.767 1108.55 364.423 1108.76 364.187C1108.86 364.07 1108.94 363.979 1108.99 363.917C1109.02 363.886 1109.04 363.863 1109.05 363.847C1109.06 363.839 1109.06 363.833 1109.07 363.829C1109.07 363.827 1109.07 363.826 1109.07 363.824C1109.07 363.824 1109.07 363.823 1109.07 363.823C1109.07 363.823 1109.07 363.823 1108.69 363.5ZM1068.71 386.83C1065.96 385.06 1064.27 383.082 1063.33 380.982C1062.38 378.88 1062.16 376.616 1062.44 374.245C1062.99 369.473 1065.5 364.369 1067.89 359.469L1066.99 359.031C1064.63 363.881 1062.02 369.152 1061.44 374.13C1061.15 376.634 1061.38 379.088 1062.41 381.393C1063.45 383.699 1065.29 385.815 1068.17 387.67L1068.71 386.83ZM1067.89 359.474C1068.88 357.478 1069.9 355.454 1070.66 353.426L1069.72 353.074C1068.98 355.045 1067.99 357.022 1066.99 359.026L1067.89 359.474ZM1069.96 352.808C1062.77 356.591 1050.85 366.447 1040.64 375.437C1030.42 384.442 1021.85 392.637 1021.34 393.146L1022.04 393.854C1022.53 393.363 1031.09 385.183 1041.3 376.188C1051.53 367.178 1063.36 357.409 1070.42 353.692L1069.96 352.808ZM1021.29 393.2C1021.12 393.424 1020.68 393.574 1019.81 393.304C1018.98 393.049 1017.98 392.466 1017.02 391.624L1016.36 392.376C1017.4 393.284 1018.52 393.951 1019.51 394.259C1020.45 394.551 1021.51 394.576 1022.09 393.8L1021.29 393.2ZM1017.06 391.668C1016.09 390.568 1015.31 389.424 1014.87 388.423C1014.41 387.384 1014.38 386.657 1014.62 386.257L1013.76 385.743C1013.25 386.593 1013.47 387.741 1013.95 388.827C1014.45 389.951 1015.29 391.182 1016.32 392.332L1017.06 391.668ZM1014.63 386.244L1037.13 345.994L1036.25 345.506L1013.75 385.756L1014.63 386.244Z" fill="white"/>
</g>
<defs>
<filter id="filter0_dddd_84_45" x="0.75" y="0" width="1310.44" height="680" filterUnits="userSpaceOnUse" color-interpolation-filters="sRGB">
<feFlood flood-opacity="0" result="BackgroundImageFix"/>
<feColorMatrix in="SourceAlpha" type="matrix" values="0 0 0 0 0 0 0 0 0 0 0 0 0 0 0 0 0 0 127 0" result="hardAlpha"/>
<feOffset dy="4"/>
<feGaussianBlur stdDeviation="30"/>
<feComposite in2="hardAlpha" operator="out"/>
<feColorMatrix type="matrix" values="0 0 0 0 0.766458 0 0 0 0 0.296623 0 0 0 0 0.883916 0 0 0 1 0"/>
<feBlend mode="normal" in2="BackgroundImageFix" result="effect1_dropShadow_84_45"/>
<feColorMatrix in="SourceAlpha" type="matrix" values="0 0 0 0 0 0 0 0 0 0 0 0 0 0 0 0 0 0 127 0" result="hardAlpha"/>
<feOffset dy="4"/>
<feGaussianBlur stdDeviation="70"/>
<feComposite in2="hardAlpha" operator="out"/>
<feColorMatrix type="matrix" values="0 0 0 0 0.766458 0 0 0 0 0.296623 0 0 0 0 0.883916 0 0 0 1 0"/>
<feBlend mode="normal" in2="effect1_dropShadow_84_45" result="effect2_dropShadow_84_45"/>
<feColorMatrix in="SourceAlpha" type="matrix" values="0 0 0 0 0 0 0 0 0 0 0 0 0 0 0 0 0 0 127 0" result="hardAlpha"/>
<feOffset dy="4"/>
<feGaussianBlur stdDeviation="80"/>
<feComposite in2="hardAlpha" operator="out"/>
<feColorMatrix type="matrix" values="0 0 0 0 0.766458 0 0 0 0 0.296623 0 0 0 0 0.883916 0 0 0 1 0"/>
<feBlend mode="normal" in2="effect2_dropShadow_84_45" result="effect3_dropShadow_84_45"/>
<feColorMatrix in="SourceAlpha" type="matrix" values="0 0 0 0 0 0 0 0 0 0 0 0 0 0 0 0 0 0 127 0" result="hardAlpha"/>
<feOffset dy="4"/>
<feGaussianBlur stdDeviation="100"/>
<feComposite in2="hardAlpha" operator="out"/>
<feColorMatrix type="matrix" values="0 0 0 0 0.766458 0 0 0 0 0.296623 0 0 0 0 0.883916 0 0 0 1 0"/>
<feBlend mode="normal" in2="effect3_dropShadow_84_45" result="effect4_dropShadow_84_45"/>
<feBlend mode="normal" in="SourceGraphic" in2="effect4_dropShadow_84_45" result="shape"/>
</filter>
</defs>
</svg>
